<svg width="1123" height="738" xmlns="http://www.w3.org/2000/svg">

 <g>
  <title>background</title>
  <rect fill="none" id="canvas_background" height="402" width="582" y="-1" x="-1"/>
 </g>
 <g>
  <title>Layer 1</title>
  <path id="svg_2" fill="#F76E42" d="m447,215l1.671,0.861l0.488,0.288l1.001,0.562l4.84,2.865l5,2.848l7,4.152l5,2.845l2.975,1.674l1.865,0.905l1.489,0.571l1.671,0.429l0,19c0,1.998 -0.03,3.998 0.019,5.995l0.129,1.951l0.455,1.791l0.425,0.793l1.29,1.377l0.83,0.618l1.871,1.216l1.982,1.258c0.992,0.624 1.982,1.249 2.999,1.832l3,1.615l2,1.112l3,1.797l2,1.157l5,2.772l5,2.866l4,2.274l7,4.152l4,2.274l3,1.753l6,3.546l2,1.116l1,0.541l2,0.976l1,0.385l1,0.28l2,0.146c1.42,-0.096 2.736,-0.671 4,-1.277c1.021,-0.49 2.011,-1.051 3,-1.601c2.366,-1.315 4.672,-2.732 7,-4.112c1.656,-0.981 3.323,-1.939 5,-2.883l2,-1.125l2,-1.05c0.956,-0.433 1.941,-0.823 3,-0.902l2,0.164l1,0.311l2,0.93l1,0.547l2,1.125c1.677,0.944 3.344,1.902 5,2.883c2.655,1.574 5.282,3.198 8,4.662c0.989,0.533 1.977,1.05 3,1.517l1,0.385l2,0.426l1,0c1.047,-0.071 2.039,-0.412 3,-0.811c1.033,-0.429 2.016,-0.987 3,-1.517c3.059,-1.647 6.005,-3.495 9,-5.254l6,-3.435l7,-4.152l4,-2.274l4,-2.3l7,-3.911l4,-2.384l4,-2.251l3.999,-2.444l1.982,-1.2l1.871,-1.159l0.83,-0.605l1.29,-1.367l0.425,-0.792l0.455,-1.791l0.129,-1.951c0.049,-1.997 0.019,-3.997 0.019,-5.995l0,-19l1.671,-0.429l1.489,-0.571l1.865,-0.905l2.975,-1.674l5,-2.845l7,-4.152l5,-2.848l4.84,-2.865l1.001,-0.562l0.488,-0.288l1.671,-0.861l0,-52l0,-13l-0.005,-2l-0.054,-1.996c-0.098,-1.325 -0.294,-2.644 -0.969,-3.816l-1.29,-1.635l-0.83,-0.717l-0.911,-0.662l-0.96,-0.618l-0.986,-0.602l-1.995,-1.2c-0.995,-0.596 -1.982,-1.206 -3,-1.762l-5,-2.656l-5,-2.912l-3,-1.705c-1.668,-0.952 -3.345,-1.892 -4.941,-2.963c-1.177,-0.789 -2.307,-1.727 -3.031,-2.966l-0.71,-1.833l-0.17,-0.972l-0.129,-1.986l-0.014,-0.999l-0.005,-3l0,-15c-0.001,-1.3306 0.026,-2.6652 -0.019,-3.9954c-0.043,-1.2498 -0.077,-2.5678 -0.57,-3.7407l-0.399,-0.7901l-1.16,-1.3442l-0.715,-0.5764c-0.79,-0.5614 -1.605,-1.074 -2.427,-1.5879c-1.554,-0.9719 -3.128,-1.9167 -4.714,-2.8349l-4.996,-2.8395l-3,-1.7261l-8,-4.4159l-8,-4.7245l-3,-1.7053l-5,-2.8696l-4,-2.2739c-3.01,-1.7468 -5.958,-3.5992 -9,-5.2909c-0.989,-0.55 -1.979,-1.1108 -3,-1.6003c-0.958,-0.4594 -1.949,-0.9237 -3,-1.1312l-2,-0.1458l-2,0.426l-1,0.385c-1.023,0.4669 -2.01,0.9836 -3,1.5162c-1.689,0.909 -3.337,1.8906 -5,2.8441l-5,2.8457l-3,1.7754l-2,1.1806l-2,1.0718l-2,0.7407l-2,0.1644c-1.058,-0.0798 -2.047,-0.4678 -3,-0.9051l-2,-1.0718l-2,-1.1806l-3,-1.7754l-5,-2.8457l-4,-2.294c-0.99,-0.5491 -1.979,-1.1107 -3,-1.6003c-1.265,-0.6062 -2.58,-1.181 -4,-1.277l-1,0l-2,0.426l-1,0.385c-1.023,0.4669 -2.011,0.9833 -3,1.5162c-3.059,1.6478 -6.005,3.4956 -9,5.2546l-5,2.8603l-4,2.301l-3,1.6998l-6,3.4961l-4,2.2184l-4,2.3048l-4,2.2608l-2,1.1605l-3.999,2.2461c-1.621,0.8924 -3.252,1.7686 -4.83,2.7361c-0.861,0.5276 -1.718,1.0707 -2.537,1.6613l-1.486,1.1705l-0.634,0.6482l-0.925,1.51l-0.275,0.8665l-0.167,0.9244l-0.128,1.9506l-0.014,0.9962l-0.005,2.9992l0,16l-0.005,2l-0.054,1.996c-0.098,1.318 -0.29,2.632 -0.969,3.794c-0.724,1.239 -1.854,2.177 -3.031,2.966c-1.595,1.07 -3.269,2.018 -4.941,2.96l-5,2.769l-5,2.844l-3,1.652l-2,1.159l-1.999,1.169l-0.996,0.565l-0.986,0.566l-0.96,0.595l-0.911,0.649l-1.545,1.54l-1,1.82l-0.455,1.96l-0.089,0.997l-0.058,2.999l-0.001,4l0,9l0,53z"/>
  <path id="svg_3" fill="#F2F0F0" d="m459,186l0.001,13c0.007,1.329 -0.027,2.672 0.108,3.996c0.134,1.323 0.391,2.631 1.07,3.794l1.255,1.6l1.675,1.367c0.927,0.669 1.922,1.246 2.895,1.843l4.996,2.976l4,2.274l4,2.3l2,1.112l2,1.01l1,0.406l2,0.408l0.999,-0.049l1.982,-0.575l1.89,-0.985l0.87,-0.587l1.549,-1.357l1.42,-1.619c0.768,-0.869 1.507,-1.757 2.419,-2.485l1.89,-1.249l0.986,-0.434l0.996,-0.297l1.999,-0.231l1.999,0.231l1.986,0.731l0.971,0.562l0.935,0.692l0.881,0.794l1.485,1.816l0.982,1.96l0.273,0.997l0.126,0.999l-0.196,2l-0.764,1.995l-1.251,1.946l-0.771,0.911l-0.845,0.83l-1.851,1.29l-0.975,0.425l-1.986,0.455l-0.999,0.09l-3,0.101l-1.995,0.185l-0.986,0.206l-1.871,0.745l-0.83,0.563l-0.715,0.692l-1,1.675l-0.285,0.935l-0.17,0.971l-0.129,1.986l-0.014,0.999l-0.005,3l0.001,5l0.018,2l0.129,1.996c0.143,1.01 0.377,1.997 0.88,2.896l0.575,0.884l1.545,1.536l1.871,1.22l1.982,1.058l1.999,1.085l2,1.186c1.337,0.808 2.638,1.674 4,2.44l4,2.17l5,2.81l4,2.322l5,2.973l5,2.848l4,2.375c0.994,0.593 1.98,1.21 3,1.757l2,1.015l1,0.392l2,0.43l1,0c1.422,-0.098 2.743,-0.675 4,-1.302c1.374,-0.685 2.681,-1.509 4,-2.292l4,-2.375l5.841,-3.286l0.488,-0.28l1.671,-0.858l0,-87c-1.914,0.022 -3.863,-0.067 -5.719,0.495c-1.211,0.367 -2.315,1.006 -3.451,1.549l-0.919,0.403l-1.926,0.579l-1.986,0.162l-0.999,-0.097l-0.999,-0.217l-1.982,-0.827c-1.67,-0.947 -3.102,-2.357 -3.991,-4.066l-0.706,-1.982l-0.158,-0.999l-0.061,-0.999l0.025,-0.997l0.105,-0.989l0.201,-0.976l0.745,-1.865l1.255,-1.691l0.794,-0.759l0.881,-0.692l0.935,-0.598l0.971,-0.492l1.986,-0.595l1.999,-0.062l1,0.163l1,0.28l1,0.393l1,0.473c0.991,0.502 1.96,1.077 2.995,1.487l0.98,0.36l1.865,0.415l1.001,0.086l2.159,0.058l0,-95l-1.671,-0.858l-0.487,-0.2801l-3.757,-2.1342l-3.509,-2.1374l-3.615,-2.0641c-0.982,-0.5475 -1.953,-1.1245 -2.962,-1.6211c-1.261,-0.6207 -2.576,-1.2005 -3.999,-1.2979l-2,0.1466l-1,0.2832l-1,0.392l-1,0.4799l-1,0.5348l-2,1.1605l-5,2.9714l-4,2.2739l-3,1.7292l-4,2.2469l-4,2.2353l-5,2.9476l-3.996,2.1466l-4.719,2.8063l-1.709,1.0139l-1.741,0.9845l-1.816,1.0896l-0.886,0.6388l-0.819,0.7269l-1.286,1.6929c-0.669,1.2001 -0.87,2.5446 -0.969,3.893l-0.054,1.999l-0.005,2l0,9l0.005,2.999l0.054,1.986l0.259,1.911l0.285,0.894l1,1.597l1.545,1.326l1.871,1.059l1.982,0.729l1.999,0.37l2.999,0.233l0.997,0.124l0.989,0.206l1.921,0.745l1.75,1.255l0.771,0.794l0.679,0.881l1.035,1.906l0.561,1.986l0.106,0.999l-0.144,1.999l-0.272,0.997l-0.995,1.96l-1.545,1.816l-0.911,0.794l-0.96,0.692l-1.982,0.995l-0.999,0.294l-2,0.2l-0.999,-0.094l-1.986,-0.595l-0.971,-0.492l-0.936,-0.598l-1.694,-1.447c-0.762,-0.761 -1.361,-1.64 -1.99,-2.506l-1.223,-1.639l-0.696,-0.742l-0.779,-0.665l-0.859,-0.601c-0.919,-0.528 -1.846,-1.043 -2.872,-1.343l-1.995,-0.36l-1,0.047l-2,0.556l-2,0.979l-2,1.143l-2,1.136l-4,2.148l-3,1.709l-3.996,2.324l-2.895,1.771l-0.881,0.616l-1.486,1.376l-1,1.66c-0.392,0.906 -0.534,1.902 -0.633,2.875c-0.135,1.323 -0.101,2.667 -0.108,3.995l-0.001,7l0.005,2.999l0.014,0.996l0.129,1.946l0.17,0.911l0.285,0.829l1,1.272l0.715,0.386l1.741,0.21l0.96,-0.167l0.986,-0.32c2.019,-0.83 3.839,-2.134 5.995,-2.618c1.627,-0.364 3.333,-0.29 4.91,0.263l1.785,0.866l0.823,0.575l0.762,0.656l0.702,0.729l1.165,1.652l0.444,0.908l0.595,1.922l0.143,0.989l-0.076,1.996l-0.61,1.995l-0.516,0.987l-0.645,0.963l-1.615,1.776l-1.886,1.406l-0.986,0.515l-0.996,0.37l-1.999,0.3l-2,-0.28l-1,-0.331l-1,-0.426c-1.009,-0.438 -1.965,-0.999 -2.998,-1.381l-1.977,-0.595l-1.865,-0.241c-1.058,-0.056 -2.098,-0.046 -3.16,-0.058m117,-107l0,95l2.159,-0.058l1.001,-0.086l1.865,-0.415l0.98,-0.36c1.035,-0.41 2.004,-0.985 2.995,-1.487l1,-0.473l1,-0.393l1,-0.28l1,-0.163l1.999,0.062l1.986,0.595l0.971,0.492l0.935,0.598l0.881,0.692l0.794,0.759l1.255,1.691l0.745,1.865l0.201,0.976l0.105,0.989l0.025,0.997l-0.061,0.999l-0.158,0.999l-0.706,1.982c-0.889,1.709 -2.321,3.119 -3.991,4.066l-1.982,0.827l-0.999,0.217l-0.999,0.097l-1.986,-0.162l-1.926,-0.579l-0.919,-0.403c-1.136,-0.543 -2.24,-1.182 -3.451,-1.549c-1.856,-0.562 -3.805,-0.473 -5.719,-0.495l0,87l1.671,0.858l0.488,0.28l5.841,3.286l4,2.375c1.319,0.783 2.626,1.607 4,2.292c1.257,0.627 2.578,1.204 4,1.302l1,0l2,-0.43l1,-0.392l2,-1.015c1.02,-0.547 2.006,-1.164 3,-1.757l4,-2.375l5,-2.848l8,-4.726l5.961,-3.375l2.753,-1.555l4.375,-2.648l3.912,-2.192l1.994,-1.095l1.946,-1.17l0.911,-0.654l1.545,-1.501l0.575,-0.848c0.675,-1.171 0.871,-2.491 0.969,-3.816c0.074,-0.995 0.051,-1.999 0.058,-2.996l0.001,-5l-0.005,-3l-0.014,-0.999l-0.129,-1.986l-0.17,-0.971l-0.285,-0.935l-1,-1.675l-0.715,-0.692l-0.83,-0.563l-1.871,-0.745l-0.986,-0.206l-1.995,-0.185l-3,-0.101l-0.999,-0.09l-1.986,-0.455l-0.975,-0.425l-1.851,-1.29l-0.845,-0.83l-0.771,-0.911l-1.251,-1.946l-0.764,-1.995l-0.196,-2l0.126,-0.999l0.273,-0.997l0.982,-1.96l1.485,-1.816l0.881,-0.794l0.935,-0.692l0.971,-0.562l1.986,-0.731l1.999,-0.231l1.999,0.231l0.996,0.297l0.987,0.434l1.889,1.249c0.912,0.728 1.651,1.616 2.419,2.485l1.42,1.619l1.549,1.357l0.87,0.587l1.889,0.985l1.983,0.575l1.999,-0.076l1,-0.283l2,-0.887l2,-1.077l4,-2.293l5,-2.845c1.676,-0.973 3.346,-1.96 4.995,-2.976c0.962,-0.593 1.954,-1.161 2.857,-1.843c0.808,-0.611 1.577,-1.267 2.12,-2.136c0.69,-1.104 0.873,-2.365 0.969,-3.636l0.054,-1.986l0.005,-1.999l0,-14c-1.051,0.033 -2.115,-0.01 -3.16,0.143l-1.865,0.406l-0.98,0.345c-1.37,0.513 -2.621,1.303 -3.995,1.807l-2,0.542l-2,-0.005l-1.995,-0.596l-0.987,-0.515l-0.963,-0.645l-1.776,-1.615l-1.417,-1.885l-0.529,-0.987l-0.399,-0.996l-0.267,-0.999l-0.135,-1.996l0.387,-1.964l0.374,-0.947l0.479,-0.908l0.573,-0.856l1.364,-1.525l0.77,-0.656l1.695,-1.058l1.865,-0.656l0.976,-0.166l1.986,0.004l1.999,0.455l1,0.394l1,0.473l1.995,1.031l0.98,0.456l1.865,0.617l1.001,0.159l0.488,0.082l1.671,0.061l0,-17c-0.001,-1.659 0.035,-3.324 -0.059,-4.982c-0.07,-1.234 -0.276,-2.495 -0.969,-3.548c-0.544,-0.828 -1.325,-1.426 -2.12,-1.992l-0.911,-0.594l-1.946,-1.174c-2.953,-1.744 -6.006,-3.312 -8.995,-4.994l-4,-2.316l-2,-1.152l-2,-0.98l-1,-0.345l-1,-0.211l-1,-0.047l-1.995,0.36l-0.987,0.361l-1.885,0.982l-0.859,0.601l-1.475,1.407l-1.223,1.639c-0.629,0.867 -1.228,1.745 -1.99,2.506l-1.694,1.447l-0.936,0.598l-0.971,0.492l-0.989,0.363l-1.996,0.326l-2,-0.2l-0.999,-0.294l-1.982,-0.995l-0.96,-0.692l-0.911,-0.794l-1.545,-1.816l-0.995,-1.96l-0.272,-0.997l-0.144,-1.999l0.106,-0.999l0.561,-1.986l1.034,-1.906l0.68,-0.881l0.771,-0.794l1.75,-1.255l1.921,-0.745l0.989,-0.206l0.997,-0.124l2.999,-0.233l1.999,-0.37l1.982,-0.729l1.871,-1.059l1.545,-1.326l1,-1.597l0.285,-0.894l0.259,-1.911l0.054,-1.986l0.005,-2.999l0,-9l-0.005,-2l-0.054,-1.999c-0.099,-1.3487 -0.3,-2.6927 -0.969,-3.893l-0.575,-0.8842l-1.53,-1.5356l-0.886,-0.6388l-0.911,-0.5703l-1.785,-1.0046l-2.571,-1.4328l-2.753,-1.5972l-2.962,-1.7524l-3.999,-2.2469l-3,-1.8002l-2,-1.1573l-5,-2.7716l-5,-2.8666l-4,-2.2739l-4,-2.375c-0.994,-0.5923 -1.981,-1.209 -3,-1.7569l-2,-1.0155l-1,-0.3943l-1,-0.2909l-2,-0.1859l-2,0.3642l-1,0.3681l-0.999,0.4644l-0.997,0.5371l-0.989,0.5725l-1.926,1.1451l-2.665,1.5787l-3.509,2.1405l-3.757,2.1342l-0.487,0.2801l-1.671,0.858z"/>
  <path id="svg_4" fill="#F76E42" d="m535,249l1.667,-0.654l1.435,-0.956l1.605,-1.539l0.694,-0.91l0.996,-1.946c0.592,-1.588 0.567,-3.327 0.598,-4.995l0.005,-3l0,-4l0,-16l-0.001,-5l-0.018,-1.996l-0.129,-1.96l-0.455,-1.82l-0.425,-0.809l-0.575,-0.727l-1.545,-1.209l-0.911,-0.516c-1.295,-0.666 -2.618,-1.272 -3.941,-1.883l-3,-1.375l-3,-1.4l-1.999,-0.896c-0.995,-0.466 -2.012,-0.89 -2.942,-1.483l-0.911,-0.625l-0.83,-0.719l-1.29,-1.69c-1.005,-1.795 -0.986,-3.899 -1.023,-5.892l-0.005,-4l0.001,-6c0.007,-0.998 -0.016,-2.003 0.058,-2.999c0.1,-1.352 0.304,-2.691 0.969,-3.897l1.29,-1.728l0.83,-0.778l0.911,-0.721c0.944,-0.728 1.956,-1.375 2.942,-2.043l8.998,-6.001c0.988,-0.668 1.995,-1.313 2.942,-2.039c0.879,-0.673 1.771,-1.38 2.456,-2.262l1,-1.706l0.455,-1.865l0.089,-0.976l0.054,-1.986l0.005,-2.999l0,-6l0,-16c-0.001,-1.331 0.026,-2.666 -0.019,-3.996c-0.044,-1.288 -0.093,-2.622 -0.584,-3.834l-0.996,-1.746l-1.491,-1.71l-0.825,-0.884l-1.545,-1.869c-0.685,-0.935 -1.234,-1.949 -1.826,-2.943l-1.259,-1.874l-0.754,-0.841l-0.844,-0.738l-0.915,-0.6229l-1.947,-0.8703l-1.995,-0.4152l-0.999,-0.0509l-0.997,0.0371l-1.965,0.3394l-1.865,0.6744l-0.869,0.4834l-0.822,0.588l-0.759,0.702l-1.29,1.679l-0.869,1.906l-0.257,0.989l-0.195,1.996l0.04,0.999l0.362,1.986l0.803,1.921l0.575,0.905l0.68,0.845l0.771,0.771l1.75,1.256l1.92,0.822l0.985,0.275l1.942,0.483l0.911,0.322l1.545,1.018l1,1.545l0.285,0.911l0.17,0.96l0.129,1.982l0.014,0.999l0.005,4l0,6c-0.003,1.333 0.003,2.664 -0.059,3.996l-0.259,1.965l-0.71,1.865l-1.29,1.706l-1.741,1.544l-1.946,1.416l-0.996,0.672l-1.999,1.341l-4,2.753l-2,1.318l-2.995,1.943l-1.946,1.405l-1.741,1.544l-1.29,1.706l-0.425,0.916l-0.285,0.949l-0.259,1.965l-0.04,0.997l-0.018,1.999l-0.001,6l0,16l0.004,3l0.04,1.996l0.184,1.961l0.206,0.938l0.308,0.892l1,1.575c0.658,0.759 1.511,1.313 2.367,1.817c0.93,0.548 1.92,0.986 2.895,1.446c1.651,0.778 3.322,1.518 4.996,2.245l3,1.286c1.01,0.454 2.01,0.932 2.995,1.438l1.946,1.036l0.911,0.558l0.83,0.616l1.29,1.47l0.425,0.859l0.455,1.885l0.129,1.983l0.019,3.999l-0.001,9l-0.058,3l-0.259,1.995l-0.71,1.946l-0.575,0.911c-0.877,1.175 -2.069,2.042 -3.416,2.602l-1.978,0.701l-0.988,0.35l-1.906,0.924l-1.679,1.295l-0.702,0.759l-0.588,0.822l-0.861,1.785l-0.504,1.925l-0.169,1.986l0.051,0.999l0.157,0.999l0.634,1.982l1.117,1.872l0.738,0.833l1.755,1.322l1.947,0.804l0.996,0.235l0.999,0.145l1.996,0.05l1.964,-0.271l1.855,-0.599l0.856,-0.426l0.796,-0.505l1.385,-1.244l1.059,-1.525l0.67,-1.741l0.311,-1.785l0.092,-1.475l0.016,-1.671m62,-47l0,30l0.001,5l0.058,3l0.259,1.999l0.708,1.982l0.573,0.96l0.694,0.91l1.605,1.539l1.435,0.956l1.667,0.654l0.016,1.671l0.092,1.475l0.311,1.785l0.67,1.741l1.059,1.525l1.385,1.244l0.796,0.505l0.856,0.426l1.855,0.599l1.964,0.271l1.996,-0.05l0.999,-0.145l0.996,-0.235l1.947,-0.804l1.755,-1.322l0.738,-0.833l1.117,-1.872l0.634,-1.982l0.157,-0.999l0,-2l-0.415,-1.999l-0.87,-1.982l-0.623,-0.96l-0.738,-0.911l-0.841,-0.831l-1.875,-1.309c-0.933,-0.528 -1.975,-0.817 -2.976,-1.178l-0.986,-0.375l-0.96,-0.463l-0.911,-0.591l-1.545,-1.549l-0.575,-0.911l-0.71,-1.946l-0.259,-1.995l-0.058,-3l-0.001,-9l0.019,-3.999l0.129,-1.983l0.455,-1.885l0.425,-0.859l1.29,-1.47l0.83,-0.616l0.911,-0.558l1.946,-1.036c0.984,-0.506 1.985,-0.984 2.995,-1.438l3,-1.286c1.674,-0.727 3.346,-1.467 4.996,-2.245c0.975,-0.46 1.966,-0.898 2.895,-1.446c0.856,-0.504 1.709,-1.058 2.367,-1.817l1,-1.575l0.308,-0.892l0.206,-0.938l0.184,-1.961l0.04,-1.996l0.004,-3l0,-16l-0.001,-6l-0.018,-1.999l-0.04,-0.997l-0.259,-1.965l-0.285,-0.949l-0.425,-0.916l-1.29,-1.706l-1.741,-1.544l-1.946,-1.405l-1.995,-1.301l-3,-1.909l-4,-2.653l-2.995,-2.084l-1.946,-1.471l-0.911,-0.77l-0.83,-0.796l-1.29,-1.709l-0.71,-1.865l-0.259,-1.965c-0.062,-1.332 -0.056,-2.663 -0.059,-3.996l0,-6l0.005,-4l0.014,-0.999l0.129,-1.982l0.17,-0.96l0.285,-0.911l1,-1.545l1.545,-1.018l0.911,-0.322l1.942,-0.483l0.985,-0.275l1.92,-0.822l0.905,-0.576l1.616,-1.451l0.68,-0.845l0.575,-0.905l0.459,-0.946l0.565,-1.964l0.131,-1.996l-0.08,-0.999l-0.181,-0.997l-0.28,-0.989l-0.869,-1.906l-0.575,-0.881l-1.385,-1.5l-1.652,-1.0714l-0.908,-0.378l-0.947,-0.2964l-1.964,-0.3394l-1.996,0.0138l-0.999,0.1575l-0.996,0.2577l-1.95,0.8703l-1.781,1.3609l-1.475,1.755l-1.223,1.943l-1.255,1.96l-1.486,1.869l-0.795,0.884l-1.452,1.71l-0.985,1.746c-0.488,1.214 -0.54,2.545 -0.584,3.834c-0.045,1.33 -0.018,2.665 -0.019,3.996l0,16l0,6l0.005,2.999c0.036,1.94 0.008,3.969 1.023,5.7c0.544,0.929 1.31,1.681 2.12,2.377l0.911,0.718l0.96,0.698l1.982,1.341l8.998,6.001c0.986,0.668 1.998,1.315 2.942,2.043c0.896,0.69 1.78,1.413 2.456,2.332l1,1.834l0.455,1.961l0.089,0.997l0.054,1.999l0.004,1l0.001,3l0,4l-0.005,3c-0.037,1.993 -0.018,4.097 -1.023,5.892l-0.575,0.883l-1.545,1.526l-1.871,1.17l-2.981,1.386l-7,3.222c-1.6,0.728 -3.194,1.458 -4.84,2.077l-1.489,0.475l-1.671,0.369m175,399l0,-18l-0.003,-5.998c-0.015,-1.282 -0.024,-2.565 -0.157,-3.841l-0.198,-1.002l-0.057,-0.488l-0.585,-1.671l-1.671,0.858l-0.488,0.279l-3.846,2.085c-1.982,1.04 -3.992,2.026 -5.995,3.025c-1.978,0.986 -3.943,2.012 -6,2.827c-1.633,0.647 -3.317,1.134 -5,1.632c-2.315,0.685 -4.633,1.36 -7,1.844l-3,0.529c-1.664,0.277 -3.325,0.557 -5,0.755l-3,0.241l-1,0.091l-2,0.258c-1.332,0.182 -2.651,0.397 -4,0.397c-1.348,0 -2.669,-0.209 -4,-0.398l-2,-0.268l-3,-0.31c-1.674,-0.213 -3.337,-0.485 -5,-0.766c-1.677,-0.282 -3.346,-0.573 -5,-0.977c-3.767,-0.92 -7.411,-2.252 -11,-3.706c-1.344,-0.544 -2.682,-1.101 -4,-1.705l-3,-1.447c-2.027,-1 -4.066,-1.997 -6,-3.171c-1.735,-1.053 -3.367,-2.249 -5,-3.451c-1.354,-0.997 -2.701,-2.017 -4,-3.086c-1.742,-1.434 -3.39,-2.966 -4.996,-4.551c-1.629,-1.607 -3.212,-3.259 -4.715,-4.985c-1.411,-1.622 -2.749,-3.311 -4.078,-5c-2.775,-3.523 -5.459,-7.144 -7.758,-11c-0.971,-1.628 -1.838,-3.309 -2.694,-5l-1.45,-3c-0.758,-1.65 -1.444,-3.332 -2.159,-5c-0.569,-1.331 -1.176,-2.65 -1.7,-4c-0.768,-1.979 -1.446,-3.987 -2.117,-6c-0.661,-1.986 -1.335,-3.971 -1.855,-6c-0.505,-1.975 -0.892,-3.986 -1.203,-6l-0.405,-3l-0.294,-2l-0.822,-5c-0.269,-1.663 -0.549,-3.317 -0.665,-5c-0.068,-0.998 -0.076,-2 -0.085,-3l-0.004,-4l0.004,-4c0.012,-1.336 0.037,-2.669 0.166,-4c0.13,-1.342 0.366,-2.671 0.584,-4l0.999,-6l0.834,-5c0.228,-1.336 0.439,-2.68 0.749,-4c0.319,-1.355 0.746,-2.673 1.163,-4l0.618,-2l0.908,-3l1.32,-4c0.345,-1.008 0.708,-2.012 1.108,-3c0.828,-2.044 1.821,-4.011 2.77,-6l1.886,-4c0.661,-1.358 1.366,-2.693 2.123,-4c0.79,-1.363 1.629,-2.697 2.514,-4c0.924,-1.36 1.903,-2.68 2.884,-4c1.51,-2.033 3.021,-4.076 4.67,-6c1.795,-2.095 3.744,-4.054 5.701,-5.996c1.62,-1.608 3.247,-3.213 4.999,-4.679c1.284,-1.074 2.642,-2.05 4,-3.027l2,-1.413c3.517,-2.441 7.169,-4.699 11,-6.615c1.959,-0.98 3.969,-1.846 6,-2.666c1.648,-0.666 3.306,-1.314 5,-1.858c1.646,-0.528 3.324,-0.954 5,-1.371c1.653,-0.411 3.312,-0.831 5,-1.075c1.991,-0.287 4.002,-0.269 6,-0.469l3,-0.406l2,-0.241l2,-0.055c1.347,0.033 2.669,0.262 4,0.447c1,0.138 1.993,0.261 3,0.335l3,0.124c1.006,0.051 2.003,0.123 3,0.265c2.025,0.29 4.005,0.836 6,1.276c2.001,0.441 4.022,0.803 6,1.345c1.698,0.464 3.35,1.058 5,1.669c1.342,0.497 2.675,1.012 4,1.552l2,0.87c1.683,0.747 3.357,1.52 5,2.351c1.378,0.696 2.702,1.502 4,2.337c2.074,1.333 4.061,2.792 5.999,4.315c1.968,1.546 3.902,3.138 5.676,4.905c1.351,1.345 2.584,2.803 3.824,4.25l2.41,2.845l1.588,1.986l1.464,1.999l1.368,2c1.089,1.64 2.166,3.284 3.207,4.955l1.142,1.886l0.281,0.488l1.041,1.671l1.671,-0.468l1.489,-0.677l1.865,-1.105l1.977,-1.341l2.998,-2.065l6,-4.014l2.999,-2.051l1.981,-1.435l1.856,-1.513l1.453,-1.631l0.459,-0.874l0.23,-0.916l-0.212,-1.925l-0.382,-0.989l-1.088,-1.996l-1.25,-2c-0.858,-1.343 -1.7,-2.695 -2.615,-4c-0.717,-1.022 -1.478,-2.008 -2.235,-3l-2.316,-3l-2.344,-3l-1.71,-2c-1.229,-1.377 -2.525,-2.695 -3.83,-3.999c-1.638,-1.638 -3.274,-3.28 -4.996,-4.83c-1.294,-1.165 -2.635,-2.282 -4,-3.363l-3,-2.33c-1.307,-0.973 -2.649,-1.896 -4,-2.807c-1.644,-1.107 -3.306,-2.189 -5,-3.218c-1.299,-0.789 -2.648,-1.499 -4,-2.194c-1.963,-1.008 -3.954,-1.977 -6,-2.806c-2.291,-0.928 -4.656,-1.671 -7,-2.453l-4,-1.329c-1.322,-0.429 -2.646,-0.848 -4,-1.168c-1.65,-0.39 -3.333,-0.624 -5,-0.927c-2.002,-0.365 -3.991,-0.815 -6,-1.138l-2,-0.282l-3,-0.311c-2.003,-0.24 -3.985,-0.618 -6,-0.755c-1.663,-0.114 -3.334,-0.087 -5,-0.09l-8,0l-6,0.001c-1.669,0.008 -3.337,0.008 -5,0.169c-1.342,0.13 -2.671,0.365 -4,0.584c-2.004,0.329 -4.005,0.664 -6,1.049l-3,0.597c-1.338,0.272 -2.678,0.541 -4,0.886c-1.686,0.441 -3.337,1.004 -5,1.524l-3,0.932c-1.011,0.333 -2.009,0.694 -3,1.083c-1.693,0.665 -3.347,1.42 -5,2.179c-1.346,0.618 -2.685,1.258 -4,1.94l-5,2.751l-4,2.177l-1,0.58l-4,2.501c-1.68,1.064 -3.374,2.11 -5,3.256c-2.437,1.717 -4.715,3.634 -7,5.545c-1.344,1.124 -2.71,2.229 -4,3.416c-1.691,1.555 -3.34,3.152 -4.911,4.831c-1.804,1.929 -3.477,3.972 -5.169,5.999c-1.919,2.299 -3.852,4.591 -5.634,7c-1.207,1.632 -2.329,3.324 -3.473,5c-0.901,1.32 -1.81,2.634 -2.643,4c-0.599,0.982 -1.152,1.992 -1.706,3l-1.628,3c-1.061,1.983 -2.08,3.986 -3.08,6c-0.656,1.322 -1.297,2.65 -1.894,4c-1.448,3.275 -2.681,6.638 -3.909,10c-0.486,1.33 -1,2.653 -1.438,4l-1.221,4c-0.486,1.661 -0.979,3.32 -1.399,5c-0.496,1.986 -0.891,3.994 -1.295,6l-0.796,4c-0.19,0.996 -0.384,1.994 -0.515,3c-0.129,0.998 -0.207,1.995 -0.25,3l-0.128,4l-0.197,2l-0.428,3c-0.13,0.998 -0.203,1.995 -0.247,3l-0.038,3l-0.001,3c0.001,1.997 -0.047,4.006 0.089,6c0.069,1.007 0.196,2.001 0.335,3l0.406,3c0.223,2.328 0.094,4.674 0.344,7c0.255,2.372 0.889,4.676 1.402,7l0.849,4l0.729,3l1.14,4c0.393,1.337 0.781,2.677 1.221,4c0.56,1.681 1.195,3.337 1.804,5l1.105,3c0.645,1.676 1.311,3.342 2,5l1.307,3l1.378,3c0.981,2.03 2.061,4.013 3.125,6c0.718,1.341 1.435,2.681 2.193,4l1.777,3c0.608,1.01 1.227,2.015 1.875,3c1.124,1.71 2.334,3.355 3.551,5l3.021,4l3.154,4c0.815,1.01 1.632,2.02 2.484,3c1.505,1.73 3.1,3.373 4.715,4.999c1.632,1.644 3.277,3.278 4.996,4.831c1.301,1.175 2.651,2.296 4,3.415c1.643,1.364 3.279,2.733 5,3.999c1.949,1.433 3.985,2.752 6,4.089c1.651,1.095 3.298,2.199 5,3.214c1.636,0.976 3.329,1.845 5,2.758c1.991,1.087 3.944,2.242 6,3.206c1.308,0.613 2.652,1.159 4,1.677c2.638,1.015 5.306,1.934 8,2.787l3,0.884l2,0.562c1.66,0.465 3.311,0.944 5,1.293l3,0.531c1.329,0.222 2.659,0.45 4,0.586l5,0.338l5,0.661c1.323,0.145 2.671,0.169 4,0.127c1.004,-0.032 2.004,-0.113 3,-0.243l3,-0.428l2,-0.197c1.997,-0.137 4.003,-0.04 6,-0.178c1.345,-0.094 2.67,-0.289 4,-0.501l3,-0.494l2,-0.365l2,-0.438l3,-0.743c3.729,-0.954 7.435,-2.055 11,-3.515c1.35,-0.553 2.675,-1.167 4,-1.776c1.673,-0.767 3.342,-1.533 4.975,-2.383l2.866,-1.559l0.488,-0.279l1.671,-0.858m-687,-247l0,259l34,0l0,-259l-34,0m70,0l0,29l2.159,0.522l1.001,0.189l1.865,0.199l1.977,0.075l3.998,0.015l9,0l33,0l105,0l38,0l6,0l2.999,-0.005l0.996,-0.014l1.946,-0.129l0.911,-0.17l1.545,-0.71l0.575,-0.575l0.425,-0.715l0.455,-1.741c0.19,-1.638 0.145,-3.295 0.148,-4.941l0,-21l-212,0m197,258l1.671,0.585l0.488,0.057l1.001,0.197l1.865,0.127c1.991,0.041 3.983,0.034 5.975,0.034l13,0l3,-0.001c0.995,-0.004 1.991,-0.001 2.985,-0.058c1.237,-0.07 2.541,-0.268 3.596,-0.969l0.717,-0.575l1.145,-1.545l0.452,-0.911l0.782,-1.946l1.134,-2.995l2.389,-6l2.376,-6l1.474,-4l1.153,-3l2.397,-6l3.6,-9l1.989,-5l2.235,-6l1.526,-4l1.474,-4l1.18,-3c0.95,-2.351 1.983,-4.665 2.972,-7c0.56,-1.324 1.092,-2.66 1.613,-4l1.861,-5l1.526,-4l1.848,-5c1.531,-4.023 3.21,-7.987 4.765,-12l2.26,-6l1.701,-4c0.701,-1.658 1.387,-3.322 2.039,-5l2.235,-6l3.152,-8l1.873,-5l1.701,-4c0.701,-1.658 1.387,-3.322 2.039,-5l2.235,-6l3.152,-8l1.474,-4l1.154,-3l1.22,-3l1.267,-3l0.78,-2l1.44,-4l1.665,-4l1.22,-3l1.154,-3l1.474,-4l3.152,-8l1.474,-4l1.154,-3l1.22,-3l1.665,-4l1.822,-5l2.025,-5c0.748,-1.979 1.39,-3.996 2.067,-6c0.453,-1.341 0.926,-2.674 1.421,-4l1.152,-3l1.848,-5l1.523,-4l1.386,-4c0.652,-1.94 1.299,-3.883 1.902,-5.84l0.267,-1.001l0.144,-0.488l0.354,-1.671l-19,0c-1.66,0.001 -3.326,-0.035 -4.985,0.059c-1.239,0.07 -2.539,0.269 -3.597,0.969c-1.115,0.737 -1.778,1.87 -2.374,3.031l-0.45,0.96l-0.874,1.982c-1.161,2.641 -2.259,5.306 -3.296,7.999l-1.485,4c-0.913,2.36 -1.963,4.661 -2.928,7l-2.435,6l-2.565,6l-2.435,6l-2.152,5c-0.694,1.655 -1.361,3.323 -2,5l-1.873,5l-1.701,4l-3.274,8l-2.152,5l-2.848,7l-2.127,5l-1.499,4c-0.632,1.676 -1.279,3.344 -1.961,5l-2.565,6l-2.848,7l-2.565,6l-2.435,6l-2.565,6c-0.681,1.656 -1.329,3.325 -1.961,5l-1.499,4l-2.127,5l-2.848,7l-2.565,6l-2.011,5l-3.6,9l-2.411,6l-2.565,6l-2.435,6l-2.565,6l-2.435,6l-2.54,6l-1.873,5c-0.639,1.677 -1.306,3.345 -2,5l-2.152,5l-2.848,7l-2.565,6l-2.411,6l-4,10l-1.994,4.955l-0.766,1.886l-0.209,0.488l-0.631,1.671m525,-258l0,56l0,15c0.001,1.659 -0.036,3.324 0.059,4.981l0.259,1.871l0.285,0.83l0.425,0.715l1.29,1l1.741,0.455l0.96,0.089l1.982,0.054l0.999,0.004l4,0.001l7,0l5,0l2.999,-0.005l1.982,-0.054l0.96,-0.089l0.911,-0.17l0.83,-0.285l1.29,-1l0.425,-0.715l0.455,-1.741l0.089,-0.96l0.058,-2.981l0.001,-9l0,-34l100,0l27,0l4,-0.001l2,-0.018c1.54,-0.068 3.24,-0.094 4.57,-1.009l0.69,-0.575l1,-1.545l0.51,-1.871l0.19,-1.982l0.02,-0.999l0.02,-1l0,-3l0,-6l-0.01,-4.998l-0.08,-1.977l-0.09,-0.98l-0.3,-1.886l-0.09,-0.488l-0.43,-1.671l-173,0m-377,36l-0.942,1.671l-0.208,0.488l-0.48,1.001c-0.678,1.602 -1.321,3.217 -1.946,4.84l-1.474,4l-1.526,4l-1.848,5l-0.779,2l-1.569,4c-0.608,1.655 -1.181,3.321 -1.718,5c-0.317,0.992 -0.669,1.982 -0.897,3c-0.223,0.993 -0.353,1.98 -0.324,3c0.048,1.715 0.552,3.379 1.07,5c0.649,2.033 1.447,4.022 2.245,6l1.676,4l1.271,3l1.873,5l1.576,4l1.576,4c0.878,2.333 1.709,4.682 2.628,7l1.646,4l1.701,4l2.26,6l3.986,10l3.407,9c0.796,2.009 1.643,3.994 2.506,5.975l1.269,2.866l0.208,0.488l0.813,1.671l-1.671,0.12l-0.488,-0.003l-1.001,0.013l-4.84,-0.119l-7,-0.011l-30,0l-7,0l-4,0.015l-1,0.025l-1.996,0.149l-0.989,0.155l-0.972,0.229l-0.938,0.321l-1.711,0.964c-1.082,0.831 -1.892,1.975 -2.478,3.197l-0.448,0.964c-0.546,1.313 -1.018,2.65 -1.518,3.981c-1.383,3.679 -2.931,7.294 -4.254,10.995l-0.93,2.844l-0.412,1.49l-0.354,1.671c1.668,0.31 3.334,0.663 5.025,0.831c1.321,0.131 2.648,0.153 3.975,0.165l4,0.004l11,0l35,0l9,0l5.996,-0.011l1.965,-0.035l0.949,-0.015l1.789,0.07l0.833,0.158l1.529,0.745l1.329,1.356l1.092,1.78l0.899,1.956l0.807,1.996l1.493,4c0.62,1.675 1.254,3.344 1.923,5l3.792,9l2.745,7l2.124,5l1.156,3l1.59,4l2.565,6c0.694,1.655 1.361,3.323 2,5l1.848,5c0.896,2.354 1.833,4.7 2.861,6.999c0.441,0.988 0.871,1.996 1.399,2.942l0.53,0.911l0.601,0.83l1.46,1.29c0.837,0.519 1.782,0.74 2.743,0.88l1.983,0.129l1.999,0.018l4,0.001l9,0l7,-0.001l2.975,-0.033l1.865,-0.127l1.001,-0.197l0.488,-0.057l1.671,-0.585l-0.631,-1.671l-0.209,-0.488l-2.36,-5.841c-1.069,-2.668 -2.112,-5.349 -3.224,-8l-2.152,-5l-2.848,-7l-2.972,-7l-1.554,-4l-1.499,-4l-2.54,-6l-2.435,-6l-2.565,-6l-2.435,-6l-2.565,-6c-0.681,-1.656 -1.329,-3.325 -1.961,-5l-1.499,-4l-2.54,-6l-2.435,-6l-2.565,-6l-2.435,-6l-2.152,-5c-0.694,-1.655 -1.361,-3.323 -2,-5l-1.873,-5l-2.54,-6l-2.435,-6l-2.565,-6l-2.435,-6l-2.565,-6c-0.681,-1.656 -1.329,-3.324 -1.961,-5l-1.499,-4l-2.127,-5l-2.848,-7l-2.152,-5l-2.848,-7l-2.152,-5c-0.694,-1.655 -1.361,-3.323 -2,-5l-1.873,-5l-2.127,-5l-3.274,-8l-1.728,-3.995c-0.537,-1.237 -1.047,-2.487 -1.672,-3.684l-0.52,-0.804l-0.232,-0.431l-0.998,-1.086m-255,26l0,197l33,0l0,-135l0,-41l0,-11c0,-1.992 0.007,-3.984 -0.034,-5.975l-0.126,-1.865l-0.198,-1.001l-0.057,-0.488l-0.585,-1.671l-1.671,0.432l-0.488,0.09l-1.886,0.3l-1.96,0.138l-2.995,0.039l-5,0.001l-18,0m632,51l0,58l0,16c0.001,1.659 -0.036,3.324 0.059,4.981l0.259,1.871l0.285,0.83l0.425,0.715l1.29,1l1.741,0.455l0.96,0.089l2.981,0.058l4,0.001l7,0l5,0l2.999,-0.005l1.982,-0.054l0.96,-0.089l0.911,-0.17l0.83,-0.285l1.29,-1l0.425,-0.715l0.455,-1.741l0.089,-0.96l0.058,-2.981l0.001,-10l0,-38l88,0l22,0l3,-0.001c0.99,-0.004 1.99,-0.001 2.98,-0.058l1.87,-0.259l1.55,-0.71l0.57,-0.575l0.43,-0.715l0.45,-1.741c0.19,-1.638 0.15,-3.295 0.15,-4.941l0,-19l-155,0m-133,16l0,26l55,0l0,46l0,28l0,20c0.001,1.659 -0.036,3.324 0.059,4.981l0.259,1.871l0.71,1.545l0.575,0.575l1.545,0.71l1.871,0.259l0.986,0.04l0.996,0.014l2.999,0.005l6,0l4,0l2.995,-0.019l1.946,-0.129l0.911,-0.17l0.83,-0.285l1.29,-1l0.425,-0.715l0.285,-0.83l0.17,-0.911l0.129,-1.946l0.019,-4.995l0,-19l0,-69l0,-21c-0.001,-1.659 0.036,-3.324 -0.059,-4.981l-0.259,-1.871l-0.71,-1.545l-0.575,-0.575l-1.545,-0.71l-1.871,-0.259l-0.986,-0.04l-0.996,-0.014l-1.999,-0.005l-3,0l-10,0l-62,0m134.603,101.028l-0.575,0.575l-0.425,0.715l-0.455,1.741l-0.129,1.946l-0.018,1.995l-0.001,10l0.001,4l0.018,1.995l0.129,1.946l0.17,0.911l0.285,0.83l1,1.29l1.545,0.71l1.871,0.259l2.981,0.058l8,0.001l28,0l89,0l31,0l4,0l3,-0.019l1.94,-0.129l0.91,-0.17l1.55,-0.71l0.57,-0.575l0.43,-0.715l0.45,-1.741l0.13,-1.946l0.02,-1.995l0,-10l0,-4l-0.02,-1.995l-0.13,-1.946l-0.17,-0.911l-0.28,-0.83l-1,-1.29l-1.55,-0.71l-1.87,-0.259l-2.98,-0.058l-8,-0.001l-28,0l-89,0l-31,0l-4,0l-2.995,0.019l-1.946,0.129l-0.911,0.17l-1.545,0.71m-646.603,66.972l-0.448,1.671l-1.202,5.331l-1.139,4.998l-1.422,7l-1.365,6l-0.824,4l-0.8,4l-0.596,3c-0.186,0.999 -0.363,1.992 -0.495,2.999l-0.081,0.997l0.115,1.96l0.614,1.816l1.161,1.486l1.615,0.999l0.922,0.305l0.964,0.195l0.986,0.094l1.99,-0.055c1.547,-0.17 3.22,-0.571 4.402,-1.649l1,-1.381l0.285,-0.739l0.256,-1.375l0.062,-1.652l-6,0l0.015,-1.671c0.036,-1.123 0.122,-2.242 0.285,-3.354c0.197,-1.34 0.517,-2.656 0.82,-3.975l0.669,-3l1.811,-9l0.824,-4l0.926,-4c0.58,-2.596 1.139,-5.2 1.479,-7.839l0.129,-1.49l0.042,-1.671l-7,0m25,0l-0.448,1.671l-1.202,5.331l-1.139,4.998l-1.422,7l-1.365,6l-0.824,4l-0.8,4l-0.596,3c-0.186,0.999 -0.363,1.992 -0.495,2.999l-0.081,0.997l0.115,1.96l0.614,1.816l1.161,1.486l1.615,0.999l0.922,0.305l0.964,0.195l0.986,0.094l1.99,-0.055c1.547,-0.17 3.22,-0.571 4.402,-1.649l1,-1.381l0.285,-0.739l0.256,-1.375l0.062,-1.652l-6,0l0.015,-1.671c0.036,-1.123 0.122,-2.242 0.285,-3.354c0.197,-1.34 0.517,-2.656 0.82,-3.975l0.669,-3l1.811,-9l0.824,-4l0.926,-4c0.58,-2.595 1.139,-5.2 1.479,-7.839l0.129,-1.49l0.042,-1.671l-7,0m25,0c-0.457,1.618 -0.917,3.234 -1.329,4.864l-0.344,1.466l-0.327,1.67l8,0c0.302,-1.619 0.62,-3.23 0.831,-4.864l0.127,-1.466l0.042,-1.67l-7,0m450,8l8,0c0.302,-1.619 0.62,-3.23 0.831,-4.864l0.127,-1.466l0.042,-1.67l-2.154,0.019l-1.832,0.129c-0.86,0.138 -1.719,0.338 -2.427,0.88l-1.073,1.285l-0.365,0.81l-0.287,0.891l-0.438,1.832l-0.424,2.154m-634,-7c-0.2732,1.056 -0.5655,2.096 -0.8002,3.161l-1.4104,6.839l-1.365,6l-1.635,8l-1.5788,7l-1.635,7.998l-1.2484,5.331l-0.3272,1.671l8,0l0.4475,-1.671l1.203,-5.331l1.1389,-4.998l1.6346,-8l1.365,-6l1.635,-8l1.152,-4.998c0.513,-2.326 0.971,-4.664 1.424,-7.002l-8,0m398,0l-0.327,1.671l-1.462,6.329l-1.422,7l-1.365,6l-1.635,8l-1.365,6l-0.619,3c-0.195,0.986 -0.382,1.978 -0.516,2.975c-0.149,1.114 -0.239,2.231 -0.274,3.354l-0.015,1.671l8,0c1.666,-0.003 3.337,0.025 5,-0.089c2.017,-0.139 4.009,-0.493 6,-0.832c1.681,-0.286 3.37,-0.549 5,-1.067c2.509,-0.798 4.883,-2.058 6.996,-3.625c2.049,-1.521 3.87,-3.321 5.366,-5.391c1.115,-1.543 2.007,-3.25 2.758,-4.996c0.558,-1.298 1.022,-2.629 1.365,-4c0.248,-0.99 0.415,-1.996 0.591,-3l0.33,-2l0.268,-2l0.066,-2c-0.032,-1.013 -0.198,-2.003 -0.363,-3l-0.2,-1l-0.506,-2l-0.335,-0.999l-0.905,-1.986l-1.235,-1.91l-0.729,-0.891l-0.796,-0.821l-1.764,-1.398l-1.922,-1.075l-0.989,-0.437l-1.996,-0.694l-1,-0.26l-2,-0.344c-0.994,-0.124 -2,-0.149 -3,-0.17l-3,-0.015l-12,0m330,33l-1.625,1.085l-1.308,1.211l-1.352,1.602l-0.942,1.435l-0.773,1.667l1.671,1.257l1.489,0.978l1.865,1.08l1.977,0.957c0.957,0.436 1.981,0.758 2.998,1.02c1.963,0.505 3.979,0.663 6,0.69c1.002,0.013 2,-0.021 3,-0.072l1,-0.084l2,-0.294l2,-0.46l2,-0.635l1.996,-0.879l1.96,-1.21l0.936,-0.742l1.689,-1.711l0.716,-0.938l0.614,-0.972l0.516,-0.989l0.425,-0.997l0.614,-1.999l0.333,-2l0.064,-1l-0.106,-1.996l-0.5,-1.964l-0.436,-0.946l-1.255,-1.754l-0.794,-0.782l-1.816,-1.333l-0.971,-0.551l-1.986,-0.913c-1.31,-0.542 -2.665,-0.957 -3.999,-1.432l-1.996,-0.717l-0.988,-0.411l-1.893,-1.03l-0.855,-0.642l-1.337,-1.493l-0.616,-1.626l0.012,-0.824l0.219,-0.828l0.421,-0.819l1.327,-1.545l1.762,-1.218l1.949,-0.728l1.995,-0.246l1,0.027l1,0.116l2,0.455c1.369,0.397 2.662,0.998 3.955,1.587l0.885,0.422l1.001,0.418l0.488,0.236l1.671,0.537l1.192,-1.625l1.087,-1.375l0.288,-0.375l1.433,-1.625l-1.086,-1.553l-0.431,-0.381l-1.621,-1.383l-1.88,-1.035l-1.983,-0.705l-1.999,-0.475l-2,-0.294l-2,-0.134c-0.997,-0.04 -2.003,-0.039 -3,0.001c-1.004,0.04 -2.009,0.114 -3,0.288l-2,0.46l-1,0.32l-1.999,0.811l-1.986,1.075l-1.907,1.398l-1.689,1.712l-0.716,0.938l-0.614,0.972l-0.516,0.989l-0.769,1.996l-0.27,1l-0.201,1l-0.196,2l0.106,1.999l0.195,0.997l0.305,0.989l0.999,1.907l0.692,0.883l1.675,1.523l1.906,1.144l1.986,0.847l3.999,1.407l1.995,0.772l1.946,0.949l0.907,0.578l0.819,0.654l0.686,0.744l0.815,1.696l0.08,0.91l-0.486,1.78l-1.2,1.518l-0.791,0.614l-0.88,0.516l-1.906,0.765l-1.986,0.438l-0.999,0.091l-1,0l-1,-0.09l-1,-0.175l-1,-0.249l-1.995,-0.689l-1.946,-0.911l-1.738,-1.096l-0.804,-0.735l-0.431,-0.334l-1.086,-1.442m-662,-32l-0.184,1.671l-0.095,0.488l-0.161,1.002l-0.559,2.819l-0.685,3.349l-0.316,1.671l-4,0l-0.432,1.645l-0.278,1.355l-0.191,1.355l-0.099,1.645l4,0l-0.627,1.671l-0.104,0.488l-0.279,1.002l-0.993,4.839l-0.647,3l-0.7,3c-0.374,1.659 -0.738,3.322 -1.02,5c-0.216,1.288 -0.388,2.662 -0.107,3.956l0.671,1.816l1.24,1.486l1.675,0.999l1.906,0.5l0.989,0.094l1.994,-0.051c1.835,-0.165 3.583,-0.727 5.331,-1.27l1.671,-0.53l0,-6l-1.667,0.183l-0.467,0.092l-0.982,0.151l-1.75,0.299l-0.467,0.092l-1.667,0.183c0.022,-1.059 0.008,-2.105 0.09,-3.161c0.073,-0.954 0.199,-1.899 0.349,-2.844l0.366,-1.995l0.845,-4l0.886,-3.975l0.164,-0.98l0.21,-1.886l0.048,-0.488l0.042,-1.671c1.055,-0.013 2.089,0 3.141,-0.059l0.845,-0.089l1.701,-0.454l1.285,-0.977l0.71,-1.409l0.171,-0.912l0.147,-2.1l-6,0l0.187,-1.671l0.103,-0.488l0.175,-1.002l1.07,-4.678l0.278,-1.49l0.187,-1.671l-8,0m268,0l-0.187,1.671l-0.278,1.49l-1.07,4.678l-0.175,1.002l-0.103,0.488l-0.187,1.671l-2.012,0.315l-0.831,0.288l-1.154,0.976l-0.687,1.409l-0.254,1.361l-0.062,1.651l4,0l-0.627,1.671l-0.104,0.488l-0.282,1.002l-0.638,2.844l-0.925,3.995l-0.824,4c-0.334,1.664 -0.691,3.326 -0.97,5l-0.232,1.996l0.001,0.989l0.383,1.906l0.964,1.675l1.482,1.255l1.816,0.741l0.971,0.195l0.989,0.094l1.994,-0.051c1.835,-0.165 3.583,-0.727 5.331,-1.27l1.671,-0.53l0,-6l-1.667,0.183l-0.467,0.092l-0.982,0.151l-1.75,0.299l-0.467,0.092l-1.667,0.183l0.015,-1.671c0.035,-1.123 0.125,-2.24 0.274,-3.354c0.179,-1.334 0.451,-2.655 0.712,-3.975l0.998,-4.998c0.254,-1.278 0.504,-2.556 0.711,-3.841l0.192,-1.49l0.098,-1.671l7,0l0.432,-1.645l0.278,-1.355l0.191,-1.355l0.099,-1.645l-6,0l0.184,-1.671l0.095,-0.488l0.161,-1.002l0.559,-2.819l0.685,-3.349l0.316,-1.671l-8,0z"/>
  <path id="svg_5" fill="#F2F0F0" d="m502,659l-0.099,1.671l-0.202,1.49c-0.35,1.963 -0.847,3.892 -1.275,5.839l-1.848,9l-1.152,5c-0.424,1.936 -0.819,3.882 -1.134,5.839l-0.192,1.49l-0.098,1.671c1.673,-0.005 3.355,0.031 5.025,-0.089c1.674,-0.122 3.335,-0.373 4.975,-0.73l2,-0.486l1,-0.308l1.996,-0.84l0.989,-0.555l1.91,-1.386l1.715,-1.711l0.752,-0.938l1.271,-1.961l1,-1.996l0.744,-2l0.271,-1l0.402,-2c0.167,-0.99 0.302,-1.997 0.351,-3c0.049,-1.004 0.015,-2.002 -0.11,-3l-0.364,-1.999l-0.275,-0.996l-0.356,-0.987l-0.46,-0.963l-1.269,-1.776l-1.676,-1.421l-1.906,-0.965l-0.989,-0.32l-1.996,-0.384l-1,-0.095l-1.995,-0.079l-1.96,-0.014l-4.045,-0.001z"/>
  <path id="svg_6" fill="#F76E42" d="m124,669l0.433,-1.625l0.288,-1.375l0.087,-0.375l0.192,-1.625l-7,0l-0.327,1.671l-1.462,6.329c-0.639,2.997 -1.186,6.011 -1.861,9l-0.926,4l-1.224,5.998l-0.76,3.841l-0.161,1.002l-0.095,0.488l-0.184,1.671c1.055,-0.013 2.089,0 3.141,-0.059l1.739,-0.259l1.558,-0.71l1.132,-1.29l0.746,-1.741c0.4,-1.3 0.726,-2.616 1.033,-3.941l1.255,-6c0.288,-1.343 0.554,-2.7 1.009,-4c0.493,-1.407 1.158,-2.75 2.04,-3.957l1.561,-1.829l0.891,-0.819l0.938,-0.738l1.96,-1.142l1.978,-0.544l0.96,0.027l1.737,0.71l0.704,0.653l0.925,1.701l0.255,1.943l-0.06,0.996l-0.311,1.999l-0.591,3l-0.811,4l-0.669,3c-0.303,1.319 -0.623,2.635 -0.82,3.975c-0.163,1.112 -0.249,2.231 -0.285,3.354l-0.015,1.671l7,0c0.273,-1.056 0.566,-2.096 0.8,-3.161l1.2,-5.839l1.2,-6l0.799,-4l0.386,-2c0.289,-1.65 0.563,-3.318 0.532,-5l-0.149,-1.995l-0.202,-0.987l-0.308,-0.963l-1,-1.776l-1.486,-1.417l-1.816,-0.929l-1.96,-0.415l-0.997,-0.029l-1.999,0.221l-2,0.464l-1,0.295l-1.995,0.74c-0.988,0.427 -1.922,0.94 -2.845,1.49l-1.489,0.999l-1.671,1.302m88,20l-1.645,-0.531l-2.71,-0.938l-1.645,-0.531l-1.637,1.775l-0.813,0.732l-1.665,1.06l-1.901,0.766l-1.981,0.344l-1.959,-0.154l-1.819,-0.706l-0.806,-0.56l-1.329,-1.481c-0.569,-0.799 -0.93,-1.723 -1.281,-2.631l-0.296,-0.99l-0.155,-0.484l-0.358,-1.671l7.002,0l2.998,-0.004l2,-0.036l2,-0.148l1,-0.152l1.999,-0.514l0.996,-0.374l0.986,-0.46l0.964,-0.54l1.776,-1.33l1.421,-1.63l0.539,-0.906l0.422,-0.946l0.51,-1.964l0.079,-1.992l-0.359,-1.961l-0.791,-1.829l-0.551,-0.82l-1.385,-1.389l-1.711,-1.035l-1.91,-0.742l-0.989,-0.285l-1.996,-0.386l-1,-0.086l-2,0.058c-1.009,0.123 -2.005,0.282 -3,0.49c-1.354,0.284 -2.707,0.619 -3.999,1.121c-1.031,0.401 -2.022,0.889 -2.962,1.473l-1.865,1.326l-0.873,0.745l-1.617,1.617l-1.435,1.789l-0.636,0.949l-1.056,1.965c-0.733,1.583 -1.191,3.289 -1.527,4.996c-0.26,1.318 -0.452,2.654 -0.451,4c0.001,1.344 0.18,2.691 0.48,4c0.472,2.065 1.225,4.125 2.594,5.775l1.561,1.522l1.829,1.13l1.961,0.769l0.997,0.271l1.999,0.347c0.992,0.121 2.002,0.153 3,0.131c1.344,-0.029 2.69,-0.166 4,-0.477l2,-0.601l1,-0.4l0.999,-0.467l1.982,-1.132l1.87,-1.376l1.539,-1.517l0.956,-1.346l0.654,-1.629m105,5l-0.358,1.671l-0.451,1.486c-0.359,0.949 -0.734,1.893 -1.281,2.754l-1.329,1.749l-0.806,0.781l-1.819,1.316l-1.96,0.924l-1.996,0.46l-1,0.05l-1,-0.064l-1.998,-0.429l-1.977,-0.817l-1.865,-1.151l-1.489,-1.177l-1.671,-1.553l-1.625,0.938l-0.375,0.262l-1.375,0.862l-1.625,0.938l0.471,1.667l0.249,0.476l0.465,0.974l1.249,1.679l1.675,1.467l0.935,0.573l0.971,0.461l0.989,0.359c0.989,0.288 1.979,0.538 2.996,0.71l2,0.255l1,0.038l2,-0.137c1.007,-0.148 2.006,-0.323 3,-0.538c1.013,-0.22 2.007,-0.476 3,-0.773l1,-0.351l1.996,-0.91l1.964,-1.199l0.947,-0.69l0.908,-0.745l1.652,-1.617l1.389,-1.789l0.586,-0.949l0.945,-1.965l0.368,-0.997l0.321,-0.999l0.794,-3c0.495,-1.989 0.921,-3.992 1.329,-6l1.225,-6l1.152,-5l0.824,-4c0.457,-2.275 0.941,-4.548 1.31,-6.839l0.192,-1.49l0.098,-1.671l-7,0l0,5l-1.671,-1.61l-1.489,-1.247l-1.865,-1.226l-0.98,-0.473l-1.995,-0.631c-1.653,-0.355 -3.345,-0.229 -5,0.035l-2,0.41l-1,0.276l-2,0.78c-1.858,0.927 -3.453,2.26 -4.895,3.741l-1.711,1.95l-1.399,1.995l-0.578,1l-0.934,2c-0.372,0.988 -0.716,1.97 -0.954,3c-0.378,1.639 -0.5,3.321 -0.5,5c0,1.006 0.062,1.999 0.156,3l0.348,1.999l0.615,1.986l0.942,1.91l1.329,1.711l1.689,1.385l0.936,0.552l0.971,0.448l0.989,0.355l1.996,0.425l1,0.081l1,0l2,-0.246c1.031,-0.209 1.998,-0.569 2.975,-0.948l1.865,-0.862l1.001,-0.542l0.488,-0.244l1.671,-1.01m52,-5l-1.645,-0.531l-2.71,-0.938l-1.645,-0.531l-1.671,1.553l-1.489,1.173l-1.865,1.116l-0.98,0.405l-1.991,0.416l-0.989,0l-1.91,-0.421l-1.711,-0.985l-0.741,-0.689l-0.644,-0.792l-1.001,-1.775l-0.625,-1.846l-0.154,-0.484l-0.229,-1.671l7.002,0l2.998,-0.004l2,-0.036l2,-0.148l1,-0.152l1.996,-0.514l0.989,-0.374l0.972,-0.46l0.938,-0.54l1.711,-1.33l1.385,-1.63l0.551,-0.906l0.79,-1.921l0.345,-1.986l-0.154,-1.995l-0.281,-0.989l-0.985,-1.906l-0.691,-0.881l-1.675,-1.49l-1.906,-1.034l-0.989,-0.356l-0.997,-0.275c-0.993,-0.215 -1.983,-0.396 -2.999,-0.463c-1.339,-0.089 -2.672,0.012 -4,0.187c-1.7,0.224 -3.4,0.566 -5,1.194c-1.037,0.407 -2.033,0.914 -2.985,1.492c-1.33,0.807 -2.585,1.745 -3.686,2.846c-1.626,1.625 -2.938,3.595 -3.915,5.672c-0.749,1.592 -1.237,3.279 -1.591,4.999l-0.344,2l-0.099,1l-0.036,1l0.163,2l0.425,2l0.293,0.999l0.338,0.997l0.879,1.96c0.707,1.287 1.613,2.431 2.772,3.341l1.829,1.13l0.972,0.425l1.986,0.615l0.999,0.204l2,0.232l2,0.042l1,-0.042l1,-0.089l2,-0.346l2,-0.601l1,-0.4l0.999,-0.467l1.982,-1.132l1.87,-1.376l1.539,-1.517l0.956,-1.346l0.654,-1.629m23,-20l0.312,-1.625l0.376,-1.75l0.312,-1.625l-7,0c-0.273,1.056 -0.566,2.096 -0.8,3.161l-1.411,6.839l-1.365,6l-1.024,5l-0.824,4c-0.435,1.945 -0.925,3.877 -1.275,5.839l-0.202,1.49l-0.099,1.671c1.055,-0.013 2.089,0 3.141,-0.059l1.739,-0.259l1.558,-0.71l1.129,-1.29l0.724,-1.741l0.265,-0.96l0.654,-2.981l1.366,-6l0.678,-3l0.625,-1.999c0.381,-1.054 0.968,-2.061 1.635,-2.958l1.619,-1.829l0.922,-0.819l0.964,-0.738l1.981,-1.142l1.981,-0.544l0.96,0.027l1.737,0.71l0.704,0.653l0.925,1.701l0.255,1.943l-0.06,0.996l-0.311,1.999l-0.402,2l-1.139,5c-0.594,2.631 -1.157,5.275 -1.479,7.955c-0.095,0.786 -0.131,1.583 -0.156,2.374l-0.015,1.671l7,0l0.327,-1.671l1.249,-5.331l0.824,-3.998l1,-5l0.985,-5c0.289,-1.65 0.563,-3.318 0.532,-5l-0.149,-1.995l-0.202,-0.986l-0.308,-0.961l-1,-1.755l-1.486,-1.361l-1.816,-0.87l-1.96,-0.415l-0.997,-0.052l-1.999,0.155l-2,0.425l-1,0.287l-1.995,0.737c-0.988,0.426 -1.922,0.94 -2.845,1.49l-1.489,0.999l-1.671,1.302m195,0l0.312,-1.625l0.376,-1.75l0.312,-1.625l-7,0c-0.561,1.994 -1.121,3.983 -1.575,6.005l-0.825,3.995c-0.402,2.003 -0.8,4.007 -1.251,6l-0.925,4l-1.224,6c-0.321,1.611 -0.637,3.22 -0.91,4.839l-0.122,1.002l-0.07,0.488l-0.098,1.671l2.154,-0.019l1.832,-0.129l1.705,-0.455l0.722,-0.425l0.599,-0.575c0.596,-0.694 0.877,-1.601 1.14,-2.456l0.253,-0.96l0.475,-1.982l0.696,-2.999l0.824,-4l0.658,-3l0.645,-1.999l1.035,-1.986c0.893,-1.375 2.038,-2.586 3.306,-3.62l1.959,-1.366l0.994,-0.514l1.959,-0.544l1.812,0.271l0.784,0.466l0.666,0.653l0.869,1.701l0.19,0.958l0.056,0.985l-0.057,0.996l-0.292,1.999l-0.584,3l-1.051,5l-0.925,3.995l-0.976,4.334l-0.448,1.671l1.67,0.585l0.484,0.057l0.982,0.197l1.728,0.127l3.136,0.034l0.316,-1.671l1.284,-6.329l1.611,-8l0.669,-3c0.226,-0.998 0.476,-1.992 0.656,-3c0.235,-1.317 0.404,-2.66 0.381,-4l-0.149,-1.995l-0.202,-0.986l-0.308,-0.961l-1,-1.755l-1.486,-1.361l-1.816,-0.87l-1.96,-0.415l-0.997,-0.052l-1.999,0.154l-2,0.415c-1.013,0.279 -2.019,0.561 -2.995,0.955l-0.98,0.415l-1.865,0.999l-1.489,1.026l-1.671,1.431m54,25l1.112,1.736l0.626,0.681l1.465,0.865l1.68,0.491l1.45,0.181l1.667,0.046c0.188,-1.058 0.394,-2.098 0.542,-3.161l0.134,-1.864c0.035,-1.326 -0.129,-2.649 -0.105,-3.975c0.018,-1.012 0.128,-2 0.272,-3l0.172,-1l0.585,-3l0.824,-4l1.152,-5c0.424,-1.936 0.818,-3.882 1.134,-5.839l0.192,-1.49l0.098,-1.671c-1.056,0.013 -2.089,0 -3.141,0.059l-1.736,0.257l-1.521,0.687l-0.998,1.154l-0.289,0.831l-0.315,2.012l-1.671,-1.61l-1.489,-1.247l-1.865,-1.226l-0.98,-0.473l-1.995,-0.631c-1.646,-0.353 -3.355,-0.246 -5,0.049l-2,0.471l-0.999,0.331l-0.997,0.411l-1.964,1.072l-0.947,0.657l-1.764,1.525c-1.382,1.374 -2.478,2.994 -3.449,4.675l-1.055,1.996l-0.462,1l-0.725,2c-0.561,1.953 -0.63,3.981 -0.63,6c0,2.367 0.087,4.776 1.001,6.995l1,1.95l0.644,0.922l0.741,0.854l0.82,0.765l1.829,1.196l1.961,0.745l1.996,0.38l1,0.084l1,0.029l1,-0.029l2,-0.232c1.02,-0.19 2.011,-0.48 2.975,-0.862l1.865,-0.862l1.001,-0.573l0.488,-0.267l1.671,-1.095m34,-26l0.315,-1.494l0.143,-0.506l0.542,-2l-2.154,0.019l-1.832,0.129l-1.705,0.455l-0.722,0.425l-0.599,0.575l-0.844,1.545l-0.549,1.871l-0.475,1.982l-0.909,3.999c-0.638,2.997 -1.186,6.011 -1.862,9l-0.925,4c-0.487,2.267 -0.957,4.539 -1.253,6.839l-0.129,1.49l-0.042,1.671l7,0c0.47,-1.67 0.949,-3.336 1.349,-5.025c0.469,-1.98 0.849,-3.98 1.251,-5.975l0.829,-4l0.51,-2l0.714,-2l0.487,-0.999l1.29,-1.986l1.679,-1.905l0.935,-0.877l0.971,-0.78l0.985,-0.652l0.985,-0.474l1.905,-0.29l0.878,0.219l1.45,1.106l0.513,0.802l0.356,0.898l0.19,0.958l-0.001,1.981l-0.124,0.999l-0.356,2l-0.799,4l-0.421,2l-0.925,3.998l-1.203,5.331l-0.448,1.671l1.67,0.585l0.484,0.057l0.982,0.197l1.728,0.127l3.136,0.034l0.316,-1.671l1.684,-8.329c0.401,-2.003 0.797,-4.006 1.24,-6l0.549,-2l0.783,-1.996l1.131,-1.961l0.716,-0.938l1.689,-1.707l0.936,-0.731l0.97,-0.618l1.962,-0.871l0.979,-0.239l1.886,-0.133l0.488,-0.004l1.671,0.198c-0.005,1.677 0.005,3.35 -0.089,5.025c-0.057,0.998 -0.196,1.988 -0.35,2.975c-0.209,1.34 -0.495,2.67 -0.761,4l-1.224,6c-0.428,1.947 -0.925,3.876 -1.275,5.839l-0.202,1.49l-0.099,1.671l2.154,-0.019l1.833,-0.129c0.868,-0.139 1.731,-0.342 2.451,-0.88l0.624,-0.575l0.505,-0.715l0.404,-0.83l0.585,-1.871l0.229,-0.986l0.425,-1.995l0.671,-3l0.908,-4c0.482,-2.324 0.929,-4.654 1.287,-7c0.153,-0.999 0.301,-1.994 0.402,-3l0.047,-1l-0.187,-1.995l-0.671,-1.95l-1.182,-1.776l-0.764,-0.761l-0.854,-0.645l-1.885,-0.889l-0.987,-0.238l-0.996,-0.102l-1.999,0.12l-2,0.425l-1,0.298l-1.995,0.812l-0.98,0.53l-1.865,1.289l-1.489,1.269l-1.671,1.613l-0.677,-1.625l-0.267,-0.427l-0.51,-0.884l-1.198,-1.385l-1.562,-1.093l-0.891,-0.398l-1.91,-0.481l-1.986,-0.057l-1.999,0.293l-1.998,0.528l-1.977,0.717l-1.865,0.876l-1.001,0.574l-2.159,1.362m101,21c-1.059,-0.323 -2.088,-0.67 -3.16,-0.939l-1.865,-0.244l-1.977,0.287c-1.055,0.289 -2.01,0.864 -2.983,1.341l-1.926,0.908l-0.919,0.314l-1.745,0.227l-0.845,-0.117l-1.691,-0.728l-1.61,-1.342l-0.69,-0.844l-0.986,-1.881l-0.439,-1.983l-0.04,-1.999l0.271,-1.999l0.614,-1.986l1,-1.922l0.644,-0.908l0.741,-0.856l1.711,-1.525l1.91,-1.227l0.989,-0.468l0.996,-0.347l1.982,-0.224l1.88,0.489l1.621,1.133l0.431,0.329l1.086,1.511l1.671,-0.102l1.485,-0.224l1.824,-0.428c1.35,-0.383 2.682,-0.822 4.02,-1.246l-0.775,-1.667l-0.965,-1.45l-1.488,-1.68l-1.816,-1.477l-1.96,-1.072l-0.997,-0.386l-0.999,-0.31l-2,-0.4l-2,-0.095l-1,0.066c-1.009,0.123 -2.005,0.281 -3,0.49c-1.014,0.213 -2.008,0.473 -3,0.77l-2,0.783l-0.999,0.517l-1.986,1.33l-1.91,1.689l-0.892,0.936l-1.575,1.96l-0.668,0.997l-1.131,1.999c-0.502,0.942 -0.905,1.975 -1.201,3l-0.425,2l-0.108,1l-0.086,2l0.022,2l0.148,2l0.384,2l0.32,0.999l0.965,1.983l1.421,1.885l0.854,0.854l0.922,0.765l0.963,0.656l1.983,0.965l1.999,0.549l1,0.154c1.001,0.096 1.994,0.158 3,0.135l2,-0.131l1,-0.143l1,-0.203l2,-0.601l1.996,-0.867l0.989,-0.533l0.971,-0.599l1.816,-1.376l1.488,-1.517l0.628,-0.909l0.337,-0.437l0.775,-1.629m120,0l-1.671,-0.427l-1.489,-0.226l-0.885,-0.024l-1.96,0.277l-1.995,0.779l-3,1.5l-2,0.673l-0.999,0.162l-0.997,0.029l-1.96,-0.362l-0.935,-0.413l-1.675,-1.284l-1.255,-1.718l-0.437,-0.941l-0.516,-1.867l-0.108,-0.487l-0.118,-1.671l7.002,0l2.998,-0.015c1,-0.021 2.006,-0.044 3,-0.17l2,-0.348l1.999,-0.615l0.996,-0.425l0.986,-0.516l0.96,-0.614l1.741,-1.522l1.29,-1.819l0.425,-0.971l0.284,-0.989l0.166,-0.997l0.075,-1.998l-0.241,-1.986l-0.284,-0.971l-0.425,-0.935l-1.29,-1.676l-1.741,-1.269l-0.96,-0.46l-0.986,-0.356l-1.995,-0.485l-2,-0.253l-2,-0.011l-1,0.082l-2,0.269l-2,0.402l-1,0.271l-2,0.744l-1.999,1l-0.997,0.603l-0.989,0.668l-0.972,0.752l-1.829,1.715l-0.82,0.938l-0.742,0.972l-0.647,0.989l-0.563,0.997l-0.879,1.999c-0.371,0.972 -0.649,1.988 -0.882,3c-0.304,1.314 -0.512,2.652 -0.576,4c-0.096,2.015 0.091,4.069 0.699,5.999c0.552,1.753 1.386,3.408 2.615,4.787l1.689,1.561l0.936,0.644l0.971,0.552l0.989,0.448l1.996,0.615l1,0.18c1.001,0.114 1.992,0.183 3,0.183c0.999,0 2.01,-0.037 3,-0.182c1.029,-0.15 2.022,-0.404 3,-0.757c1.045,-0.377 2.021,-0.876 2.999,-1.397l0.996,-0.601l1.946,-1.398l1.738,-1.578l1.235,-1.401l1.086,-1.655m40,0c-1.059,-0.323 -2.088,-0.67 -3.16,-0.939l-1.865,-0.244l-1.977,0.287l-0.997,0.367l-1.986,0.974l-1.926,0.908l-0.919,0.314l-0.884,0.186l-1.706,-0.076l-1.691,-0.728l-0.83,-0.603l-0.78,-0.739l-0.69,-0.844l-0.565,-0.919l-0.421,-0.962l-0.281,-0.987l-0.158,-0.996l-0.037,-1.999l0.293,-1.999l0.283,-0.997l0.386,-0.989l1.059,-1.922l1.385,-1.764l1.652,-1.525l0.908,-0.655l1.922,-1.04l1.986,-0.543l0.999,-0.028l1,0.154l2,0.775c1.294,0.652 2.558,1.468 3.998,1.765l1.977,0.106l1.865,-0.36l1.489,-0.449l1.671,-0.529l-0.775,-1.667l-0.965,-1.45l-1.488,-1.68l-1.816,-1.477l-1.96,-1.072l-0.997,-0.386l-0.999,-0.31l-2,-0.4l-2,-0.095l-1,0.066c-1.009,0.123 -2.005,0.282 -3,0.49c-1.014,0.213 -2.008,0.473 -3,0.77l-2,0.783l-0.999,0.517l-1.986,1.33c-3.711,2.873 -6.427,7.001 -7.486,11.581l-0.344,2l-0.091,1l-0.064,2l0.076,2l0.288,2l0.615,1.999l0.448,0.996l0.552,0.987l1.385,1.885l0.82,0.854l0.891,0.765l1.91,1.196c1.85,0.928 3.94,1.213 5.985,1.263c1.006,0.025 1.999,-0.04 3,-0.131l1,-0.143l2,-0.46l1,-0.32l1,-0.374l1.995,-0.934l1.946,-1.227l0.91,-0.725l1.539,-1.575l0.956,-1.401l0.654,-1.655m112,0l-1.65,-0.531l-2.7,-0.938l-1.65,-0.531l-1.67,1.553l-1.49,1.173l-1.86,1.116l-0.98,0.405l-2,0.416l-1,0l-1.96,-0.421l-1.81,-0.985l-0.8,-0.689l-1.25,-1.652l-0.44,-0.915l-0.51,-1.846l-0.11,-0.484l-0.12,-1.671l7,0l3,-0.015l2,-0.078c1.01,-0.083 2.01,-0.207 3,-0.436c1.02,-0.236 1.99,-0.575 2.96,-0.954l0.95,-0.437l0.9,-0.497l1.63,-1.232l1.33,-1.565l0.54,-0.891l0.45,-0.938l0.35,-0.972l0.36,-1.986l-0.14,-1.995l-0.26,-0.989l-0.93,-1.906l-0.65,-0.881l-1.62,-1.49l-1.89,-1.034l-0.98,-0.356l-1,-0.275c-0.99,-0.215 -1.98,-0.396 -3,-0.463c-1.34,-0.089 -2.67,0.012 -4,0.187c-1.01,0.133 -2.01,0.331 -3,0.558l-1,0.279l-2,0.783l-2,1.066l-1.96,1.306l-1.83,1.54l-1.57,1.764c-0.7,0.904 -1.28,1.896 -1.8,2.911c-0.66,1.281 -1.19,2.623 -1.62,3.996c-0.7,2.249 -1.18,4.634 -1,7c0.14,1.712 0.61,3.413 1.26,4.996c0.7,1.69 1.61,3.311 2.91,4.61l1.71,1.385l0.94,0.552l0.98,0.448l1.98,0.615l1,0.18l1,0.108l2,0.076c1.67,0.006 3.37,-0.109 5,-0.503l2,-0.611l1,-0.414l1,-0.492l1.96,-1.198l1.81,-1.411l1.49,-1.482l0.97,-1.286l0.77,-1.573m-769,-25c-0.453,2.338 -0.911,4.676 -1.424,7.002l-1.152,4.998l-1.848,9l-0.926,4c-0.434,1.94 -0.836,3.887 -1.21,5.839l-0.161,1.002l-0.095,0.488l-0.184,1.671l2.154,-0.019l1.836,-0.129l0.901,-0.17l0.835,-0.285l1.417,-1c0.872,-0.922 1.296,-2.215 1.602,-3.416c0.504,-1.974 0.845,-3.988 1.258,-5.981l0.421,-2l1.365,-6l1.635,-7.998l1.249,-5.331l0.327,-1.671l-8,0m259,0l0.316,1.671l1.26,6.329l0.504,3l0.673,4l0.671,4l0.379,2c0.447,2.33 0.925,4.653 1.273,7c0.242,1.635 0.578,3.351 0.24,4.999l-0.673,1.986l-0.551,0.971l-0.668,0.935l-1.612,1.68l-1.833,1.309l-0.935,0.526l-1.726,0.969l-0.71,0.543l-0.946,1.365l-0.196,0.802l0,0.821l0.581,1.455l0.561,0.519l0.711,0.331l0.829,0.142l0.911,-0.034l1.946,-0.472c1.047,-0.346 2.014,-0.859 2.98,-1.38l0.976,-0.6l0.949,-0.667l0.916,-0.732l0.874,-0.797l0.835,-0.856l1.565,-1.855c1.994,-2.503 3.633,-5.251 5.324,-7.96l3.152,-5c1.225,-1.979 2.415,-3.981 3.574,-6l2.271,-4c1.132,-1.975 2.292,-3.934 3.256,-6c0.757,-1.622 1.401,-3.296 1.963,-4.995c0.311,-0.939 0.594,-1.887 0.841,-2.844l0.203,-1.002l0.118,-0.488l0.198,-1.671l-2.154,0.019l-1.836,0.129c-0.886,0.141 -1.755,0.351 -2.502,0.88c-1.039,0.736 -1.649,1.881 -2.121,3.031l-1.84,4.941c-0.691,1.702 -1.485,3.357 -2.306,5l-1.55,3c-1.082,1.972 -2.228,3.905 -3.372,5.841l-0.279,0.488l-1.04,1.671l-0.433,-1.671l-0.292,-1.49l-0.696,-4.839l-0.308,-2l-0.542,-4l-0.458,-3l-0.686,-4.839l-0.585,-3.161l-8,0m193,0l-0.327,1.671l-1.462,6.329c-0.639,2.997 -1.186,6.011 -1.862,9l-0.925,4l-1.224,5.998l-0.76,3.841l-0.161,1.002l-0.095,0.488l-0.184,1.671l2.154,-0.019l1.833,-0.129l1.714,-0.455l0.737,-0.425l0.624,-0.575l0.508,-0.715l0.412,-0.83l0.624,-1.871c0.636,-2.302 1.118,-4.642 1.593,-6.981l1.225,-6l1.365,-6l1.411,-6.839c0.234,-1.065 0.527,-2.105 0.8,-3.161l-8,0m221,0l-0.099,1.671l-0.202,1.49c-0.35,1.963 -0.847,3.892 -1.275,5.839l-0.824,4l-0.797,4c-0.32,1.662 -0.619,3.323 -0.844,5c-0.133,0.989 -0.236,2.001 -0.23,3l0.125,1.996l0.178,0.989l0.635,1.906l0.477,0.881l1.286,1.486l1.679,1l1.906,0.51l0.989,0.109l0.997,0.039l1.999,-0.105c1.724,-0.194 3.421,-0.644 4.995,-1.379c1.009,-0.471 1.932,-1.059 2.845,-1.691l1.489,-1.187l1.671,-1.554l0.16,1.651l0.155,0.449l0.713,1.626l1.285,1.232l0.816,0.381l1.746,0.195l1.561,-0.581l0.621,-0.56l0.492,-0.707l0.365,-0.816l0.238,-0.87l0.093,-1.684l-0.327,-1.23l-0.918,-1.086l0.683,-1.671l0.127,-0.488l0.32,-1.002l0.451,-1.864l0.618,-2.975l1.001,-5l1.224,-5.998l1.249,-5.331l0.327,-1.671l-8,0c-0.453,2.338 -0.911,4.676 -1.424,7.002l-1.366,5.998l-0.65,3l-0.549,1.996l-0.78,1.964l-0.51,0.947l-1.29,1.764l-1.619,1.528l-0.902,0.664l-1.885,1.093l-1.851,0.682l-1.691,0.087l-1.451,-0.652l-0.598,-0.6l-0.866,-1.596l-0.25,-0.925l-0.171,-1.956l0.043,-0.997l0.104,-0.999l0.321,-2c0.529,-3.027 1.301,-6.001 1.961,-9c0.353,-1.608 0.674,-3.223 0.984,-4.839l0.161,-1.002l0.095,-0.488l0.184,-1.671l-8,0m44,0l-0.316,1.671l-0.884,4.334l-1.224,5.995l-1.365,6l-1.214,6l-0.877,3.995l-0.656,2.844l-0.174,1.002l-0.103,0.488l-0.187,1.671l2.154,-0.019l1.836,-0.129c0.881,-0.14 1.758,-0.348 2.498,-0.88l0.655,-0.575l0.543,-0.715l0.781,-1.741l0.278,-0.96l0.654,-2.981c0.554,-2.672 1.022,-5.37 1.761,-8c0.58,-2.065 1.25,-4.147 2.54,-5.895l1.52,-1.711l0.89,-0.741l0.93,-0.645l1.96,-1.018c0.92,-0.428 1.91,-0.718 2.86,-1.094l1.58,-0.879l0.62,-0.6l0.91,-1.52l0.3,-0.795l0.4,-1.435l0.33,-1.667l-1.67,0.016l-1.49,0.093l-0.88,0.119l-1.96,0.513l-1.98,0.977l-1.86,1.35l-1.49,1.307l-1.67,1.625l0.43,-1.645l0.28,-1.355l0.19,-1.355l0.1,-1.645l-7,0z"/>
  <path id="svg_7" fill="#F2F0F0" d="m191,678l5.025,-0.001c0.99,-0.002 1.986,0.011 2.975,-0.039l1.996,-0.149l0.989,-0.155l0.971,-0.229l1.812,-0.745l0.783,-0.539l0.663,-0.653l0.815,-1.579l0,-1.701l-0.317,-0.781l-0.498,-0.687l-1.446,-0.985l-1.812,-0.434l-0.971,-0.025l-1.986,0.29l-1.995,0.731l-0.989,0.539l-1.907,1.416c-0.887,0.772 -1.646,1.66 -2.368,2.584l-0.965,1.471l-0.775,1.671m157,0l5.025,-0.001c0.989,-0.002 1.987,0.015 2.975,-0.042l1.996,-0.171l0.989,-0.18l0.97,-0.259l1.802,-0.804l0.769,-0.551l0.638,-0.641l0.75,-1.521l-0.036,-1.645l-0.305,-0.767l-0.475,-0.679l-0.627,-0.557l-1.605,-0.708l-1.885,-0.176l-0.986,0.09l-1.994,0.509l-0.997,0.422l-0.989,0.539l-1.907,1.416c-0.887,0.772 -1.646,1.66 -2.368,2.584l-0.965,1.471l-0.775,1.671m527,0l4.045,0l2.957,-0.015l1.997,-0.094l0.996,-0.119l0.986,-0.206l0.96,-0.308l1.736,-1l0.7,-0.691l0.871,-1.656l0.116,-0.896l-0.116,-0.882l-0.334,-0.819l-0.537,-0.711l-1.526,-0.984l-1.87,-0.366l-0.986,0.019l-1.991,0.385l-1.964,0.8l-0.946,0.552l-1.75,1.381c-0.786,0.743 -1.424,1.594 -2.02,2.493l-0.768,1.45l-0.556,1.667m152,0l5.02,-0.001c1.66,-0.009 3.33,0.026 4.98,-0.209l1.96,-0.393l1.88,-0.6l2.16,-0.797l0,-6l-1.67,-0.428l-0.49,-0.079l-1,-0.164l-1.86,-0.05l-1.98,0.294l-0.99,0.285l-0.97,0.371l-1.85,0.999l-1.66,1.325l-0.73,0.763l-1.23,1.618l-0.55,0.947l-1.02,2.119m-715.999,-7.253l-1.986,0.995l-0.971,0.692l-0.935,0.794l-0.881,0.881l-0.794,0.935l-0.692,0.971l-1,1.986l-0.513,1.999l-0.116,1l-0.054,2c0.052,1.664 0.274,3.398 1.12,4.867l1.255,1.615l0.794,0.645l0.881,0.515l0.935,0.37l1.96,0.304l0.996,-0.063l1.985,-0.521l1.907,-0.964l0.883,-0.623l0.806,-0.703l1.33,-1.63l0.956,-1.852l0.368,-0.975l0.605,-1.986c0.269,-0.991 0.482,-1.986 0.652,-2.999l0.106,-1.999l-0.38,-1.982l-0.412,-0.96l-1.24,-1.741l-0.794,-0.714l-1.816,-0.985l-0.971,-0.257l-0.989,-0.105l-0.997,0.03l-1.998,0.46m323.003,0.011c-1.82,0.647 -3.358,1.907 -4.61,3.351c-1.232,1.421 -2.178,3.096 -2.741,4.891l-0.439,2l-0.104,1l-0.036,1.999l0.245,1.983l0.284,0.963l0.425,0.922l1.29,1.615l1.741,1.157l0.96,0.363l0.986,0.212l0.996,0.051l1.995,-0.329l1.96,-0.79l0.936,-0.517l1.689,-1.267l1.33,-1.575l0.956,-1.83l0.368,-0.972l0.604,-1.986c0.27,-0.991 0.483,-1.986 0.653,-2.999l0.106,-1.996l-0.38,-1.96l-0.412,-0.935l-0.552,-0.881l-1.482,-1.485l-1.816,-0.985l-0.971,-0.28l-0.989,-0.141l-0.997,0l-1.995,0.421z"/>
  <path id="svg_8" fill="#F76E42" d="m451,689l-0.097,1.671l-0.172,1.47l-0.182,1.735l0.071,1.515l0.305,0.614l0.1,0.341l0.975,0.654l-0.897,1.667l-0.524,1.449c-0.198,0.73 -0.346,1.47 -0.466,2.217l-0.113,1.667l1.558,-0.343l1.222,-0.686l1.326,-1.289l0.615,-0.83l1.09,-1.871l0.46,-0.986l0.74,-1.993l0.51,-1.977l0.305,-1.864l0.084,-1.002l0.09,-2.159l-7,0m336,0c-0.306,1.669 -0.657,3.326 -0.757,5.025c-0.097,1.651 0.074,3.303 -0.121,4.95c-0.115,0.973 -0.359,1.917 -0.589,2.866l-0.139,0.488l-0.394,1.671l4,0l0.857,-1.671l0.276,-0.488l0.997,-1.886c0.478,-0.964 0.912,-1.937 1.261,-2.957c0.333,-0.97 0.567,-1.973 0.79,-2.973l0.378,-1.864l0.162,-1.002l0.095,-0.488l0.184,-1.671l-7,0z"/>
 </g>
</svg>