<svg width="580" height="400" xmlns="http://www.w3.org/2000/svg">
 <!-- Created with Method Draw - http://github.com/duopixel/Method-Draw/ -->

 <g>
  <title>background</title>
  <rect fill="#fff" id="canvas_background" height="402" width="582" y="-1" x="-1"/>
  <g display="none" overflow="visible" y="0" x="0" height="100%" width="100%" id="canvasGrid">
   <rect fill="url(#gridpattern)" stroke-width="0" y="0" x="0" height="100%" width="100%"/>
  </g>
 </g>
 <g>
  <title>Layer 1</title>
  <g stroke="null" id="svg_12">
   <path stroke="null" id="svg_4" fill="#F2F0F0" d="m-643.915314,267.798309l0,380.389277l578.830838,0l0,-380.389277l-578.830838,0z"/>
   <path stroke="null" id="svg_5" fill="#F76E42" d="m230.48307,118.616324l0.861288,0.443787l0.251531,0.148445l0.515948,0.289673l2.494694,1.476714l2.577163,1.467952l3.608028,2.140076l2.577163,1.466406l1.533412,0.862834l0.961282,0.466467l0.767479,0.294312l0.861288,0.221121l0,9.79322c0,1.029834 -0.015463,2.0607 0.009793,3.090019l0.066491,1.005609l0.234522,0.92314l0.219059,0.408738l0.664908,0.709751l0.427809,0.318537l0.964374,0.626766l1.021587,0.648414c0.511309,0.32163 1.021587,0.643775 1.545782,0.944273l1.546298,0.832424l1.030865,0.573161l1.546298,0.926232l1.030865,0.596356l2.577163,1.428779l2.577163,1.47723l2.06173,1.172094l3.608028,2.140076l2.06173,1.172094l1.546298,0.903553l3.092596,1.827724l1.030865,0.575223l0.515433,0.278849l1.030865,0.503062l0.515433,0.198442l0.515433,0.144321l1.030865,0.075253c0.731914,-0.049482 1.410224,-0.345855 2.06173,-0.658207c0.526257,-0.252562 1.036535,-0.54172 1.546298,-0.825208c1.219514,-0.677794 2.408101,-1.408162 3.608028,-2.119459c0.853556,-0.505639 1.712783,-0.999424 2.577163,-1.485992l1.030865,-0.579862l1.030865,-0.541204c0.492754,-0.223182 1.000455,-0.424201 1.546298,-0.46492l1.030865,0.084531l0.515433,0.1603l1.030865,0.479352l0.515433,0.281942l1.030865,0.579862c0.864381,0.486568 1.723607,0.980353 2.577163,1.485992c1.368474,0.811291 2.722515,1.648354 4.123461,2.402947c0.509763,0.274726 1.01901,0.541204 1.546298,0.781911l0.515433,0.198442l1.030865,0.219574l0.515433,0c0.539658,-0.036596 1.050967,-0.212358 1.546298,-0.418016c0.532442,-0.221121 1.039112,-0.508732 1.546298,-0.781911c1.576708,-0.848918 3.095173,-1.801437 4.638894,-2.708083l3.092596,-1.770511l3.608028,-2.140076l2.06173,-1.172094l2.06173,-1.185495l3.608028,-2.015857l2.06173,-1.228791l2.06173,-1.160239l2.061215,-1.259717l1.021587,-0.618519l0.964374,-0.597386l0.427809,-0.311837l0.664908,-0.704596l0.219059,-0.408223l0.234522,-0.92314l0.066491,-1.005609c0.025256,-1.029319 0.009793,-2.060184 0.009793,-3.090019l0,-9.79322l0.861288,-0.221121l0.767479,-0.294312l0.961282,-0.466467l1.533412,-0.862834l2.577163,-1.466406l3.608028,-2.140076l2.577163,-1.467952l2.494694,-1.476714l0.515948,-0.289673l0.251531,-0.148445l0.861288,-0.443787l0,-26.802496l0,-6.700624l-0.002577,-1.030865l-0.027833,-1.028804c-0.050512,-0.682948 -0.151537,-1.362804 -0.499454,-1.966891l-0.664908,-0.842732l-0.427809,-0.369565l-0.469559,-0.341216l-0.494815,-0.318537l-0.508217,-0.31029l-1.028288,-0.618519c-0.512855,-0.307198 -1.021587,-0.621612 -1.546298,-0.908192l-2.577163,-1.368989l-2.577163,-1.50094l-1.546298,-0.878813c-0.859742,-0.490692 -1.724122,-0.975199 -2.546753,-1.527227c-0.606664,-0.406676 -1.189103,-0.890152 -1.562276,-1.528773l-0.365957,-0.944788l-0.087624,-0.501001l-0.066491,-1.023649l-0.007216,-0.514917l-0.002577,-1.546298l0,-7.731489c-0.000515,-0.685835 0.013401,-1.373731 -0.009793,-2.05936c-0.022164,-0.644188 -0.039688,-1.323528 -0.293797,-1.928079l-0.205658,-0.407243l-0.597902,-0.692845l-0.368534,-0.297095c-0.407192,-0.289364 -0.827269,-0.553575 -1.250955,-0.818455c-0.800982,-0.500949 -1.612273,-0.98793 -2.429749,-1.4612l-2.575101,-1.463571l-1.546298,-0.889688l-4.123461,-2.276099l-4.123461,-2.435161l-1.546298,-0.878967l-2.577163,-1.479085l-2.06173,-1.172042c-1.551452,-0.900358 -3.070948,-1.855145 -4.638894,-2.727102c-0.509763,-0.283488 -1.020041,-0.572543 -1.546298,-0.824847c-0.493784,-0.23679 -1.004578,-0.476105 -1.546298,-0.583057l-1.030865,-0.07515l-1.030865,0.219574l-0.515433,0.198442c-0.527288,0.240655 -1.03602,0.50698 -1.546298,0.781499c-0.870566,0.468528 -1.719999,0.974477 -2.577163,1.465942l-2.577163,1.466767l-1.546298,0.915099l-1.030865,0.60852l-1.030865,0.552441l-1.030865,0.381781l-1.030865,0.084737c-0.545328,-0.041132 -1.055091,-0.241119 -1.546298,-0.466518l-1.030865,-0.552441l-1.030865,-0.60852l-1.546298,-0.915099l-2.577163,-1.466767l-2.06173,-1.182402c-0.510278,-0.283024 -1.020041,-0.572491 -1.546298,-0.824847c-0.652022,-0.312455 -1.329816,-0.608726 -2.06173,-0.658207l-0.515433,0l-1.030865,0.219574l-0.515433,0.198442c-0.527288,0.240655 -1.036535,0.506825 -1.546298,0.781499c-1.576708,0.84933 -3.095173,1.801746 -4.638894,2.708392l-2.577163,1.474292l-2.06173,1.18601l-1.546298,0.876132l-3.092596,1.802004l-2.06173,1.143436l-2.06173,1.187969l-2.06173,1.16529l-1.030865,0.59816l-2.061215,1.157713c-0.835516,0.459972 -1.676187,0.911594 -2.48954,1.410275c-0.443787,0.271942 -0.885513,0.551874 -1.307653,0.856288l-0.765933,0.603314l-0.326784,0.334103l-0.476775,0.778303l-0.141744,0.446622l-0.086077,0.476466l-0.065975,1.005403l-0.007216,0.513474l-0.002577,1.545886l0,8.246922l-0.002577,1.030865l-0.027833,1.028804c-0.050512,0.67934 -0.149475,1.356619 -0.499454,1.955551c-0.373173,0.638621 -0.955612,1.122097 -1.562276,1.528773c-0.822115,0.551513 -1.684949,1.040143 -2.546753,1.525681l-2.577163,1.427233l-2.577163,1.46589l-1.546298,0.851495l-1.030865,0.597386l-1.03035,0.602541l-0.513371,0.291219l-0.508217,0.291735l-0.494815,0.306682l-0.469559,0.334516l-0.796343,0.793766l-0.515433,0.938087l-0.234522,1.010248l-0.045874,0.513886l-0.029895,1.545782l-0.000515,2.06173l0,4.638894l0,27.317929z"/>
   <path stroke="null" id="svg_6" fill="#F2F0F0" d="m236.668261,103.668778l0.000515,6.700624c0.003608,0.68501 -0.013917,1.377236 0.055667,2.059669c0.069068,0.681917 0.201534,1.356103 0.551513,1.955551l0.646868,0.824692l0.86335,0.704596c0.477806,0.344824 0.990662,0.642229 1.492177,0.949942l2.575101,1.533927l2.06173,1.172094l2.06173,1.185495l1.030865,0.573161l1.030865,0.520587l0.515433,0.209266l1.030865,0.210297l0.514917,-0.025256l1.021587,-0.296374l0.974168,-0.507701l0.448426,-0.302559l0.798405,-0.699442l0.731914,-0.834485c0.395852,-0.447911 0.776757,-0.905615 1.246832,-1.28085l0.974168,-0.643775l0.508217,-0.223698l0.513371,-0.153083l1.03035,-0.119065l1.03035,0.119065l1.023649,0.376781l0.500485,0.289673l0.48193,0.356679l0.454096,0.409254l0.765417,0.936026l0.506155,1.010248l0.140713,0.513886l0.064945,0.514917l-0.101025,1.030865l-0.393791,1.028288l-0.644806,1.003032l-0.397399,0.469559l-0.435541,0.427809l-0.954066,0.664908l-0.502547,0.219059l-1.023649,0.234522l-0.514917,0.046389l-1.546298,0.052059l-1.028288,0.095355l-0.508217,0.106179l-0.964374,0.383997l-0.427809,0.290189l-0.368534,0.356679l-0.515433,0.86335l-0.146898,0.48193l-0.087624,0.500485l-0.066491,1.023649l-0.007216,0.514917l-0.002577,1.546298l0.000515,2.577163l0.009278,1.030865l0.066491,1.028804c0.073707,0.520587 0.194318,1.029319 0.453581,1.492693l0.296374,0.455642l0.796343,0.791705l0.964374,0.628828l1.021587,0.545328l1.03035,0.559244l1.030865,0.611303c0.689133,0.41647 1.359711,0.862834 2.06173,1.257656l2.06173,1.118489l2.577163,1.448366l2.06173,1.196835l2.577163,1.532381l2.577163,1.467952l2.06173,1.224152c0.51234,0.305652 1.020557,0.623673 1.546298,0.905615l1.030865,0.523164l0.515433,0.20205l1.030865,0.221636l0.515433,0c0.732945,-0.050512 1.413832,-0.347917 2.06173,-0.671093c0.708204,-0.353071 1.381875,-0.777788 2.06173,-1.181372l2.06173,-1.224152l3.010642,-1.693712l0.251531,-0.144321l0.861288,-0.442241l0,-44.842638c-0.986538,0.01134 -1.991116,-0.034534 -2.947759,0.255139c-0.624189,0.189164 -1.193227,0.518525 -1.778758,0.798405l-0.473683,0.207719l-0.992723,0.298435l-1.023649,0.0835l-0.514917,-0.049997l-0.514917,-0.111849l-1.021587,-0.426263c-0.860772,-0.488115 -1.598872,-1.214875 -2.057092,-2.095749l-0.363895,-1.021587l-0.081438,-0.514917l-0.031441,-0.514917l0.012886,-0.513886l0.05412,-0.509763l0.103602,-0.503062l0.383997,-0.961282l0.646868,-0.871597l0.409254,-0.391213l0.454096,-0.356679l0.48193,-0.308229l0.500485,-0.253593l1.023649,-0.306682l1.03035,-0.031957l0.515433,0.084016l0.515433,0.144321l0.515433,0.202565l0.515433,0.2438c0.510794,0.258747 1.010248,0.555121 1.543721,0.766448l0.505124,0.185556l0.961282,0.213905l0.515948,0.044327l1.112819,0.029895l0,-48.966099l-0.861288,-0.442241l-0.251016,-0.144373l-1.93648,-1.100036l-1.808653,-1.101686l-1.863289,-1.063904c-0.506155,-0.282199 -1.00664,-0.579604 -1.526711,-0.835568c-0.649961,-0.319929 -1.327754,-0.618777 -2.061215,-0.66898l-1.030865,0.075562l-0.515433,0.145971l-0.515433,0.20205l-0.515433,0.247356l-0.515433,0.275653l-1.030865,0.59816l-2.577163,1.531557l-2.06173,1.172042l-1.546298,0.891286l-2.06173,1.158126l-2.06173,1.152147l-2.577163,1.519289l-2.059669,1.106428l-2.432327,1.446459l-0.880874,0.522597l-0.897368,0.507443l-0.936026,0.561615l-0.456673,0.329258l-0.422139,0.374668l-0.662846,0.872576c-0.344824,0.618571 -0.448426,1.31157 -0.499454,2.006579l-0.027833,1.03035l-0.002577,1.030865l0,4.638894l0.002577,1.545782l0.027833,1.023649l0.133497,0.984992l0.146898,0.460797l0.515433,0.823146l0.796343,0.683464l0.964374,0.545843l1.021587,0.37575l1.03035,0.19071l1.545782,0.120096l0.513886,0.063914l0.509763,0.106179l0.990146,0.383997l0.902007,0.646868l0.397399,0.409254l0.349979,0.454096l0.533473,0.982415l0.289158,1.023649l0.054636,0.514917l-0.074222,1.03035l-0.140198,0.513886l-0.512855,1.010248l-0.796343,0.936026l-0.469559,0.409254l-0.494815,0.356679l-1.021587,0.512855l-0.514917,0.151537l-1.030865,0.103087l-0.514917,-0.048451l-1.023649,-0.306682l-0.500485,-0.253593l-0.482445,-0.308229l-0.873143,-0.745831c-0.39276,-0.392244 -0.701504,-0.84531 -1.025711,-1.291674l-0.630374,-0.844794l-0.358741,-0.382451l-0.401522,-0.342763l-0.442757,-0.309775c-0.473683,-0.272148 -0.951489,-0.537596 -1.480322,-0.692226l-1.028288,-0.185556l-0.515433,0.024225l-1.030865,0.286581l-1.030865,0.504609l-1.030865,0.589139l-1.030865,0.585531l-2.06173,1.107149l-1.546298,0.880874l-2.059669,1.197865l-1.492177,0.912831l-0.454096,0.317506l-0.765933,0.709235l-0.515433,0.855618c-0.20205,0.466982 -0.275241,0.980353 -0.326269,1.481869c-0.069583,0.681917 -0.052059,1.374659 -0.055667,2.059153l-0.000515,3.608028l0.002577,1.545782l0.007216,0.513371l0.066491,1.003032l0.087624,0.469559l0.146898,0.427294l0.515433,0.65563l0.368534,0.198957l0.897368,0.108241l0.494815,-0.086077l0.508217,-0.164938c1.040658,-0.427809 1.978746,-1.099933 3.090019,-1.349403c0.838609,-0.187617 1.717937,-0.149475 2.530774,0.135559l0.920047,0.446365l0.424201,0.296374l0.39276,0.338124l0.361834,0.37575l0.600479,0.851495l0.228852,0.468013l0.306682,0.990662l0.073707,0.509763l-0.039173,1.028804l-0.314414,1.028288l-0.265963,0.508732l-0.332454,0.496362l-0.832424,0.915408l-0.972106,0.724698l-0.508217,0.265448l-0.513371,0.19071l-1.03035,0.15463l-1.030865,-0.144321l-0.515433,-0.170608l-0.515433,-0.219574c-0.520072,-0.225759 -1.012825,-0.514917 -1.545267,-0.711812l-1.01901,-0.306682l-0.961282,-0.124219c-0.545328,-0.028864 -1.081378,-0.02371 -1.628767,-0.029895m60.305617,-55.151291l0,48.966099l1.112819,-0.029895l0.515948,-0.044327l0.961282,-0.213905l0.505124,-0.185556c0.533473,-0.211327 1.032927,-0.507701 1.543721,-0.766448l0.515433,-0.2438l0.515433,-0.202565l0.515433,-0.144321l0.515433,-0.084016l1.03035,0.031957l1.023649,0.306682l0.500485,0.253593l0.48193,0.308229l0.454096,0.356679l0.409254,0.391213l0.646868,0.871597l0.383997,0.961282l0.103602,0.503062l0.05412,0.509763l0.012886,0.513886l-0.031441,0.514917l-0.081438,0.514917l-0.363895,1.021587c-0.45822,0.880874 -1.196319,1.607634 -2.057092,2.095749l-1.021587,0.426263l-0.514917,0.111849l-0.514917,0.049997l-1.023649,-0.0835l-0.992723,-0.298435l-0.473683,-0.207719c-0.585531,-0.27988 -1.154569,-0.609241 -1.778758,-0.798405c-0.956643,-0.289673 -1.961221,-0.2438 -2.947759,-0.255139l0,44.842638l0.861288,0.442241l0.251531,0.144321l3.010642,1.693712l2.06173,1.224152c0.679856,0.403584 1.353526,0.8283 2.06173,1.181372c0.647899,0.323176 1.328785,0.620581 2.06173,0.671093l0.515433,0l1.030865,-0.221636l0.515433,-0.20205l1.030865,-0.523164c0.525741,-0.281942 1.033958,-0.599964 1.546298,-0.905615l2.06173,-1.224152l2.577163,-1.467952l4.123461,-2.435935l3.072494,-1.739585l1.418986,-0.801498l2.255018,-1.364866l2.016372,-1.129828l1.027773,-0.564399l1.003032,-0.603056l0.469559,-0.337093l0.796343,-0.773664l0.296374,-0.437087c0.347917,-0.603572 0.448942,-1.283943 0.499454,-1.966891c0.038142,-0.512855 0.026287,-1.03035 0.029895,-1.544236l0.000515,-2.577163l-0.002577,-1.546298l-0.007216,-0.514917l-0.066491,-1.023649l-0.087624,-0.500485l-0.146898,-0.48193l-0.515433,-0.86335l-0.368534,-0.356679l-0.427809,-0.290189l-0.964374,-0.383997l-0.508217,-0.106179l-1.028288,-0.095355l-1.546298,-0.052059l-0.514917,-0.046389l-1.023649,-0.234522l-0.502547,-0.219059l-0.954066,-0.664908l-0.435541,-0.427809l-0.397399,-0.469559l-0.644806,-1.003032l-0.393791,-1.028288l-0.101025,-1.030865l0.064945,-0.514917l0.140713,-0.513886l0.506155,-1.010248l0.765417,-0.936026l0.454096,-0.409254l0.48193,-0.356679l0.500485,-0.289673l1.023649,-0.376781l1.03035,-0.119065l1.03035,0.119065l0.513371,0.153083l0.508732,0.223698l0.973652,0.643775c0.470075,0.375235 0.850979,0.832939 1.246832,1.28085l0.731914,0.834485l0.798405,0.699442l0.448426,0.302559l0.973652,0.507701l1.022103,0.296374l1.03035,-0.039173l0.515433,-0.145867l1.030865,-0.457189l1.030865,-0.555121l2.06173,-1.181887l2.577163,-1.466406c0.863865,-0.501516 1.724638,-1.010248 2.574586,-1.533927c0.495846,-0.305652 1.007155,-0.598417 1.472591,-0.949942c0.41647,-0.314929 0.812837,-0.653053 1.092717,-1.100964c0.355649,-0.569038 0.449973,-1.218998 0.499454,-1.874113l0.027833,-1.023649l0.002577,-1.03035l0,-7.216057c-0.54172,0.017009 -1.09014,-0.005154 -1.628767,0.073707l-0.961282,0.209266l-0.505124,0.177824c-0.706143,0.264417 -1.350949,0.671609 -2.059153,0.931387l-1.030865,0.279364l-1.030865,-0.002577l-1.028288,-0.307198l-0.508732,-0.265448l-0.496362,-0.332454l-0.915408,-0.832424l-0.730368,-0.97159l-0.272664,-0.508732l-0.205658,-0.513371l-0.137621,-0.514917l-0.069583,-1.028804l0.199472,-1.01231l0.192772,-0.488115l0.246892,-0.468013l0.295343,-0.44121l0.70305,-0.786035l0.396883,-0.338124l0.873658,-0.545328l0.961282,-0.338124l0.503062,-0.085562l1.023649,0.002062l1.03035,0.234522l0.515433,0.20308l0.515433,0.2438l1.028288,0.531411l0.505124,0.235037l0.961282,0.318022l0.515948,0.081954l0.251531,0.042265l0.861288,0.031441l0,-8.762355c-0.000515,-0.855103 0.01804,-1.713298 -0.030411,-2.567885c-0.03608,-0.636044 -0.142259,-1.286004 -0.499454,-1.828755c-0.280395,-0.426778 -0.682948,-0.735007 -1.092717,-1.026742l-0.469559,-0.306167l-1.003032,-0.605118c-1.522073,-0.898914 -3.095688,-1.707113 -4.636316,-2.574071l-2.06173,-1.193742l-1.030865,-0.593778l-1.030865,-0.505124l-0.515433,-0.177824l-0.515433,-0.108756l-0.515433,-0.024225l-1.028288,0.185556l-0.508732,0.186071l-0.97159,0.506155l-0.442757,0.309775l-0.760263,0.725214l-0.630374,0.844794c-0.324207,0.44688 -0.632951,0.89943 -1.025711,1.291674l-0.873143,0.745831l-0.482445,0.308229l-0.500485,0.253593l-0.509763,0.187102l-1.028804,0.168031l-1.030865,-0.103087l-0.514917,-0.151537l-1.021587,-0.512855l-0.494815,-0.356679l-0.469559,-0.409254l-0.796343,-0.936026l-0.512855,-1.010248l-0.140198,-0.513886l-0.074222,-1.03035l0.054636,-0.514917l0.289158,-1.023649l0.532957,-0.982415l0.350494,-0.454096l0.397399,-0.409254l0.902007,-0.646868l0.990146,-0.383997l0.509763,-0.106179l0.513886,-0.063914l1.545782,-0.120096l1.03035,-0.19071l1.021587,-0.37575l0.964374,-0.545843l0.796343,-0.683464l0.515433,-0.823146l0.146898,-0.460797l0.133497,-0.984992l0.027833,-1.023649l0.002577,-1.545782l0,-4.638894l-0.002577,-1.030865l-0.027833,-1.03035c-0.051028,-0.695164 -0.15463,-1.387905 -0.499454,-2.006579l-0.296374,-0.455746l-0.788612,-0.791498l-0.456673,-0.329258l-0.469559,-0.293951l-0.920047,-0.517804l-1.325177,-0.738512l-1.418986,-0.823249l-1.526711,-0.903244l-2.061215,-1.158126l-1.546298,-0.927882l-1.030865,-0.59651l-2.577163,-1.428573l-2.577163,-1.477539l-2.06173,-1.172042l-2.06173,-1.224152c-0.51234,-0.305291 -1.021072,-0.623158 -1.546298,-0.905564l-1.030865,-0.523422l-0.515433,-0.203235l-0.515433,-0.149939l-1.030865,-0.095819l-1.030865,0.187721l-0.515433,0.189731l-0.514917,0.239367l-0.513886,0.276839l-0.509763,0.295085l-0.992723,0.590222l-1.373628,0.813713l-1.808653,1.103284l-1.93648,1.100036l-0.251016,0.144373l-0.861288,0.442241z"/>
   <path stroke="null" id="svg_7" fill="#F76E42" d="m275.841141,136.141033l0.859226,-0.337093l0.739646,-0.492754l0.827269,-0.793251l0.35771,-0.469044l0.513371,-1.003032c0.305136,-0.818507 0.29225,-1.714844 0.308229,-2.574586l0.002577,-1.546298l0,-2.06173l0,-8.246922l-0.000515,-2.577163l-0.009278,-1.028804l-0.066491,-1.010248l-0.234522,-0.938087l-0.219059,-0.416985l-0.296374,-0.37472l-0.796343,-0.623158l-0.469559,-0.265963c-0.667485,-0.343278 -1.349403,-0.65563 -2.03132,-0.97056l-1.546298,-0.70872l-1.546298,-0.721606l-1.03035,-0.461828c-0.512855,-0.240192 -1.03705,-0.458735 -1.516403,-0.764387l-0.469559,-0.322145l-0.427809,-0.370596l-0.664908,-0.871081c-0.51801,-0.925202 -0.508217,-2.009672 -0.527288,-3.036929l-0.002577,-2.06173l0.000515,-3.092596c0.003608,-0.514402 -0.008247,-1.032412 0.029895,-1.545782c0.051543,-0.696865 0.156692,-1.387029 0.499454,-2.008641l0.664908,-0.890668l0.427809,-0.401007l0.469559,-0.371627c0.486568,-0.375235 1.008186,-0.70872 1.516403,-1.053029l4.637863,-3.093111c0.509247,-0.344309 1.028288,-0.676763 1.516403,-1.050967c0.453065,-0.346886 0.912831,-0.711297 1.265903,-1.165909l0.515433,-0.879328l0.234522,-0.961282l0.045874,-0.503062l0.027833,-1.023649l0.002577,-1.545782l0,-3.092596l0,-8.246922c-0.000515,-0.686041 0.013401,-1.374143 -0.009793,-2.059669c-0.022679,-0.663877 -0.047935,-1.351464 -0.301013,-1.976169l-0.513371,-0.899945l-0.76851,-0.88139l-0.425232,-0.455642l-0.796343,-0.963344c-0.353071,-0.48193 -0.636044,-1.004578 -0.94118,-1.516918l-0.64893,-0.965921l-0.388636,-0.433479l-0.435025,-0.380389l-0.471621,-0.321063l-1.003547,-0.448581l-1.028288,-0.214008l-0.514917,-0.026236l-0.513886,0.019123l-1.012825,0.174938l-0.961282,0.347608l-0.447911,0.24916l-0.423686,0.303074l-0.391213,0.361834l-0.664908,0.865411l-0.447911,0.982415l-0.132466,0.509763l-0.100509,1.028804l0.020617,0.514917l0.186587,1.023649l0.413892,0.990146l0.296374,0.466467l0.350494,0.435541l0.397399,0.397399l0.902007,0.647383l0.989631,0.423686l0.507701,0.141744l1.00097,0.248954l0.469559,0.165969l0.796343,0.52471l0.515433,0.796343l0.146898,0.469559l0.087624,0.494815l0.066491,1.021587l0.007216,0.514917l0.002577,2.06173l0,3.092596c-0.001546,0.687072 0.001546,1.373113 -0.030411,2.059669l-0.133497,1.012825l-0.365957,0.961282l-0.664908,0.879328l-0.897368,0.795828l-1.003032,0.729853l-0.513371,0.346371l-1.03035,0.691195l-2.06173,1.418986l-1.030865,0.67934l-1.543721,1.001486l-1.003032,0.724183l-0.897368,0.795828l-0.664908,0.879328l-0.219059,0.472136l-0.146898,0.489146l-0.133497,1.012825l-0.020617,0.513886l-0.009278,1.03035l-0.000515,3.092596l0,8.246922l0.002062,1.546298l0.020617,1.028804l0.09484,1.010763l0.106179,0.483476l0.158753,0.459766l0.515433,0.811806c0.339155,0.391213 0.778819,0.676763 1.220029,0.936541c0.479352,0.282457 0.989631,0.508217 1.492177,0.745316c0.850979,0.401007 1.712267,0.782427 2.575101,1.157146l1.546298,0.662846c0.520587,0.234006 1.03602,0.480383 1.543721,0.741192l1.003032,0.533988l0.469559,0.287611l0.427809,0.317506l0.664908,0.757686l0.219059,0.442757l0.234522,0.97159l0.066491,1.022103l0.009793,2.061215l-0.000515,4.638894l-0.029895,1.546298l-0.133497,1.028288l-0.365957,1.003032l-0.296374,0.469559c-0.452034,0.605633 -1.06643,1.052513 -1.760718,1.341156l-1.019526,0.361318l-0.509247,0.180401l-0.982415,0.47626l-0.865411,0.667485l-0.361834,0.391213l-0.303074,0.423686l-0.443787,0.920047l-0.259778,0.992208l-0.087108,1.023649l0.026287,0.514917l0.080923,0.514917l0.326784,1.021587l0.575738,0.96489l0.380389,0.429355l0.904584,0.681402l1.003547,0.414408l0.513371,0.121127l0.514917,0.074738l1.028804,0.025772l1.01231,-0.139682l0.956128,-0.308744l0.44121,-0.219574l0.410284,-0.260293l0.713874,-0.641198l0.545843,-0.786035l0.34534,-0.897368l0.1603,-0.920047l0.04742,-0.760263l0.008247,-0.861288m31.956823,-24.225333l0,15.462979l0.000515,2.577163l0.029895,1.546298l0.133497,1.03035l0.364926,1.021587l0.295343,0.494815l0.35771,0.469044l0.827269,0.793251l0.739646,0.492754l0.859226,0.337093l0.008247,0.861288l0.04742,0.760263l0.1603,0.920047l0.34534,0.897368l0.545843,0.786035l0.713874,0.641198l0.410284,0.260293l0.44121,0.219574l0.956128,0.308744l1.01231,0.139682l1.028804,-0.025772l0.514917,-0.074738l0.513371,-0.121127l1.003547,-0.414408l0.904584,-0.681402l0.380389,-0.429355l0.575738,-0.96489l0.326784,-1.021587l0.080923,-0.514917l0,-1.030865l-0.213905,-1.03035l-0.448426,-1.021587l-0.321115,-0.494815l-0.380389,-0.469559l-0.433479,-0.428325l-0.966436,-0.674701c-0.480899,-0.272148 -1.017979,-0.421108 -1.533927,-0.60718l-0.508217,-0.193287l-0.494815,-0.238645l-0.469559,-0.304621l-0.796343,-0.798405l-0.296374,-0.469559l-0.365957,-1.003032l-0.133497,-1.028288l-0.029895,-1.546298l-0.000515,-4.638894l0.009793,-2.061215l0.066491,-1.022103l0.234522,-0.97159l0.219059,-0.442757l0.664908,-0.757686l0.427809,-0.317506l0.469559,-0.287611l1.003032,-0.533988c0.507186,-0.260809 1.023134,-0.507186 1.543721,-0.741192l1.546298,-0.662846c0.862834,-0.37472 1.724638,-0.75614 2.575101,-1.157146c0.502547,-0.237099 1.013341,-0.462858 1.492177,-0.745316c0.44121,-0.259778 0.880874,-0.545328 1.220029,-0.936541l0.515433,-0.811806l0.158753,-0.459766l0.106179,-0.483476l0.09484,-1.010763l0.020617,-1.028804l0.002062,-1.546298l0,-8.246922l-0.000515,-3.092596l-0.009278,-1.03035l-0.020617,-0.513886l-0.133497,-1.012825l-0.146898,-0.489146l-0.219059,-0.472136l-0.664908,-0.879328l-0.897368,-0.795828l-1.003032,-0.724183l-1.028288,-0.670578l-1.546298,-0.983961l-2.06173,-1.367443l-1.543721,-1.074162l-1.003032,-0.758201l-0.469559,-0.396883l-0.427809,-0.410284l-0.664908,-0.880874l-0.365957,-0.961282l-0.133497,-1.012825c-0.031957,-0.686556 -0.028864,-1.372597 -0.030411,-2.059669l0,-3.092596l0.002577,-2.06173l0.007216,-0.514917l0.066491,-1.021587l0.087624,-0.494815l0.146898,-0.469559l0.515433,-0.796343l0.796343,-0.52471l0.469559,-0.165969l1.00097,-0.248954l0.507701,-0.141744l0.989631,-0.423686l0.466467,-0.296889l0.832939,-0.747893l0.350494,-0.435541l0.296374,-0.466467l0.236584,-0.487599l0.291219,-1.01231l0.067522,-1.028804l-0.041235,-0.514917l-0.093293,-0.513886l-0.144321,-0.509763l-0.447911,-0.982415l-0.296374,-0.454096l-0.713874,-0.773149l-0.851495,-0.552235l-0.468013,-0.194834l-0.488115,-0.152774l-1.01231,-0.174938l-1.028804,0.007113l-0.514917,0.081181l-0.513371,0.132827l-1.005094,0.448581l-0.917986,0.701452l-0.760263,0.904584l-0.630374,1.001486l-0.646868,1.010248l-0.765933,0.963344l-0.409769,0.455642l-0.748408,0.88139l-0.507701,0.899945c-0.251531,0.625735 -0.278334,1.311776 -0.301013,1.976169c-0.023194,0.685525 -0.009278,1.373628 -0.009793,2.059669l0,8.246922l0,3.092596l0.002577,1.545782c0.018556,0.999939 0.004123,2.045752 0.527288,2.937966c0.280395,0.478837 0.675217,0.866442 1.092717,1.225183l0.469559,0.370081l0.494815,0.359772l1.021587,0.691195l4.637863,3.093111c0.508217,0.344309 1.029834,0.677794 1.516403,1.053029c0.461828,0.355649 0.91747,0.728306 1.265903,1.201989l0.515433,0.945303l0.234522,1.010763l0.045874,0.513886l0.027833,1.03035l0.002062,0.515433l0.000515,1.546298l0,2.06173l-0.002577,1.546298c-0.019071,1.027257 -0.009278,2.111727 -0.527288,3.036929l-0.296374,0.455127l-0.796343,0.78655l-0.964374,0.603056l-1.536505,0.71439l-3.608028,1.660724c-0.824692,0.375235 -1.646292,0.751501 -2.494694,1.070554l-0.767479,0.24483l-0.861288,0.190195m90.200709,205.657617l0,-9.277787l-0.001546,-3.091565c-0.007731,-0.660785 -0.01237,-1.322085 -0.080923,-1.979777l-0.102056,-0.516463l-0.02938,-0.251531l-0.301528,-0.861288l-0.861288,0.442241l-0.251531,0.143806l-1.982354,1.074677c-1.021587,0.53605 -2.057607,1.044266 -3.090019,1.559184c-1.019526,0.508217 -2.032351,1.03705 -3.092596,1.457128c-0.841701,0.333485 -1.70969,0.584501 -2.577163,0.841186c-1.193227,0.353071 -2.387999,0.700988 -3.608028,0.950458l-1.546298,0.272664c-0.85768,0.142775 -1.713813,0.287096 -2.577163,0.389152l-1.546298,0.124219l-0.515433,0.046904l-1.030865,0.132982c-0.686556,0.093809 -1.366412,0.204627 -2.06173,0.204627c-0.694803,0 -1.37569,-0.107725 -2.06173,-0.205142l-1.030865,-0.138136l-1.546298,-0.159784c-0.862834,-0.109787 -1.719999,-0.249985 -2.577163,-0.394821c-0.864381,-0.145352 -1.724638,-0.295343 -2.577163,-0.503578c-1.941635,-0.474198 -3.819871,-1.160754 -5.669759,-1.910193c-0.692741,-0.280395 -1.38239,-0.567491 -2.06173,-0.878813l-1.546298,-0.745831c-1.044782,-0.515433 -2.095749,-1.029319 -3.092596,-1.634437c-0.894276,-0.542751 -1.735462,-1.159208 -2.577163,-1.778758c-0.697896,-0.513886 -1.392184,-1.039628 -2.06173,-1.590625c-0.897884,-0.73913 -1.747317,-1.528773 -2.575101,-2.345734c-0.83964,-0.8283 -1.65557,-1.679795 -2.430265,-2.569432c-0.727275,-0.836032 -1.416924,-1.706597 -2.101934,-2.577163c-1.430326,-1.815869 -2.813747,-3.682251 -3.998726,-5.669759c-0.500485,-0.839124 -0.947365,-1.705567 -1.388575,-2.577163l-0.747377,-1.546298c-0.390698,-0.850464 -0.744285,-1.717422 -1.112819,-2.577163c-0.293281,-0.686041 -0.606149,-1.365896 -0.876235,-2.06173c-0.395852,-1.020041 -0.745316,-2.05503 -1.091171,-3.092596c-0.340701,-1.023649 -0.688103,-2.046783 -0.956128,-3.092596c-0.260293,-1.017979 -0.459766,-2.054514 -0.620065,-3.092596l-0.20875,-1.546298l-0.151537,-1.030865l-0.423686,-2.577163c-0.138651,-0.857164 -0.282973,-1.70969 -0.342763,-2.577163c-0.035049,-0.514402 -0.039173,-1.030865 -0.043812,-1.546298l-0.002062,-2.06173l0.002062,-2.06173c0.006185,-0.688618 0.019071,-1.37569 0.085562,-2.06173c0.067006,-0.691711 0.188648,-1.376721 0.301013,-2.06173l0.514917,-3.092596l0.429871,-2.577163c0.117519,-0.688618 0.226275,-1.381359 0.386059,-2.06173c0.164423,-0.698411 0.384513,-1.377751 0.599448,-2.06173l0.318537,-1.030865l0.468013,-1.546298l0.680371,-2.06173c0.177824,-0.519556 0.364926,-1.03705 0.571099,-1.546298c0.426778,-1.053544 0.938603,-2.0674 1.427748,-3.092596l0.972106,-2.06173c0.340701,-0.699958 0.704081,-1.38806 1.094263,-2.06173c0.407192,-0.702535 0.83964,-1.390122 1.295798,-2.06173c0.47626,-0.700988 0.980868,-1.381359 1.486508,-2.06173c0.778303,-1.047875 1.557122,-2.100903 2.40707,-3.092596c0.925202,-1.079831 1.92978,-2.089564 2.938481,-3.090534c0.835001,-0.828816 1.67361,-1.656085 2.576648,-2.411709c0.661815,-0.553575 1.361773,-1.056637 2.06173,-1.560215l1.030865,-0.728306c1.812777,-1.258171 3.695136,-2.422018 5.669759,-3.409587c1.009733,-0.505124 2.045752,-0.951489 3.092596,-1.374143c0.849433,-0.343278 1.70402,-0.677278 2.577163,-0.957674c0.848402,-0.272148 1.713298,-0.491723 2.577163,-0.706658c0.85201,-0.211843 1.707113,-0.428325 2.577163,-0.55409c1.026226,-0.147929 2.062761,-0.138651 3.092596,-0.241738l1.546298,-0.209266l1.030865,-0.124219l1.030865,-0.028349c0.694288,0.017009 1.37569,0.135043 2.06173,0.230398c0.515433,0.07113 1.027257,0.134528 1.546298,0.17267l1.546298,0.063914c0.518525,0.026287 1.032412,0.063398 1.546298,0.13659c1.043751,0.149475 2.064308,0.430902 3.092596,0.657692c1.031381,0.227306 2.07307,0.413892 3.092596,0.693257c0.875205,0.239161 1.726699,0.545328 2.577163,0.860257c0.691711,0.25617 1.378782,0.521618 2.06173,0.799951l1.030865,0.448426c0.867473,0.385028 1.730307,0.783458 2.577163,1.211782c0.710266,0.358741 1.392699,0.77418 2.06173,1.204566c1.069007,0.687072 2.093172,1.439088 3.09208,2.224092c1.014371,0.796859 2.011218,1.617428 2.925596,2.528197c0.696349,0.693257 1.331878,1.444758 1.971014,2.190589l1.242193,1.466406l0.818507,1.023649l0.754593,1.03035l0.705112,1.030865c0.561306,0.84531 1.116427,1.692681 1.652992,2.553969l0.588624,0.972106l0.144837,0.251531l0.536565,0.861288l0.861288,-0.241222l0.767479,-0.348948l0.961282,-0.569553l1.01901,-0.691195l1.545267,-1.064368l3.092596,-2.068947l1.545782,-1.057152l1.021072,-0.739646l0.956643,-0.77985l0.748924,-0.840671l0.236584,-0.450488l0.11855,-0.472136l-0.109272,-0.992208l-0.196895,-0.509763l-0.560791,-1.028804l-0.644291,-1.030865c-0.442241,-0.692226 -0.876235,-1.389091 -1.347856,-2.06173c-0.369565,-0.526772 -0.761809,-1.034989 -1.151992,-1.546298l-1.193742,-1.546298l-1.208174,-1.546298l-0.88139,-1.030865c-0.633467,-0.709751 -1.301467,-1.389091 -1.974107,-2.061215c-0.844279,-0.844279 -1.687526,-1.690619 -2.575101,-2.48954c-0.66697,-0.600479 -1.358165,-1.176217 -2.06173,-1.7334l-1.546298,-1.200958c-0.67367,-0.501516 -1.365381,-0.97726 -2.06173,-1.446819c-0.847371,-0.570584 -1.70402,-1.128282 -2.577163,-1.658662c-0.669547,-0.406676 -1.364866,-0.772634 -2.06173,-1.130859c-1.011794,-0.519556 -2.038021,-1.01901 -3.092596,-1.446304c-1.180856,-0.478321 -2.399854,-0.861288 -3.608028,-1.264356l-2.06173,-0.68501c-0.681402,-0.221121 -1.363835,-0.437087 -2.06173,-0.602025c-0.850464,-0.201019 -1.717937,-0.32163 -2.577163,-0.477806c-1.031896,-0.188133 -2.057092,-0.420078 -3.092596,-0.586562l-1.030865,-0.145352l-1.546298,-0.1603c-1.032412,-0.123704 -2.053999,-0.318537 -3.092596,-0.389152c-0.857164,-0.058759 -1.718452,-0.044843 -2.577163,-0.046389l-4.123461,0l-3.092596,0.000515c-0.860257,0.004123 -1.719999,0.004123 -2.577163,0.087108c-0.691711,0.067006 -1.376721,0.188133 -2.06173,0.301013c-1.032927,0.169577 -2.064308,0.342247 -3.092596,0.540689l-1.546298,0.307713c-0.689649,0.140198 -1.380329,0.278849 -2.06173,0.456673c-0.869019,0.227306 -1.719999,0.517494 -2.577163,0.785519l-1.546298,0.480383c-0.521102,0.171639 -1.035504,0.35771 -1.546298,0.558214c-0.872627,0.342763 -1.725153,0.731914 -2.577163,1.123128c-0.693772,0.318537 -1.383937,0.648414 -2.06173,0.999939l-2.577163,1.417955l-2.06173,1.122097l-0.515433,0.298951l-2.06173,1.289097c-0.865927,0.54842 -1.73907,1.087563 -2.577163,1.678249c-1.256109,0.884998 -2.430265,1.873082 -3.608028,2.858074c-0.692741,0.579346 -1.396822,1.148899 -2.06173,1.760718c-0.871597,0.801498 -1.721545,1.624644 -2.53129,2.490055c-0.92984,0.99427 -1.792159,2.047298 -2.664271,3.09208c-0.989115,1.18498 -1.985446,2.366351 -2.903947,3.608028c-0.622127,0.841186 -1.200443,1.713298 -1.790098,2.577163c-0.464405,0.680371 -0.932933,1.35765 -1.362288,2.06173c-0.308744,0.506155 -0.593778,1.026742 -0.879328,1.546298l-0.839124,1.546298c-0.546874,1.022103 -1.0721,2.054514 -1.587532,3.092596c-0.338124,0.681402 -0.668516,1.365896 -0.976229,2.06173c-0.746346,1.688042 -1.381875,3.421442 -2.014826,5.154326c-0.2505,0.685525 -0.515433,1.367443 -0.741192,2.06173l-0.629343,2.06173c-0.2505,0.856134 -0.504609,1.711236 -0.72109,2.577163c-0.255655,1.023649 -0.45925,2.058638 -0.667485,3.092596l-0.410284,2.06173c-0.097932,0.513371 -0.197926,1.027773 -0.265448,1.546298c-0.066491,0.514402 -0.106695,1.028288 -0.128858,1.546298l-0.065975,2.06173l-0.10154,1.030865l-0.220605,1.546298c-0.067006,0.514402 -0.104633,1.028288 -0.127312,1.546298l-0.019586,1.546298l-0.000515,1.546298c0.000515,1.029319 -0.024225,2.064823 0.045874,3.092596c0.035565,0.519041 0.101025,1.031381 0.17267,1.546298l0.209266,1.546298c0.114941,1.199927 0.048451,2.409132 0.177309,3.608028c0.131435,1.222606 0.45822,2.410163 0.722637,3.608028l0.437602,2.06173l0.37575,1.546298l0.587593,2.06173c0.202565,0.689133 0.402553,1.379813 0.629343,2.06173c0.288642,0.866442 0.615942,1.719999 0.92984,2.577163l0.569553,1.546298c0.332454,0.863865 0.675732,1.722576 1.030865,2.577163l0.67367,1.546298l0.710266,1.546298c0.505639,1.046328 1.062307,2.068431 1.610727,3.092596c0.370081,0.691195 0.739646,1.381875 1.130344,2.06173l0.915924,1.546298c0.313383,0.520587 0.632436,1.038597 0.966436,1.546298c0.579346,0.88139 1.20302,1.729276 1.830301,2.577163l1.557122,2.06173l1.625674,2.06173c0.420078,0.520587 0.841186,1.041174 1.280335,1.546298c0.775726,0.891698 1.597841,1.738554 2.430265,2.576648c0.841186,0.847371 1.689073,1.689588 2.575101,2.490055c0.670578,0.605633 1.366412,1.183433 2.06173,1.760202c0.846856,0.70305 1.690104,1.408677 2.577163,2.061215c1.004578,0.738615 2.053999,1.418471 3.092596,2.107604c0.850979,0.564399 1.699897,1.133436 2.577163,1.6566c0.843248,0.503062 1.715875,0.950973 2.577163,1.421563c1.026226,0.560275 2.032866,1.1556 3.092596,1.652477c0.674186,0.31596 1.366927,0.597386 2.06173,0.864381c1.359711,0.523164 2.734886,0.996847 4.123461,1.436511l1.546298,0.455642l1.030865,0.289673c0.855618,0.239676 1.706597,0.486568 2.577163,0.666454l1.546298,0.273695c0.68501,0.114426 1.370535,0.231945 2.06173,0.302044l2.577163,0.174216l2.577163,0.340701c0.681917,0.074738 1.376721,0.087108 2.06173,0.06546c0.517494,-0.016494 1.032927,-0.058244 1.546298,-0.12525l1.546298,-0.220605l1.030865,-0.10154c1.029319,-0.070614 2.063277,-0.020617 3.092596,-0.091747c0.693257,-0.048451 1.376205,-0.14896 2.06173,-0.258232l1.546298,-0.254624l1.030865,-0.188133l1.030865,-0.225759l1.546298,-0.382966c1.922048,-0.491723 3.832242,-1.059214 5.669759,-1.811746c0.695834,-0.285034 1.378782,-0.60151 2.06173,-0.915408c0.862319,-0.395337 1.722576,-0.790158 2.564277,-1.228276l1.47723,-0.803559l0.251531,-0.143806l0.861288,-0.442241m-354.102213,-127.311858l0,133.49705l17.524709,0l0,-133.49705l-17.524709,0m36.080284,0l0,14.947546l1.112819,0.269056l0.515948,0.097417l0.961282,0.102571l1.01901,0.038657l2.0607,0.007731l4.638894,0l17.009277,0l54.120426,0l19.58644,0l3.092596,0l1.545782,-0.002577l0.513371,-0.007216l1.003032,-0.066491l0.469559,-0.087624l0.796343,-0.365957l0.296374,-0.296374l0.219059,-0.368534l0.234522,-0.897368c0.097932,-0.844279 0.074738,-1.69835 0.076284,-2.546753l0,-10.824085l-109.271716,0m101.540227,132.981617l0.861288,0.301528l0.251531,0.02938l0.515948,0.10154l0.961282,0.06546c1.026226,0.021133 2.052968,0.017525 3.07971,0.017525l6.700624,0l1.546298,-0.000515c0.512855,-0.002062 1.026226,-0.000515 1.538566,-0.029895c0.63759,-0.03608 1.309714,-0.138136 1.853496,-0.499454l0.369565,-0.296374l0.59017,-0.796343l0.232976,-0.469559l0.403068,-1.003032l0.584501,-1.543721l1.231369,-3.092596l1.224668,-3.092596l0.759748,-2.06173l0.594294,-1.546298l1.235492,-3.092596l1.855557,-4.638894l1.025195,-2.577163l1.151992,-3.092596l0.78655,-2.06173l0.759748,-2.06173l0.60821,-1.546298c0.489661,-1.211782 1.022103,-2.404493 1.531866,-3.608028c0.288642,-0.682433 0.562852,-1.371051 0.831393,-2.06173l0.95922,-2.577163l0.78655,-2.06173l0.952519,-2.577163c0.789127,-2.073585 1.654539,-4.11676 2.456036,-6.185191l1.164878,-3.092596l0.876751,-2.06173c0.361318,-0.854587 0.714905,-1.712267 1.050967,-2.577163l1.151992,-3.092596l1.624644,-4.123461l0.965405,-2.577163l0.876751,-2.06173c0.361318,-0.854587 0.714905,-1.712267 1.050967,-2.577163l1.151992,-3.092596l1.624644,-4.123461l0.759748,-2.06173l0.594809,-1.546298l0.628828,-1.546298l0.653053,-1.546298l0.402037,-1.030865l0.742223,-2.06173l0.858195,-2.06173l0.628828,-1.546298l0.594809,-1.546298l0.759748,-2.06173l1.624644,-4.123461l0.759748,-2.06173l0.594809,-1.546298l0.628828,-1.546298l0.858195,-2.06173l0.939118,-2.577163l1.043751,-2.577163c0.385544,-1.020041 0.716451,-2.059669 1.065399,-3.092596c0.233491,-0.691195 0.477291,-1.378267 0.73243,-2.06173l0.593778,-1.546298l0.952519,-2.577163l0.785004,-2.06173l0.71439,-2.06173c0.336062,-0.999939 0.669547,-2.001425 0.980353,-3.010127l0.137621,-0.515948l0.074222,-0.251531l0.182463,-0.861288l-9.79322,0c-0.855618,0.000515 -1.714329,-0.01804 -2.569432,0.030411c-0.638621,0.03608 -1.308683,0.138651 -1.854011,0.499454c-0.574707,0.379874 -0.916439,0.963859 -1.223637,1.562276l-0.231945,0.494815l-0.450488,1.021587c-0.598417,1.361258 -1.164362,2.734886 -1.698866,4.122946l-0.765417,2.06173c-0.47059,1.216421 -1.011794,2.402431 -1.509187,3.608028l-1.255078,3.092596l-1.322085,3.092596l-1.255078,3.092596l-1.109211,2.577163c-0.35771,0.853041 -0.701504,1.712783 -1.030865,2.577163l-0.965405,2.577163l-0.876751,2.06173l-1.687526,4.123461l-1.109211,2.577163l-1.467952,3.608028l-1.096325,2.577163l-0.772634,2.06173c-0.325753,0.863865 -0.659238,1.723607 -1.010763,2.577163l-1.322085,3.092596l-1.467952,3.608028l-1.322085,3.092596l-1.255078,3.092596l-1.322085,3.092596c-0.35101,0.853556 -0.68501,1.713813 -1.010763,2.577163l-0.772634,2.06173l-1.096325,2.577163l-1.467952,3.608028l-1.322085,3.092596l-1.036535,2.577163l-1.855557,4.638894l-1.242708,3.092596l-1.322085,3.092596l-1.255078,3.092596l-1.322085,3.092596l-1.255078,3.092596l-1.309199,3.092596l-0.965405,2.577163c-0.329361,0.864381 -0.673155,1.724122 -1.030865,2.577163l-1.109211,2.577163l-1.467952,3.608028l-1.322085,3.092596l-1.242708,3.092596l-2.06173,5.154326l-1.027773,2.553969l-0.394821,0.972106l-0.107725,0.251531l-0.325238,0.861288m270.602128,-132.981617l0,28.864227l0,7.731489c0.000515,0.855103 -0.018556,1.713298 0.030411,2.56737l0.133497,0.964374l0.146898,0.427809l0.219059,0.368534l0.664908,0.515433l0.897368,0.234522l0.494815,0.045874l1.021587,0.027833l0.514917,0.002062l2.06173,0.000515l3.608028,0l2.577163,0l1.545782,-0.002577l1.021587,-0.027833l0.494815,-0.045874l0.469559,-0.087624l0.427809,-0.146898l0.664908,-0.515433l0.219059,-0.368534l0.234522,-0.897368l0.045874,-0.494815l0.029895,-1.536505l0.000515,-4.638894l0,-17.524709l51.543262,0l13.916681,0l2.06173,-0.000515l1.030865,-0.009278c0.793766,-0.035049 1.670002,-0.048451 2.355527,-0.520072l0.355649,-0.296374l0.515433,-0.796343l0.262871,-0.964374l0.097932,-1.021587l0.010309,-0.514917l0.010309,-0.515433l0,-1.546298l0,-3.092596l-0.005154,-2.576132l-0.041235,-1.01901l-0.046389,-0.505124l-0.15463,-0.972106l-0.046389,-0.251531l-0.221636,-0.861288l-89.169844,0m-194.3181,18.555574l-0.485538,0.861288l-0.10721,0.251531l-0.247408,0.515948c-0.349463,0.825723 -0.680886,1.658147 -1.003032,2.494694l-0.759748,2.06173l-0.78655,2.06173l-0.952519,2.577163l-0.401522,1.030865l-0.808714,2.06173c-0.313383,0.853041 -0.608726,1.711752 -0.885513,2.577163c-0.163392,0.511309 -0.344824,1.021587 -0.462343,1.546298c-0.114941,0.511825 -0.181948,1.020557 -0.167,1.546298c0.024741,0.883967 0.284519,1.741647 0.551513,2.577163c0.334516,1.047875 0.745831,2.07307 1.157146,3.092596l0.863865,2.06173l0.655115,1.546298l0.965405,2.577163l0.812322,2.06173l0.812322,2.06173c0.45255,1.202504 0.880874,2.413256 1.354557,3.608028l0.848402,2.06173l0.876751,2.06173l1.164878,3.092596l2.054514,5.154326l1.756079,4.638894c0.410284,1.035504 0.846856,2.058638 1.291674,3.07971l0.654084,1.47723l0.10721,0.251531l0.419047,0.861288l-0.861288,0.061852l-0.251531,-0.001546l-0.515948,0.006701l-2.494694,-0.061336l-3.608028,-0.00567l-15.462979,0l-3.608028,0l-2.06173,0.007731l-0.515433,0.012886l-1.028804,0.076799l-0.509763,0.079892l-0.501001,0.118034l-0.483476,0.165454l-0.881905,0.496877c-0.557698,0.428325 -0.975199,1.017979 -1.277242,1.647838l-0.230914,0.496877c-0.281426,0.676763 -0.52471,1.365896 -0.782427,2.051937c-0.712843,1.896277 -1.510733,3.759566 -2.19265,5.667182l-0.479352,1.46589l-0.212358,0.767995l-0.182463,0.861288c0.859742,0.159784 1.718452,0.341732 2.590049,0.428325c0.680886,0.067522 1.364866,0.078861 2.048845,0.085046l2.06173,0.002062l5.669759,0l18.040142,0l4.638894,0l3.090534,-0.00567l1.012825,-0.01804l0.489146,-0.007731l0.922109,0.03608l0.429355,0.081438l0.788096,0.383997l0.68501,0.698927l0.562852,0.91747l0.463374,1.008186l0.415954,1.028804l0.769541,2.06173c0.319568,0.86335 0.646353,1.723607 0.991177,2.577163l1.954521,4.638894l1.414863,3.608028l1.094779,2.577163l0.59584,1.546298l0.819538,2.06173l1.322085,3.092596c0.35771,0.853041 0.701504,1.712783 1.030865,2.577163l0.952519,2.577163c0.461828,1.213328 0.944788,2.422533 1.474653,3.607513c0.227306,0.509247 0.448942,1.028804 0.72109,1.516403l0.273179,0.469559l0.309775,0.427809l0.752532,0.664908c0.431417,0.26751 0.918501,0.38142 1.413832,0.453581l1.022103,0.066491l1.03035,0.009278l2.06173,0.000515l4.638894,0l3.608028,-0.000515l1.533412,-0.017009l0.961282,-0.06546l0.515948,-0.10154l0.251531,-0.02938l0.861288,-0.301528l-0.325238,-0.861288l-0.107725,-0.251531l-1.216421,-3.010642c-0.550997,-1.375174 -1.088594,-2.757049 -1.661755,-4.123461l-1.109211,-2.577163l-1.467952,-3.608028l-1.531866,-3.608028l-0.800982,-2.06173l-0.772634,-2.06173l-1.309199,-3.092596l-1.255078,-3.092596l-1.322085,-3.092596l-1.255078,-3.092596l-1.322085,-3.092596c-0.35101,-0.853556 -0.68501,-1.713813 -1.010763,-2.577163l-0.772634,-2.06173l-1.309199,-3.092596l-1.255078,-3.092596l-1.322085,-3.092596l-1.255078,-3.092596l-1.109211,-2.577163c-0.35771,-0.853041 -0.701504,-1.712783 -1.030865,-2.577163l-0.965405,-2.577163l-1.309199,-3.092596l-1.255078,-3.092596l-1.322085,-3.092596l-1.255078,-3.092596l-1.322085,-3.092596c-0.35101,-0.853556 -0.68501,-1.713298 -1.010763,-2.577163l-0.772634,-2.06173l-1.096325,-2.577163l-1.467952,-3.608028l-1.109211,-2.577163l-1.467952,-3.608028l-1.109211,-2.577163c-0.35771,-0.853041 -0.701504,-1.712783 -1.030865,-2.577163l-0.965405,-2.577163l-1.096325,-2.577163l-1.687526,-4.123461l-0.890668,-2.059153c-0.276787,-0.63759 -0.539658,-1.281881 -0.861803,-1.898854l-0.268025,-0.414408l-0.11958,-0.222151l-0.514402,-0.55976m-131.435319,13.401248l0,101.540227l17.009277,0l0,-69.583404l0,-21.132738l0,-5.669759c0,-1.026742 0.003608,-2.053484 -0.017525,-3.07971l-0.064945,-0.961282l-0.102056,-0.515948l-0.02938,-0.251531l-0.301528,-0.861288l-0.861288,0.222667l-0.251531,0.046389l-0.972106,0.15463l-1.010248,0.07113l-1.543721,0.020102l-2.577163,0.000515l-9.277787,0m325.753419,26.287064l0,29.895092l0,8.246922c0.000515,0.855103 -0.018556,1.713298 0.030411,2.56737l0.133497,0.964374l0.146898,0.427809l0.219059,0.368534l0.664908,0.515433l0.897368,0.234522l0.494815,0.045874l1.536505,0.029895l2.06173,0.000515l3.608028,0l2.577163,0l1.545782,-0.002577l1.021587,-0.027833l0.494815,-0.045874l0.469559,-0.087624l0.427809,-0.146898l0.664908,-0.515433l0.219059,-0.368534l0.234522,-0.897368l0.045874,-0.494815l0.029895,-1.536505l0.000515,-5.154326l0,-19.58644l45.358071,0l11.339518,0l1.546298,-0.000515c0.510278,-0.002062 1.025711,-0.000515 1.535989,-0.029895l0.963859,-0.133497l0.798921,-0.365957l0.293797,-0.296374l0.221636,-0.368534l0.231945,-0.897368c0.097932,-0.844279 0.077315,-1.69835 0.077315,-2.546753l0,-9.79322l-79.892057,0m-68.552539,8.246922l0,13.401248l28.348794,0l0,23.709901l0,14.432113l0,10.308652c0.000515,0.855103 -0.018556,1.713298 0.030411,2.56737l0.133497,0.964374l0.365957,0.796343l0.296374,0.296374l0.796343,0.365957l0.964374,0.133497l0.508217,0.020617l0.513371,0.007216l1.545782,0.002577l3.092596,0l2.06173,0l1.543721,-0.009793l1.003032,-0.066491l0.469559,-0.087624l0.427809,-0.146898l0.664908,-0.515433l0.219059,-0.368534l0.146898,-0.427809l0.087624,-0.469559l0.066491,-1.003032l0.009793,-2.574586l0,-9.79322l0,-35.564851l0,-10.824085c-0.000515,-0.855103 0.018556,-1.713298 -0.030411,-2.56737l-0.133497,-0.964374l-0.365957,-0.796343l-0.296374,-0.296374l-0.796343,-0.365957l-0.964374,-0.133497l-0.508217,-0.020617l-0.513371,-0.007216l-1.03035,-0.002577l-1.546298,0l-5.154326,0l-31.956823,0m69.378778,52.073127l-0.296374,0.296374l-0.219059,0.368534l-0.234522,0.897368l-0.066491,1.003032l-0.009278,1.028288l-0.000515,5.154326l0.000515,2.06173l0.009278,1.028288l0.066491,1.003032l0.087624,0.469559l0.146898,0.427809l0.515433,0.664908l0.796343,0.365957l0.964374,0.133497l1.536505,0.029895l4.123461,0.000515l14.432113,0l45.873504,0l15.978411,0l2.06173,0l1.546298,-0.009793l0.999939,-0.066491l0.469044,-0.087624l0.798921,-0.365957l0.293797,-0.296374l0.221636,-0.368534l0.231945,-0.897368l0.067006,-1.003032l0.010309,-1.028288l0,-5.154326l0,-2.06173l-0.010309,-1.028288l-0.067006,-1.003032l-0.087624,-0.469559l-0.144321,-0.427809l-0.515433,-0.664908l-0.798921,-0.365957l-0.963859,-0.133497l-1.535989,-0.029895l-4.123461,-0.000515l-14.432113,0l-45.873504,0l-15.978411,0l-2.06173,0l-1.543721,0.009793l-1.003032,0.066491l-0.469559,0.087624l-0.796343,0.365957m-333.280282,34.519554l-0.230914,0.861288l-0.61955,2.747771l-0.587078,2.576132l-0.732945,3.608028l-0.703566,3.092596l-0.424716,2.06173l-0.412346,2.06173l-0.307198,1.546298c-0.09587,0.514917 -0.187102,1.026742 -0.255139,1.545782l-0.04175,0.513886l0.059275,1.010248l0.316476,0.936026l0.598417,0.765933l0.832424,0.514917l0.475229,0.157207l0.496877,0.100509l0.508217,0.048451l1.025711,-0.028349c0.797374,-0.087624 1.659693,-0.294312 2.268934,-0.849948l0.515433,-0.711812l0.146898,-0.380905l0.131951,-0.70872l0.031957,-0.851495l-3.092596,0l0.007731,-0.861288c0.018556,-0.578831 0.062883,-1.1556 0.146898,-1.728761c0.10154,-0.69068 0.266479,-1.368989 0.422655,-2.048845l0.344824,-1.546298l0.933448,-4.638894l0.424716,-2.06173l0.477291,-2.06173c0.298951,-1.338063 0.587078,-2.68025 0.762325,-4.040476l0.066491,-0.767995l0.021648,-0.861288l-3.608028,0m12.885816,0l-0.230914,0.861288l-0.61955,2.747771l-0.587078,2.576132l-0.732945,3.608028l-0.703566,3.092596l-0.424716,2.06173l-0.412346,2.06173l-0.307198,1.546298c-0.09587,0.514917 -0.187102,1.026742 -0.255139,1.545782l-0.04175,0.513886l0.059275,1.010248l0.316476,0.936026l0.598417,0.765933l0.832424,0.514917l0.475229,0.157207l0.496877,0.100509l0.508217,0.048451l1.025711,-0.028349c0.797374,-0.087624 1.659693,-0.294312 2.268934,-0.849948l0.515433,-0.711812l0.146898,-0.380905l0.131951,-0.70872l0.031957,-0.851495l-3.092596,0l0.007731,-0.861288c0.018556,-0.578831 0.062883,-1.1556 0.146898,-1.728761c0.10154,-0.69068 0.266479,-1.368989 0.422655,-2.048845l0.344824,-1.546298l0.933448,-4.638894l0.424716,-2.06173l0.477291,-2.06173c0.298951,-1.337548 0.587078,-2.68025 0.762325,-4.040476l0.066491,-0.767995l0.021648,-0.861288l-3.608028,0m12.885816,0c-0.235553,0.83397 -0.472652,1.666909 -0.68501,2.507064l-0.177309,0.755624l-0.168546,0.860772l4.123461,0c0.155661,-0.834485 0.319568,-1.664847 0.428325,-2.507064l0.06546,-0.755624l0.021648,-0.860772l-3.608028,0m231.944681,4.123461l4.123461,0c0.155661,-0.834485 0.319568,-1.664847 0.428325,-2.507064l0.06546,-0.755624l0.021648,-0.860772l-1.110242,0.009793l-0.944273,0.066491c-0.443272,0.07113 -0.886029,0.174216 -1.250955,0.453581l-0.553059,0.662331l-0.188133,0.4175l-0.147929,0.45925l-0.225759,0.944273l-0.218543,1.110242m-326.784284,-3.608028c-0.140816,0.544297 -0.291477,1.080347 -0.412449,1.629283l-0.726966,3.525044l-0.703566,3.092596l-0.842732,4.123461l-0.813765,3.608028l-0.842732,4.12243l-0.643466,2.747771l-0.16865,0.861288l4.123461,0l0.230656,-0.861288l0.620065,-2.747771l0.587026,-2.576132l0.842526,-4.123461l0.703566,-3.092596l0.842732,-4.123461l0.593778,-2.576132c0.264417,-1.198896 0.500485,-2.403978 0.733976,-3.609059l-4.123461,0m205.142185,0l-0.168546,0.861288l-0.753562,3.262173l-0.732945,3.608028l-0.703566,3.092596l-0.842732,4.123461l-0.703566,3.092596l-0.319053,1.546298c-0.100509,0.508217 -0.196895,1.019526 -0.265963,1.533412c-0.076799,0.574192 -0.123188,1.14993 -0.141229,1.728761l-0.007731,0.861288l4.123461,0c0.858711,-0.001546 1.719999,0.012886 2.577163,-0.045874c1.039628,-0.071645 2.066369,-0.254108 3.092596,-0.42884c0.866442,-0.147414 1.737008,-0.282973 2.577163,-0.549967c1.29322,-0.411315 2.516858,-1.06076 3.605967,-1.868443c1.056121,-0.783973 1.994724,-1.711752 2.765811,-2.778697c0.574707,-0.795313 1.034473,-1.675156 1.421563,-2.575101c0.287611,-0.669032 0.526772,-1.355072 0.703566,-2.06173c0.127827,-0.510278 0.213905,-1.028804 0.304621,-1.546298l0.170093,-1.030865l0.138136,-1.030865l0.034019,-1.030865c-0.016494,-0.522133 -0.102056,-1.032412 -0.187102,-1.546298l-0.103087,-0.515433l-0.260809,-1.030865l-0.17267,-0.514917l-0.466467,-1.023649l-0.636559,-0.984476l-0.37575,-0.45925l-0.410284,-0.42317l-0.909223,-0.720575l-0.990662,-0.55409l-0.509763,-0.225244l-1.028804,-0.35771l-0.515433,-0.134012l-1.030865,-0.177309c-0.51234,-0.063914 -1.030865,-0.076799 -1.546298,-0.087624l-1.546298,-0.007731l-6.185191,0m170.092766,17.009277l-0.837578,0.559244l-0.674186,0.624189l-0.696865,0.825723l-0.485538,0.739646l-0.398429,0.859226l0.861288,0.647899l0.767479,0.504093l0.961282,0.556667l1.01901,0.493269c0.493269,0.224729 1.021072,0.390698 1.545267,0.525741c1.011794,0.260293 2.050906,0.341732 3.092596,0.355649c0.516463,0.006701 1.030865,-0.010824 1.546298,-0.037111l0.515433,-0.043296l1.030865,-0.151537l1.030865,-0.237099l1.030865,-0.3273l1.028804,-0.453065l1.010248,-0.623673l0.482445,-0.382451l0.870566,-0.881905l0.36905,-0.483476l0.316476,-0.501001l0.265963,-0.509763l0.219059,-0.513886l0.316476,-1.03035l0.171639,-1.030865l0.032988,-0.515433l-0.054636,-1.028804l-0.257716,-1.01231l-0.224729,-0.487599l-0.646868,-0.904069l-0.409254,-0.403068l-0.936026,-0.687072l-0.500485,-0.284003l-1.023649,-0.47059c-0.675217,-0.279364 -1.373628,-0.493269 -2.061215,-0.7381l-1.028804,-0.369565l-0.509247,-0.211843l-0.975714,-0.530896l-0.440695,-0.330908l-0.689133,-0.769541l-0.317506,-0.838093l0.006185,-0.424716l0.11288,-0.426778l0.216997,-0.422139l0.683979,-0.796343l0.908192,-0.627797l1.004578,-0.375235l1.028288,-0.126796l0.515433,0.013917l0.515433,0.05979l1.030865,0.234522c0.705627,0.204627 1.372082,0.514402 2.038536,0.817992l0.456158,0.217513l0.515948,0.215451l0.251531,0.121642l0.861288,0.276787l0.614396,-0.837578l0.560275,-0.70872l0.148445,-0.193287l0.738615,-0.837578l-0.55976,-0.800467l-0.222151,-0.19638l-0.835516,-0.712843l-0.969013,-0.533473l-1.022103,-0.36338l-1.03035,-0.24483l-1.030865,-0.151537l-1.030865,-0.069068c-0.513886,-0.020617 -1.032412,-0.020102 -1.546298,0.000515c-0.517494,0.020617 -1.035504,0.058759 -1.546298,0.148445l-1.030865,0.237099l-0.515433,0.164938l-1.03035,0.418016l-1.023649,0.55409l-0.98293,0.720575l-0.870566,0.882421l-0.36905,0.483476l-0.316476,0.501001l-0.265963,0.509763l-0.396368,1.028804l-0.139167,0.515433l-0.103602,0.515433l-0.101025,1.030865l0.054636,1.03035l0.100509,0.513886l0.157207,0.509763l0.514917,0.98293l0.356679,0.455127l0.86335,0.785004l0.982415,0.589655l1.023649,0.436571l2.061215,0.725214l1.028288,0.397914l1.003032,0.489146l0.467497,0.29792l0.422139,0.337093l0.353587,0.383482l0.420078,0.874174l0.041235,0.469044l-0.2505,0.91747l-0.618519,0.782427l-0.407707,0.316476l-0.453581,0.265963l-0.982415,0.394306l-1.023649,0.225759l-0.514917,0.046904l-0.515433,0l-0.515433,-0.046389l-0.515433,-0.090201l-0.515433,-0.128343l-1.028288,-0.355133l-1.003032,-0.469559l-0.895822,-0.564914l-0.414408,-0.378843l-0.222151,-0.172154l-0.55976,-0.743254m-341.216398,-16.493844l-0.09484,0.861288l-0.048966,0.251531l-0.082985,0.516463l-0.288127,1.453005l-0.353071,1.726184l-0.162877,0.861288l-2.06173,0l-0.222667,0.847887l-0.14329,0.698411l-0.098448,0.698411l-0.051028,0.847887l2.06173,0l-0.323176,0.861288l-0.053605,0.251531l-0.143806,0.516463l-0.511825,2.494178l-0.333485,1.546298l-0.360803,1.546298c-0.192772,0.855103 -0.380389,1.712267 -0.525741,2.577163c-0.111333,0.663877 -0.199988,1.372082 -0.055151,2.039051l0.345855,0.936026l0.639136,0.765933l0.86335,0.514917l0.982415,0.257716l0.509763,0.048451l1.027773,-0.026287c0.945819,-0.085046 1.846795,-0.37472 2.747771,-0.654599l0.861288,-0.273179l0,-3.092596l-0.859226,0.094324l-0.240707,0.04742l-0.506155,0.07783l-0.902007,0.154114l-0.240707,0.04742l-0.859226,0.094324c0.01134,-0.545843 0.004123,-1.084986 0.046389,-1.629283c0.037627,-0.491723 0.102571,-0.978807 0.179886,-1.46589l0.188648,-1.028288l0.435541,-2.06173l0.456673,-2.048845l0.084531,-0.505124l0.108241,-0.972106l0.024741,-0.251531l0.021648,-0.861288c0.543781,-0.006701 1.076739,0 1.618974,-0.030411l0.435541,-0.045874l0.876751,-0.234006l0.662331,-0.503578l0.365957,-0.726245l0.088139,-0.470075l0.075769,-1.082409l-3.092596,0l0.096386,-0.861288l0.05309,-0.251531l0.090201,-0.516463l0.551513,-2.411194l0.14329,-0.767995l0.096386,-0.861288l-4.123461,0m138.135943,0l-0.096386,0.861288l-0.14329,0.767995l-0.551513,2.411194l-0.090201,0.516463l-0.05309,0.251531l-0.096386,0.861288l-1.03705,0.162361l-0.428325,0.148445l-0.594809,0.503062l-0.354102,0.726245l-0.13092,0.701504l-0.031957,0.850979l2.06173,0l-0.323176,0.861288l-0.053605,0.251531l-0.145352,0.516463l-0.328846,1.46589l-0.476775,2.059153l-0.424716,2.06173c-0.172154,0.85768 -0.356164,1.714329 -0.49997,2.577163l-0.11958,1.028804l0.000515,0.509763l0.197411,0.982415l0.496877,0.86335l0.763871,0.646868l0.936026,0.381936l0.500485,0.100509l0.509763,0.048451l1.027773,-0.026287c0.945819,-0.085046 1.846795,-0.37472 2.747771,-0.654599l0.861288,-0.273179l0,-3.092596l-0.859226,0.094324l-0.240707,0.04742l-0.506155,0.07783l-0.902007,0.154114l-0.240707,0.04742l-0.859226,0.094324l0.007731,-0.861288c0.01804,-0.578831 0.064429,-1.154569 0.141229,-1.728761c0.092262,-0.687587 0.23246,-1.368474 0.366988,-2.048845l0.514402,-2.576132c0.13092,-0.658723 0.259778,-1.317446 0.366473,-1.979777l0.098963,-0.767995l0.050512,-0.861288l3.608028,0l0.222667,-0.847887l0.14329,-0.698411l0.098448,-0.698411l0.051028,-0.847887l-3.092596,0l0.09484,-0.861288l0.048966,-0.251531l0.082985,-0.516463l0.288127,-1.453005l0.353071,-1.726184l0.162877,-0.861288l-4.123461,0z"/>
   <path stroke="null" id="svg_8" fill="#F2F0F0" d="m258.831864,347.468409l-0.051028,0.861288l-0.104117,0.767995c-0.180401,1.011794 -0.436571,2.006064 -0.657177,3.009611l-0.952519,4.638894l-0.593778,2.577163c-0.218543,0.997878 -0.422139,2.000909 -0.584501,3.009611l-0.098963,0.767995l-0.050512,0.861288c0.862319,-0.002577 1.729276,0.015978 2.590049,-0.045874c0.862834,-0.062883 1.718968,-0.192256 2.564277,-0.376266l1.030865,-0.2505l0.515433,-0.158753l1.028804,-0.432963l0.509763,-0.286065l0.984476,-0.71439l0.883967,-0.881905l0.387605,-0.483476l0.655115,-1.010763l0.515433,-1.028804l0.383482,-1.030865l0.139682,-0.515433l0.207204,-1.030865c0.086077,-0.510278 0.155661,-1.029319 0.180917,-1.546298c0.025256,-0.517494 0.007731,-1.031896 -0.056698,-1.546298l-0.187617,-1.03035l-0.141744,-0.513371l-0.183494,-0.508732l-0.237099,-0.496362l-0.654084,-0.915408l-0.863865,-0.73243l-0.982415,-0.497392l-0.509763,-0.164938l-1.028804,-0.197926l-0.515433,-0.048966l-1.028288,-0.040719l-1.010248,-0.007216l-2.084925,-0.000515z"/>
   <path stroke="null" id="svg_9" fill="#F76E42" d="m63.998332,352.622735l0.223182,-0.837578l0.148445,-0.70872l0.044843,-0.193287l0.098963,-0.837578l-3.608028,0l-0.168546,0.861288l-0.753562,3.262173c-0.329361,1.544752 -0.611303,3.098266 -0.95922,4.638894l-0.477291,2.06173l-0.63089,3.091565l-0.391729,1.979777l-0.082985,0.516463l-0.048966,0.251531l-0.09484,0.861288c0.543781,-0.006701 1.076739,0 1.618974,-0.030411l0.896337,-0.133497l0.803044,-0.365957l0.58347,-0.664908l0.384513,-0.897368c0.206173,-0.670062 0.374204,-1.348372 0.532442,-2.03132l0.646868,-3.092596c0.148445,-0.692226 0.28555,-1.391668 0.520072,-2.06173c0.254108,-0.725214 0.596871,-1.41744 1.051483,-2.039567l0.80459,-0.942726l0.45925,-0.422139l0.483476,-0.380389l1.010248,-0.588624l1.019526,-0.280395l0.494815,0.013917l0.895306,0.365957l0.362865,0.336578l0.476775,0.876751l0.131435,1.001486l-0.030926,0.513371l-0.1603,1.03035l-0.304621,1.546298l-0.418016,2.06173l-0.344824,1.546298c-0.156176,0.679856 -0.321115,1.358165 -0.422655,2.048845c-0.084016,0.573161 -0.128343,1.14993 -0.146898,1.728761l-0.007731,0.861288l3.608028,0c0.140713,-0.544297 0.291735,-1.080347 0.412346,-1.629283l0.618519,-3.009611l0.618519,-3.092596l0.411831,-2.06173l0.198957,-1.030865c0.14896,-0.850464 0.290189,-1.710205 0.27421,-2.577163l-0.076799,-1.028288l-0.104117,-0.508732l-0.158753,-0.496362l-0.515433,-0.915408l-0.765933,-0.730368l-0.936026,-0.478837l-1.010248,-0.213905l-0.513886,-0.014948l-1.03035,0.113911l-1.030865,0.239161l-0.515433,0.152053l-1.028288,0.38142c-0.509247,0.22009 -0.990662,0.484507 -1.466406,0.767995l-0.767479,0.514917l-0.861288,0.671093m45.358071,10.308652l-0.847887,-0.273695l-1.396822,-0.483476l-0.847887,-0.273695l-0.843763,0.914893l-0.419047,0.377297l-0.858195,0.546359l-0.979837,0.394821l-1.021072,0.177309l-1.009733,-0.079377l-0.937572,-0.363895l-0.415439,-0.288642l-0.68501,-0.763356c-0.293281,-0.411831 -0.479352,-0.88809 -0.660269,-1.356103l-0.152568,-0.510278l-0.079892,-0.249469l-0.184525,-0.861288l3.609059,0l1.545267,-0.002062l1.030865,-0.018556l1.030865,-0.076284l0.515433,-0.078346l1.03035,-0.264932l0.513371,-0.192772l0.508217,-0.237099l0.496877,-0.278334l0.915408,-0.685525l0.73243,-0.840155l0.277818,-0.466982l0.217513,-0.487599l0.262871,-1.01231l0.040719,-1.026742l-0.18504,-1.010763l-0.407707,-0.942726l-0.284003,-0.422655l-0.713874,-0.715936l-0.881905,-0.533473l-0.984476,-0.382451l-0.509763,-0.146898l-1.028804,-0.198957l-0.515433,-0.044327l-1.030865,0.029895c-0.520072,0.063398 -1.033442,0.145352 -1.546298,0.252562c-0.697896,0.146383 -1.395276,0.319053 -2.061215,0.5778c-0.531411,0.206688 -1.042205,0.45822 -1.526711,0.759232l-0.961282,0.683464l-0.449973,0.383997l-0.833455,0.833455l-0.739646,0.922109l-0.327815,0.489146l-0.544297,1.012825c-0.377812,0.81593 -0.61388,1.695258 -0.787066,2.575101c-0.134012,0.67934 -0.232976,1.367958 -0.23246,2.06173c0.000515,0.692741 0.092778,1.387029 0.247408,2.06173c0.243284,1.064368 0.631405,2.12616 1.337032,2.976623l0.80459,0.784488l0.942726,0.582439l1.010763,0.396368l0.513886,0.139682l1.03035,0.178855c0.511309,0.062367 1.031896,0.078861 1.546298,0.067522c0.692741,-0.014948 1.386514,-0.085562 2.06173,-0.245861l1.030865,-0.309775l0.515433,-0.206173l0.514917,-0.240707l1.021587,-0.58347l0.963859,-0.709235l0.793251,-0.781911l0.492754,-0.693772l0.337093,-0.83964m54.120426,2.577163l-0.184525,0.861288l-0.23246,0.765933c-0.18504,0.489146 -0.378328,0.975714 -0.660269,1.419501l-0.68501,0.901492l-0.415439,0.402553l-0.937572,0.678309l-1.010248,0.47626l-1.028804,0.237099l-0.515433,0.025772l-0.515433,-0.032988l-1.029834,-0.221121l-1.01901,-0.421108l-0.961282,-0.593263l-0.767479,-0.606664l-0.861288,-0.800467l-0.837578,0.483476l-0.193287,0.135043l-0.70872,0.444303l-0.837578,0.483476l0.242769,0.859226l0.128343,0.245346l0.239676,0.502031l0.643775,0.865411l0.86335,0.75614l0.48193,0.295343l0.500485,0.237614l0.509763,0.18504c0.509763,0.148445 1.020041,0.277303 1.544236,0.365957l1.030865,0.131435l0.515433,0.019586l1.030865,-0.070614c0.519041,-0.076284 1.033958,-0.166485 1.546298,-0.277303c0.522133,-0.113395 1.034473,-0.245346 1.546298,-0.398429l0.515433,-0.180917l1.028804,-0.469044l1.01231,-0.618004l0.488115,-0.355649l0.468013,-0.383997l0.851495,-0.833455l0.715936,-0.922109l0.302044,-0.489146l0.487084,-1.012825l0.189679,-0.513886l0.165454,-0.514917l0.409254,-1.546298c0.255139,-1.025195 0.474713,-2.057607 0.68501,-3.092596l0.631405,-3.092596l0.593778,-2.577163l0.424716,-2.06173c0.235553,-1.172609 0.485022,-2.344188 0.675217,-3.525044l0.098963,-0.767995l0.050512,-0.861288l-3.608028,0l0,2.577163l-0.861288,-0.829847l-0.767479,-0.642744l-0.961282,-0.63192l-0.505124,-0.2438l-1.028288,-0.325238c-0.85201,-0.182979 -1.724122,-0.118034 -2.577163,0.01804l-1.030865,0.211327l-0.515433,0.142259l-1.030865,0.402037c-0.957674,0.477806 -1.779789,1.164878 -2.523043,1.928233l-0.881905,1.005094l-0.72109,1.028288l-0.29792,0.515433l-0.481414,1.030865c-0.191741,0.509247 -0.36905,1.015402 -0.491723,1.546298c-0.194834,0.844794 -0.257716,1.711752 -0.257716,2.577163c0,0.518525 0.031957,1.03035 0.080407,1.546298l0.179371,1.03035l0.316991,1.023649l0.485538,0.984476l0.68501,0.881905l0.870566,0.713874l0.482445,0.284519l0.500485,0.230914l0.509763,0.182979l1.028804,0.219059l0.515433,0.04175l0.515433,0l1.030865,-0.126796c0.531411,-0.107725 1.029834,-0.293281 1.533412,-0.48863l0.961282,-0.444303l0.515948,-0.279364l0.251531,-0.125766l0.861288,-0.520587m26.802496,-2.577163l-0.847887,-0.273695l-1.396822,-0.483476l-0.847887,-0.273695l-0.861288,0.800467l-0.767479,0.604602l-0.961282,0.575223l-0.505124,0.20875l-1.026226,0.21442l-0.509763,0l-0.984476,-0.216997l-0.881905,-0.507701l-0.381936,-0.355133l-0.331939,-0.408223l-0.515948,-0.914893l-0.322145,-0.951489l-0.079377,-0.249469l-0.118034,-0.861288l3.609059,0l1.545267,-0.002062l1.030865,-0.018556l1.030865,-0.076284l0.515433,-0.078346l1.028804,-0.264932l0.509763,-0.192772l0.501001,-0.237099l0.483476,-0.278334l0.881905,-0.685525l0.713874,-0.840155l0.284003,-0.466982l0.407192,-0.990146l0.177824,-1.023649l-0.079377,-1.028288l-0.144837,-0.509763l-0.507701,-0.982415l-0.356164,-0.454096l-0.86335,-0.767995l-0.982415,-0.532957l-0.509763,-0.183494l-0.513886,-0.141744c-0.511825,-0.110818 -1.022103,-0.204111 -1.545782,-0.238645c-0.690164,-0.045874 -1.377236,0.006185 -2.06173,0.096386c-0.876235,0.115457 -1.752471,0.291735 -2.577163,0.615427c-0.534504,0.209781 -1.047875,0.471105 -1.538566,0.769025c-0.685525,0.415954 -1.332393,0.89943 -1.899885,1.466921c-0.838093,0.837578 -1.514341,1.85298 -2.017919,2.923534c-0.386059,0.820569 -0.63759,1.690104 -0.820053,2.576648l-0.177309,1.030865l-0.051028,0.515433l-0.018556,0.515433l0.084016,1.030865l0.219059,1.030865l0.151022,0.514917l0.174216,0.513886l0.453065,1.010248c0.364411,0.663362 0.831393,1.253017 1.428779,1.72206l0.942726,0.582439l0.501001,0.219059l1.023649,0.316991l0.514917,0.105148l1.030865,0.11958l1.030865,0.021648l0.515433,-0.021648l0.515433,-0.045874l1.030865,-0.17834l1.030865,-0.309775l0.515433,-0.206173l0.514917,-0.240707l1.021587,-0.58347l0.963859,-0.709235l0.793251,-0.781911l0.492754,-0.693772l0.337093,-0.83964m11.85495,-10.308652l0.160815,-0.837578l0.193803,-0.902007l0.160815,-0.837578l-3.608028,0c-0.140713,0.544297 -0.291735,1.080347 -0.412346,1.629283l-0.727275,3.525044l-0.703566,3.092596l-0.527803,2.577163l-0.424716,2.06173c-0.224213,1.002516 -0.476775,1.998332 -0.657177,3.009611l-0.104117,0.767995l-0.051028,0.861288c0.543781,-0.006701 1.076739,0 1.618974,-0.030411l0.896337,-0.133497l0.803044,-0.365957l0.581923,-0.664908l0.373173,-0.897368l0.13659,-0.494815l0.337093,-1.536505l0.704081,-3.092596l0.349463,-1.546298l0.322145,-1.03035c0.19638,-0.543266 0.498939,-1.062307 0.842732,-1.52465l0.834485,-0.942726l0.475229,-0.422139l0.496877,-0.380389l1.021072,-0.588624l1.021072,-0.280395l0.494815,0.013917l0.895306,0.365957l0.362865,0.336578l0.476775,0.876751l0.131435,1.001486l-0.030926,0.513371l-0.1603,1.03035l-0.207204,1.030865l-0.587078,2.577163c-0.306167,1.356103 -0.596356,2.718907 -0.762325,4.100267c-0.048966,0.40513 -0.067522,0.81593 -0.080407,1.223637l-0.007731,0.861288l3.608028,0l0.168546,-0.861288l0.643775,-2.747771l0.424716,-2.0607l0.515433,-2.577163l0.507701,-2.577163c0.14896,-0.850464 0.290189,-1.710205 0.27421,-2.577163l-0.076799,-1.028288l-0.104117,-0.508217l-0.158753,-0.495331l-0.515433,-0.904584l-0.765933,-0.701504l-0.936026,-0.448426l-1.010248,-0.213905l-0.513886,-0.026802l-1.03035,0.079892l-1.030865,0.219059l-0.515433,0.147929l-1.028288,0.379874c-0.509247,0.219574 -0.990662,0.484507 -1.466406,0.767995l-0.767479,0.514917l-0.861288,0.671093m100.509362,0l0.160815,-0.837578l0.193803,-0.902007l0.160815,-0.837578l-3.608028,0c-0.289158,1.027773 -0.5778,2.052968 -0.811806,3.095173l-0.425232,2.059153c-0.207204,1.032412 -0.412346,2.065339 -0.644806,3.092596l-0.476775,2.06173l-0.63089,3.092596c-0.165454,0.830362 -0.328331,1.659693 -0.469044,2.494178l-0.062883,0.516463l-0.03608,0.251531l-0.050512,0.861288l1.110242,-0.009793l0.944273,-0.066491l0.878813,-0.234522l0.372142,-0.219059l0.308744,-0.296374c0.307198,-0.35771 0.452034,-0.825208 0.587593,-1.265903l0.130404,-0.494815l0.24483,-1.021587l0.358741,-1.545782l0.424716,-2.06173l0.339155,-1.546298l0.332454,-1.03035l0.533473,-1.023649c0.460281,-0.70872 1.050452,-1.332909 1.70402,-1.865866l1.009733,-0.704081l0.51234,-0.264932l1.009733,-0.280395l0.933964,0.139682l0.404099,0.240192l0.343278,0.336578l0.447911,0.876751l0.097932,0.493784l0.028864,0.507701l-0.02938,0.513371l-0.150506,1.03035l-0.301013,1.546298l-0.54172,2.577163l-0.476775,2.059153l-0.503062,2.233885l-0.230914,0.861288l0.860772,0.301528l0.249469,0.02938l0.506155,0.10154l0.890668,0.06546l1.616397,0.017525l0.162877,-0.861288l0.661815,-3.262173l0.830362,-4.123461l0.344824,-1.546298c0.116488,-0.514402 0.245346,-1.026742 0.338124,-1.546298c0.121127,-0.678825 0.208235,-1.371051 0.19638,-2.06173l-0.076799,-1.028288l-0.104117,-0.508217l-0.158753,-0.495331l-0.515433,-0.904584l-0.765933,-0.701504l-0.936026,-0.448426l-1.010248,-0.213905l-0.513886,-0.026802l-1.03035,0.079377l-1.030865,0.213905c-0.522133,0.143806 -1.040658,0.289158 -1.543721,0.492238l-0.505124,0.213905l-0.961282,0.514917l-0.767479,0.528834l-0.861288,0.737584m27.833362,12.885816l0.573161,0.894791l0.322661,0.35101l0.755109,0.445849l0.865927,0.253077l0.747377,0.093293l0.859226,0.02371c0.096901,-0.545328 0.20308,-1.081378 0.279364,-1.629283l0.069068,-0.960766c0.01804,-0.683464 -0.066491,-1.365381 -0.05412,-2.048845c0.009278,-0.521618 0.065975,-1.030865 0.140198,-1.546298l0.088654,-0.515433l0.301528,-1.546298l0.424716,-2.06173l0.593778,-2.577163c0.218543,-0.997878 0.421624,-2.000909 0.584501,-3.009611l0.098963,-0.767995l0.050512,-0.861288c-0.544297,0.006701 -1.076739,0 -1.618974,0.030411l-0.894791,0.132466l-0.783973,0.354102l-0.514402,0.594809l-0.14896,0.428325l-0.162361,1.03705l-0.861288,-0.829847l-0.767479,-0.642744l-0.961282,-0.63192l-0.505124,-0.2438l-1.028288,-0.325238c-0.848402,-0.181948 -1.729276,-0.126796 -2.577163,0.025256l-1.030865,0.242769l-0.514917,0.170608l-0.513886,0.211843l-1.01231,0.552544l-0.488115,0.338639l-0.909223,0.786035c-0.712328,0.708204 -1.277242,1.543205 -1.777727,2.409648l-0.543781,1.028804l-0.23813,0.515433l-0.373689,1.030865c-0.289158,1.00664 -0.324723,2.051937 -0.324723,3.092596c0,1.220029 0.044843,2.461706 0.515948,3.605451l0.515433,1.005094l0.331939,0.475229l0.381936,0.440179l0.422655,0.394306l0.942726,0.616457l1.010763,0.383997l1.028804,0.195864l0.515433,0.043296l0.515433,0.014948l0.515433,-0.014948l1.030865,-0.11958c0.525741,-0.097932 1.036535,-0.247408 1.533412,-0.444303l0.961282,-0.444303l0.515948,-0.295343l0.251531,-0.137621l0.861288,-0.564399m17.524709,-13.401248l0.162361,-0.770056l0.073707,-0.260809l0.279364,-1.030865l-1.110242,0.009793l-0.944273,0.066491l-0.878813,0.234522l-0.372142,0.219059l-0.308744,0.296374l-0.435025,0.796343l-0.282973,0.964374l-0.24483,1.021587l-0.468528,2.061215c-0.328846,1.544752 -0.611303,3.098266 -0.959736,4.638894l-0.476775,2.06173c-0.251016,1.168486 -0.493269,2.339549 -0.645837,3.525044l-0.066491,0.767995l-0.021648,0.861288l3.608028,0c0.242253,-0.860772 0.489146,-1.719483 0.695319,-2.590049c0.241738,-1.020557 0.437602,-2.051422 0.644806,-3.07971l0.427294,-2.06173l0.262871,-1.030865l0.368019,-1.030865l0.251016,-0.514917l0.664908,-1.023649l0.865411,-0.981899l0.48193,-0.452034l0.500485,-0.402037l0.507701,-0.336062l0.507701,-0.244315l0.981899,-0.149475l0.45255,0.11288l0.747377,0.570068l0.264417,0.413377l0.183494,0.462858l0.097932,0.493784l-0.000515,1.021072l-0.063914,0.514917l-0.183494,1.030865l-0.411831,2.06173l-0.216997,1.030865l-0.476775,2.0607l-0.620065,2.747771l-0.230914,0.861288l0.860772,0.301528l0.249469,0.02938l0.506155,0.10154l0.890668,0.06546l1.616397,0.017525l0.162877,-0.861288l0.867989,-4.293038c0.206688,-1.032412 0.4108,-2.064823 0.639136,-3.092596l0.282973,-1.030865l0.403584,-1.028804l0.582954,-1.010763l0.36905,-0.483476l0.870566,-0.879843l0.482445,-0.376781l0.49997,-0.318537l1.011279,-0.448942l0.504609,-0.123188l0.972106,-0.068553l0.251531,-0.002062l0.861288,0.102056c-0.002577,0.864381 0.002577,1.726699 -0.045874,2.590049c-0.02938,0.514402 -0.101025,1.02468 -0.180401,1.533412c-0.107725,0.69068 -0.255139,1.376205 -0.392244,2.06173l-0.63089,3.092596c-0.220605,1.003547 -0.476775,1.997817 -0.657177,3.009611l-0.104117,0.767995l-0.051028,0.861288l1.110242,-0.009793l0.944788,-0.066491c0.447396,-0.071645 0.892214,-0.176278 1.263325,-0.453581l0.32163,-0.296374l0.260293,-0.368534l0.208235,-0.427809l0.301528,-0.964374l0.118034,-0.508217l0.219059,-1.028288l0.345855,-1.546298l0.468013,-2.06173c0.248439,-1.197865 0.478837,-2.398823 0.663362,-3.608028c0.078861,-0.514917 0.155145,-1.027773 0.207204,-1.546298l0.024225,-0.515433l-0.096386,-1.028288l-0.345855,-1.005094l-0.609241,-0.915408l-0.393791,-0.392244l-0.440179,-0.332454l-0.97159,-0.45822l-0.508732,-0.122673l-0.513371,-0.052574l-1.03035,0.061852l-1.030865,0.219059l-0.515433,0.153599l-1.028288,0.418531l-0.505124,0.273179l-0.961282,0.664393l-0.767479,0.654084l-0.861288,0.831393l-0.348948,-0.837578l-0.137621,-0.22009l-0.262871,-0.455642l-0.617488,-0.713874l-0.805106,-0.563368l-0.45925,-0.205142l-0.984476,-0.247923l-1.023649,-0.02938l-1.03035,0.151022l-1.029834,0.272148l-1.01901,0.369565l-0.961282,0.451519l-0.515948,0.295858l-1.112819,0.702019m52.058695,10.824085c-0.545843,-0.166485 -1.076223,-0.34534 -1.628767,-0.483991l-0.961282,-0.125766l-1.01901,0.147929c-0.543781,0.14896 -1.03602,0.445334 -1.537536,0.691195l-0.992723,0.468013l-0.473683,0.161846l-0.89943,0.117003l-0.435541,-0.060306l-0.871597,-0.375235l-0.829847,-0.691711l-0.355649,-0.435025l-0.508217,-0.969529l-0.226275,-1.022103l-0.020617,-1.03035l0.139682,-1.03035l0.316476,-1.023649l0.515433,-0.990662l0.331939,-0.468013l0.381936,-0.44121l0.881905,-0.786035l0.984476,-0.632436l0.509763,-0.241222l0.513371,-0.178855l1.021587,-0.115457l0.969013,0.252047l0.835516,0.583985l0.222151,0.169577l0.55976,0.778819l0.861288,-0.052574l0.765417,-0.115457l0.940149,-0.220605c0.695834,-0.197411 1.38239,-0.423686 2.072039,-0.642229l-0.39946,-0.859226l-0.497392,-0.747377l-0.766964,-0.865927l-0.936026,-0.761294l-1.010248,-0.552544l-0.513886,-0.198957l-0.514917,-0.159784l-1.030865,-0.206173l-1.030865,-0.048966l-0.515433,0.034019c-0.520072,0.063398 -1.033442,0.144837 -1.546298,0.252562c-0.522649,0.109787 -1.034989,0.2438 -1.546298,0.396883l-1.030865,0.403584l-0.514917,0.266479l-1.023649,0.685525l-0.984476,0.870566l-0.459766,0.482445l-0.811806,1.010248l-0.344309,0.513886l-0.582954,1.03035c-0.258747,0.485538 -0.466467,1.017979 -0.619035,1.546298l-0.219059,1.030865l-0.055667,0.515433l-0.044327,1.030865l0.01134,1.030865l0.076284,1.030865l0.197926,1.030865l0.164938,0.514917l0.497392,1.022103l0.73243,0.97159l0.440179,0.440179l0.475229,0.394306l0.496362,0.338124l1.022103,0.497392l1.03035,0.282973l0.515433,0.079377c0.515948,0.049482 1.027773,0.081438 1.546298,0.069583l1.030865,-0.067522l0.515433,-0.073707l0.515433,-0.104633l1.030865,-0.309775l1.028804,-0.44688l0.509763,-0.274726l0.500485,-0.308744l0.936026,-0.709235l0.766964,-0.781911l0.323692,-0.468528l0.173701,-0.225244l0.39946,-0.83964m61.851915,0l-0.861288,-0.22009l-0.767479,-0.116488l-0.456158,-0.01237l-1.010248,0.142775l-1.028288,0.401522l-1.546298,0.773149l-1.030865,0.346886l-0.514917,0.0835l-0.513886,0.014948l-1.010248,-0.186587l-0.48193,-0.212874l-0.86335,-0.661815l-0.646868,-0.885513l-0.225244,-0.485022l-0.265963,-0.962313l-0.055667,-0.251016l-0.060821,-0.861288l3.609059,0l1.545267,-0.007731c0.515433,-0.010824 1.033958,-0.022679 1.546298,-0.087624l1.030865,-0.179371l1.03035,-0.316991l0.513371,-0.219059l0.508217,-0.265963l0.494815,-0.316476l0.897368,-0.784488l0.664908,-0.937572l0.219059,-0.500485l0.146383,-0.509763l0.085562,-0.513886l0.038657,-1.029834l-0.124219,-1.023649l-0.146383,-0.500485l-0.219059,-0.48193l-0.664908,-0.863865l-0.897368,-0.654084l-0.494815,-0.237099l-0.508217,-0.183494l-1.028288,-0.249985l-1.030865,-0.130404l-1.030865,-0.00567l-0.515433,0.042265l-1.030865,0.138651l-1.030865,0.207204l-0.515433,0.139682l-1.030865,0.383482l-1.03035,0.515433l-0.513886,0.310806l-0.509763,0.344309l-0.501001,0.387605l-0.942726,0.883967l-0.422655,0.483476l-0.382451,0.501001l-0.333485,0.509763l-0.290189,0.513886l-0.453065,1.03035c-0.191226,0.501001 -0.334516,1.02468 -0.454612,1.546298c-0.156692,0.677278 -0.263902,1.366927 -0.296889,2.06173c-0.049482,1.038597 0.046904,2.097295 0.360287,3.09208c0.284519,0.903553 0.71439,1.756594 1.347856,2.467376l0.870566,0.80459l0.482445,0.331939l0.500485,0.284519l0.509763,0.230914l1.028804,0.316991l0.515433,0.092778c0.515948,0.058759 1.026742,0.094324 1.546298,0.094324c0.514917,0 1.03602,-0.019071 1.546298,-0.093809c0.53038,-0.077315 1.042205,-0.208235 1.546298,-0.390182c0.538627,-0.194318 1.041689,-0.451519 1.545782,-0.720059l0.513371,-0.309775l1.003032,-0.720575l0.895822,-0.813353l0.636559,-0.722121l0.55976,-0.853041m20.617305,0c-0.545843,-0.166485 -1.076223,-0.34534 -1.628767,-0.483991l-0.961282,-0.125766l-1.01901,0.147929l-0.513886,0.189164l-1.023649,0.502031l-0.992723,0.468013l-0.473683,0.161846l-0.455642,0.09587l-0.879328,-0.039173l-0.871597,-0.375235l-0.427809,-0.310806l-0.402037,-0.380905l-0.355649,-0.435025l-0.291219,-0.473683l-0.216997,-0.495846l-0.144837,-0.508732l-0.081438,-0.513371l-0.019071,-1.03035l0.151022,-1.03035l0.145867,-0.513886l0.198957,-0.509763l0.545843,-0.990662l0.713874,-0.909223l0.851495,-0.786035l0.468013,-0.337608l0.990662,-0.53605l1.023649,-0.27988l0.514917,-0.014432l0.515433,0.079377l1.030865,0.39946c0.66697,0.336062 1.318477,0.756655 2.0607,0.909739l1.01901,0.054636l0.961282,-0.185556l0.767479,-0.231429l0.861288,-0.272664l-0.39946,-0.859226l-0.497392,-0.747377l-0.766964,-0.865927l-0.936026,-0.761294l-1.010248,-0.552544l-0.513886,-0.198957l-0.514917,-0.159784l-1.030865,-0.206173l-1.030865,-0.048966l-0.515433,0.034019c-0.520072,0.063398 -1.033442,0.145352 -1.546298,0.252562c-0.522649,0.109787 -1.034989,0.2438 -1.546298,0.396883l-1.030865,0.403584l-0.514917,0.266479l-1.023649,0.685525c-1.91277,1.480838 -3.312685,3.608544 -3.858529,5.969225l-0.177309,1.030865l-0.046904,0.515433l-0.032988,1.030865l0.039173,1.030865l0.148445,1.030865l0.316991,1.03035l0.230914,0.513371l0.284519,0.508732l0.713874,0.97159l0.422655,0.440179l0.45925,0.394306l0.984476,0.616457c0.95355,0.478321 2.030805,0.62522 3.084864,0.650991c0.518525,0.012886 1.03035,-0.020617 1.546298,-0.067522l0.515433,-0.073707l1.030865,-0.237099l0.515433,-0.164938l0.515433,-0.192772l1.028288,-0.481414l1.003032,-0.632436l0.469044,-0.373689l0.793251,-0.811806l0.492754,-0.722121l0.337093,-0.853041m57.728454,0l-0.850464,-0.273695l-1.391668,-0.483476l-0.850464,-0.273695l-0.860772,0.800467l-0.767995,0.604602l-0.958705,0.575223l-0.505124,0.20875l-1.030865,0.21442l-0.515433,0l-1.010248,-0.216997l-0.932933,-0.507701l-0.412346,-0.355133l-0.644291,-0.851495l-0.22679,-0.471621l-0.262871,-0.951489l-0.056698,-0.249469l-0.061852,-0.861288l3.608028,0l1.546298,-0.007731l1.030865,-0.040204c0.520587,-0.042781 1.03602,-0.106695 1.546298,-0.224729c0.525741,-0.121642 1.025711,-0.296374 1.525681,-0.491723l0.489661,-0.225244l0.463889,-0.25617l0.840155,-0.635013l0.685525,-0.806652l0.278334,-0.45925l0.231945,-0.483476l0.180401,-0.501001l0.185556,-1.023649l-0.072161,-1.028288l-0.134012,-0.509763l-0.479352,-0.982415l-0.335031,-0.454096l-0.835001,-0.767995l-0.974168,-0.532957l-0.505124,-0.183494l-0.515433,-0.141744c-0.510278,-0.110818 -1.020557,-0.204111 -1.546298,-0.238645c-0.69068,-0.045874 -1.376205,0.006185 -2.06173,0.096386c-0.520587,0.068553 -1.03602,0.170608 -1.546298,0.287611l-0.515433,0.143806l-1.030865,0.403584l-1.030865,0.549451l-1.010248,0.673155l-0.943242,0.793766l-0.809229,0.909223c-0.360803,0.465951 -0.659754,0.97726 -0.927779,1.500424c-0.340186,0.660269 -0.613365,1.35198 -0.835001,2.059669c-0.360803,1.159208 -0.60821,2.388515 -0.515433,3.608028c0.072161,0.882421 0.314414,1.759172 0.649445,2.575101c0.360803,0.871081 0.829847,1.706597 1.499909,2.376144l0.88139,0.713874l0.484507,0.284519l0.505124,0.230914l1.020557,0.316991l0.515433,0.092778l0.515433,0.055667l1.030865,0.039173c0.860772,0.003093 1.737008,-0.056182 2.577163,-0.259263l1.030865,-0.314929l0.515433,-0.213389l0.515433,-0.253593l1.010248,-0.617488l0.932933,-0.727275l0.767995,-0.763871l0.49997,-0.662846l0.396883,-0.810776m-396.367689,-12.885816c-0.233491,1.205081 -0.469559,2.410163 -0.733976,3.609059l-0.593778,2.576132l-0.952519,4.638894l-0.477291,2.06173c-0.223698,0.999939 -0.430902,2.003487 -0.623673,3.009611l-0.082985,0.516463l-0.048966,0.251531l-0.09484,0.861288l1.110242,-0.009793l0.946334,-0.066491l0.464405,-0.087624l0.430386,-0.146898l0.730368,-0.515433c0.449457,-0.475229 0.668001,-1.141683 0.825723,-1.760718c0.259778,-1.017464 0.435541,-2.055545 0.648414,-3.082803l0.216997,-1.030865l0.703566,-3.092596l0.842732,-4.12243l0.643775,-2.747771l0.168546,-0.861288l-4.123461,0m133.49705,0l0.162877,0.861288l0.649445,3.262173l0.259778,1.546298l0.346886,2.06173l0.345855,2.06173l0.195349,1.030865c0.230398,1.200958 0.476775,2.398308 0.656146,3.608028c0.124735,0.842732 0.29792,1.727215 0.123704,2.576648l-0.346886,1.023649l-0.284003,0.500485l-0.344309,0.48193l-0.830877,0.865927l-0.944788,0.674701l-0.48193,0.271118l-0.889637,0.499454l-0.365957,0.27988l-0.487599,0.703566l-0.101025,0.413377l0,0.42317l0.299466,0.749954l0.289158,0.26751l0.366473,0.170608l0.427294,0.073191l0.469559,-0.017525l1.003032,-0.243284c0.539658,-0.17834 1.038081,-0.442757 1.535989,-0.711297l0.503062,-0.30926l0.489146,-0.343794l0.472136,-0.377297l0.450488,-0.4108l0.430386,-0.44121l0.806652,-0.956128c1.027773,-1.290128 1.872567,-2.706537 2.744163,-4.102844l1.624644,-2.577163c0.631405,-1.020041 1.24477,-2.051937 1.842156,-3.092596l1.170547,-2.06173c0.58347,-1.017979 1.181372,-2.027712 1.678249,-3.092596c0.390182,-0.836032 0.722121,-1.698866 1.011794,-2.574586c0.1603,-0.483991 0.306167,-0.972621 0.433479,-1.46589l0.104633,-0.516463l0.060821,-0.251531l0.102056,-0.861288l-1.110242,0.009793l-0.946334,0.066491c-0.456673,0.072676 -0.904584,0.180917 -1.289612,0.453581c-0.535534,0.379358 -0.849948,0.969529 -1.093233,1.562276l-0.948396,2.546753c-0.356164,0.877266 -0.765417,1.730307 -1.188588,2.577163l-0.798921,1.546298c-0.557698,1.016433 -1.148384,2.012764 -1.738039,3.010642l-0.143806,0.251531l-0.53605,0.861288l-0.223182,-0.861288l-0.150506,-0.767995l-0.358741,-2.494178l-0.158753,-1.030865l-0.279364,-2.06173l-0.236068,-1.546298l-0.353587,-2.494178l-0.301528,-1.629283l-4.123461,0m99.478497,0l-0.168546,0.861288l-0.753562,3.262173c-0.329361,1.544752 -0.611303,3.098266 -0.959736,4.638894l-0.476775,2.06173l-0.63089,3.091565l-0.391729,1.979777l-0.082985,0.516463l-0.048966,0.251531l-0.09484,0.861288l1.110242,-0.009793l0.944788,-0.066491l0.883452,-0.234522l0.379874,-0.219059l0.32163,-0.296374l0.26184,-0.368534l0.212358,-0.427809l0.32163,-0.964374c0.327815,-1.186526 0.576254,-2.392638 0.821084,-3.598235l0.631405,-3.092596l0.703566,-3.092596l0.727275,-3.525044c0.120611,-0.548936 0.271633,-1.084986 0.412346,-1.629283l-4.123461,0m113.91061,0l-0.051028,0.861288l-0.104117,0.767995c-0.180401,1.011794 -0.436571,2.006064 -0.657177,3.009611l-0.424716,2.06173l-0.4108,2.06173c-0.164938,0.856649 -0.319053,1.712783 -0.435025,2.577163c-0.068553,0.509763 -0.121642,1.031381 -0.11855,1.546298l0.064429,1.028804l0.091747,0.509763l0.3273,0.982415l0.245861,0.454096l0.662846,0.765933l0.865411,0.515433l0.982415,0.262871l0.509763,0.056182l0.513886,0.020102l1.03035,-0.05412c0.888606,-0.099994 1.763295,-0.331939 2.574586,-0.710782c0.520072,-0.242769 0.995816,-0.545843 1.466406,-0.871597l0.767479,-0.611819l0.861288,-0.800982l0.082469,0.850979l0.079892,0.231429l0.367503,0.838093l0.662331,0.635013l0.420593,0.19638l0.899945,0.100509l0.80459,-0.299466l0.320084,-0.288642l0.253593,-0.364411l0.188133,-0.420593l0.122673,-0.448426l0.047935,-0.867989l-0.168546,-0.633982l-0.473167,-0.55976l0.35204,-0.861288l0.06546,-0.251531l0.164938,-0.516463l0.23246,-0.960766l0.318537,-1.533412l0.515948,-2.577163l0.63089,-3.091565l0.643775,-2.747771l0.168546,-0.861288l-4.123461,0c-0.233491,1.205081 -0.469559,2.410163 -0.733976,3.609059l-0.704081,3.091565l-0.335031,1.546298l-0.282973,1.028804l-0.402037,1.01231l-0.262871,0.488115l-0.664908,0.909223l-0.834485,0.787581l-0.46492,0.342247l-0.97159,0.563368l-0.954066,0.351525l-0.871597,0.044843l-0.747893,-0.336062l-0.308229,-0.30926l-0.446365,-0.82263l-0.128858,-0.476775l-0.088139,-1.008186l0.022164,-0.513886l0.053605,-0.514917l0.165454,-1.030865c0.272664,-1.560215 0.670578,-3.093111 1.010763,-4.638894c0.181948,-0.828816 0.347402,-1.661239 0.507186,-2.494178l0.082985,-0.516463l0.048966,-0.251531l0.09484,-0.861288l-4.123461,0m22.679035,0l-0.162877,0.861288l-0.455642,2.233885l-0.63089,3.090019l-0.703566,3.092596l-0.625735,3.092596l-0.452034,2.059153l-0.338124,1.46589l-0.089685,0.516463l-0.05309,0.251531l-0.096386,0.861288l1.110242,-0.009793l0.946334,-0.066491c0.454096,-0.072161 0.906131,-0.179371 1.287551,-0.453581l0.337608,-0.296374l0.27988,-0.368534l0.402553,-0.897368l0.14329,-0.494815l0.337093,-1.536505c0.28555,-1.377236 0.526772,-2.767873 0.907677,-4.123461c0.298951,-1.064368 0.644291,-2.137499 1.309199,-3.038475l0.783458,-0.881905l0.458735,-0.381936l0.479352,-0.332454l1.010248,-0.52471c0.474198,-0.220605 0.984476,-0.370081 1.474137,-0.563883l0.814384,-0.453065l0.319568,-0.30926l0.469044,-0.783458l0.15463,-0.409769l0.206173,-0.739646l0.170093,-0.859226l-0.860772,0.008247l-0.767995,0.047935l-0.453581,0.061336l-1.010248,0.264417l-1.020557,0.503578l-0.958705,0.695834l-0.767995,0.67367l-0.860772,0.837578l0.221636,-0.847887l0.144321,-0.698411l0.097932,-0.698411l0.051543,-0.847887l-3.608028,0z"/>
   <path stroke="null" id="svg_10" fill="#F2F0F0" d="m98.532318,357.261629l2.590049,-0.000515c0.510278,-0.001031 1.023649,0.00567 1.533412,-0.020102l1.028804,-0.076799l0.509763,-0.079892l0.500485,-0.118034l0.933964,-0.383997l0.403584,-0.277818l0.341732,-0.336578l0.420078,-0.813868l0,-0.876751l-0.163392,-0.402553l-0.256685,-0.354102l-0.745316,-0.507701l-0.933964,-0.223698l-0.500485,-0.012886l-1.023649,0.149475l-1.028288,0.376781l-0.509763,0.277818l-0.98293,0.729853c-0.457189,0.397914 -0.848402,0.855618 -1.220544,1.331878l-0.497392,0.758201l-0.39946,0.861288m80.922922,0l2.590049,-0.000515c0.509763,-0.001031 1.024165,0.007731 1.533412,-0.021648l1.028804,-0.088139l0.509763,-0.092778l0.49997,-0.133497l0.92881,-0.414408l0.396368,-0.284003l0.328846,-0.330392l0.386574,-0.783973l-0.018556,-0.847887l-0.157207,-0.395337l-0.24483,-0.349979l-0.323176,-0.287096l-0.827269,-0.364926l-0.97159,-0.090716l-0.508217,0.046389l-1.027773,0.262355l-0.513886,0.217513l-0.509763,0.277818l-0.98293,0.729853c-0.457189,0.397914 -0.848402,0.855618 -1.220544,1.331878l-0.497392,0.758201l-0.39946,0.861288m271.632993,0l2.084925,0l1.524134,-0.007731l1.029319,-0.048451l0.513371,-0.061336l0.508217,-0.106179l0.494815,-0.158753l0.894791,-0.515433l0.360803,-0.356164l0.448942,-0.853556l0.05979,-0.461828l-0.05979,-0.454612l-0.172154,-0.422139l-0.276787,-0.366473l-0.78655,-0.507186l-0.963859,-0.188648l-0.508217,0.009793l-1.026226,0.198442l-1.01231,0.412346l-0.487599,0.284519l-0.902007,0.711812c-0.40513,0.382966 -0.733976,0.8216 -1.041174,1.284974l-0.395852,0.747377l-0.286581,0.859226m78.345759,0l2.587472,-0.000515c0.855618,-0.004639 1.716391,0.013401 2.566854,-0.107725l1.010248,-0.202565l0.969013,-0.30926l1.113334,-0.4108l0,-3.092596l-0.860772,-0.220605l-0.252562,-0.040719l-0.515433,-0.084531l-0.958705,-0.025772l-1.020557,0.151537l-0.510278,0.146898l-0.49997,0.191226l-0.95355,0.514917l-0.855618,0.682948l-0.376266,0.393275l-0.633982,0.83397l-0.283488,0.488115l-0.525741,1.092202m-369.049244,-3.738433l-1.023649,0.512855l-0.500485,0.356679l-0.48193,0.409254l-0.454096,0.454096l-0.409254,0.48193l-0.356679,0.500485l-0.515433,1.023649l-0.264417,1.03035l-0.05979,0.515433l-0.027833,1.030865c0.026802,0.85768 0.141229,1.75144 0.577285,2.508611l0.646868,0.832424l0.409254,0.332454l0.454096,0.265448l0.48193,0.19071l1.010248,0.156692l0.513371,-0.032472l1.023134,-0.26854l0.98293,-0.496877l0.455127,-0.321115l0.415439,-0.362349l0.685525,-0.840155l0.492754,-0.954581l0.189679,-0.502547l0.311837,-1.023649c0.138651,-0.510794 0.248439,-1.023649 0.336062,-1.545782l0.054636,-1.03035l-0.195864,-1.021587l-0.212358,-0.494815l-0.639136,-0.897368l-0.409254,-0.368019l-0.936026,-0.507701l-0.500485,-0.132466l-0.509763,-0.05412l-0.513886,0.015463l-1.029834,0.237099m166.486284,0.00567c-0.938087,0.333485 -1.730823,0.98293 -2.376144,1.727215c-0.635013,0.73243 -1.122612,1.595779 -1.412801,2.520981l-0.226275,1.030865l-0.053605,0.515433l-0.018556,1.03035l0.126281,1.022103l0.146383,0.496362l0.219059,0.475229l0.664908,0.832424l0.897368,0.596356l0.494815,0.187102l0.508217,0.109272l0.513371,0.026287l1.028288,-0.169577l1.010248,-0.407192l0.482445,-0.266479l0.870566,-0.653053l0.685525,-0.811806l0.492754,-0.943242l0.189679,-0.501001l0.311321,-1.023649c0.139167,-0.510794 0.248954,-1.023649 0.336578,-1.545782l0.054636,-1.028804l-0.195864,-1.010248l-0.212358,-0.48193l-0.284519,-0.454096l-0.763871,-0.765417l-0.936026,-0.507701l-0.500485,-0.144321l-0.509763,-0.072676l-0.513886,0l-1.028288,0.216997z"/>
   <path stroke="null" id="svg_11" fill="#F76E42" d="m232.5448,362.931388l-0.049997,0.861288l-0.088654,0.757686l-0.093809,0.894276l0.036596,0.78088l0.157207,0.316476l0.051543,0.175763l0.502547,0.337093l-0.462343,0.859226l-0.270087,0.746862c-0.102056,0.376266 -0.17834,0.757686 -0.240192,1.142714l-0.058244,0.859226l0.803044,-0.176793l0.629859,-0.353587l0.683464,-0.664393l0.316991,-0.427809l0.561822,-0.964374l0.237099,-0.508217l0.38142,-1.027257l0.262871,-1.01901l0.157207,-0.960766l0.043296,-0.516463l0.046389,-1.112819l-3.608028,0m173.185362,0c-0.157722,0.860257 -0.338639,1.714329 -0.390182,2.590049c-0.049997,0.850979 0.038142,1.702474 -0.062367,2.551391c-0.059275,0.501516 -0.18504,0.988084 -0.30359,1.47723l-0.071645,0.251531l-0.20308,0.861288l2.06173,0l0.441726,-0.861288l0.142259,-0.251531l0.513886,-0.972106c0.246377,-0.496877 0.470075,-0.998393 0.649961,-1.524134c0.171639,-0.49997 0.29225,-1.016949 0.407192,-1.532381l0.194834,-0.960766l0.0835,-0.516463l0.048966,-0.251531l0.09484,-0.861288l-3.608028,0z"/>
  </g>
 </g>
</svg>